<?xml version="1.0" encoding="UTF-8" standalone="no"?>
<svg width="318px" height="177px" viewBox="0 0 318 177" version="1.1" xmlns="http://www.w3.org/2000/svg" xmlns:xlink="http://www.w3.org/1999/xlink" xmlns:sketch="http://www.bohemiancoding.com/sketch/ns">
    <!-- Generator: Sketch 3.2.2 (9983) - http://www.bohemiancoding.com/sketch -->
    <title>Rectangle 495 + Group</title>
    <desc>Created with Sketch.</desc>
    <defs></defs>
    <g id="Page-1" stroke="none" stroke-width="1" fill="none" fill-rule="evenodd" sketch:type="MSPage">
        <g id="Homepage-(docenten)-3" sketch:type="MSArtboardGroup" transform="translate(-34.000000, -1119.000000)">
            <g id="Rectangle-495-+-Group" sketch:type="MSLayerGroup" transform="translate(34.000000, 1119.000000)">
                <rect id="Rectangle-495" fill="#F6A623" sketch:type="MSShapeGroup" x="0" y="0" width="318" height="177"></rect>
                <g id="Group" transform="translate(84.000000, 18.000000)" sketch:type="MSShapeGroup">
                    <path d="M111.257812,81.515625 C101.460516,81.515625 92.7978281,86.2721719 87.3781406,93.5821406 L61.1609531,80.4713437 C60.3413906,84.9569062 58.5568594,89.0987812 56.0232656,92.6832656 L82.0531875,105.699328 C81.7117031,107.501484 81.515625,109.356516 81.515625,111.257812 C81.515625,127.684312 94.8313125,141 111.257812,141 C127.684312,141 141,127.684312 141,111.257812 C141,94.8313125 127.684312,81.515625 111.257812,81.515625" id="Fill-5122" fill="#FFFFFF"></path>
                    <path d="M110.15625,0 C93.1216875,0 79.3125,13.8091875 79.3125,30.84375 C79.3125,32.74725 79.5085781,34.6022812 79.8390469,36.4088438 L50.4559688,51.0992812 C53.9435156,53.9765625 56.7569062,57.6227344 58.7110781,61.7535937 L84.9767344,48.6207656 C90.5616562,56.5167656 99.7464844,61.6875 110.15625,61.6875 C127.190812,61.6875 141,47.8783125 141,30.84375 C141,13.8091875 127.190812,0 110.15625,0" id="Fill-5123" fill="#FFFFFF"></path>
                    <path d="M61.6875,74.90625 C61.6875,91.9408125 47.8783125,105.75 30.84375,105.75 C13.8091875,105.75 0,91.9408125 0,74.90625 C0,57.8716875 13.8091875,44.0625 30.84375,44.0625 C47.8783125,44.0625 61.6875,57.8716875 61.6875,74.90625" id="Fill-5124" fill="#1E88E5"></path>
                    <path d="M127.78125,45.5319844 C127.78125,47.1534844 126.465984,48.46875 124.844484,48.46875 L95.4680156,48.46875 C93.8465156,48.46875 92.53125,47.1534844 92.53125,45.5319844 L92.53125,16.1555156 C92.53125,14.5340156 93.8465156,13.21875 95.4680156,13.21875 L124.844484,13.21875 C126.465984,13.21875 127.78125,14.5340156 127.78125,16.1555156 L127.78125,45.5319844 Z" id="Fill-5125" fill="#F9E1C2"></path>
                    <path d="M105.108891,108.54907 L100.722469,108.54907 C98.7132188,108.54907 97.1093437,107.002477 97.1093437,104.993227 C97.1093437,102.98618 98.7132188,101.380102 100.722469,101.380102 L105.108891,101.380102 L105.108891,99.4303359 C105.108891,96.0463359 105.970313,93.5788359 107.576391,91.9727578 C109.182469,90.3644766 111.535406,89.5603359 114.630797,89.5603359 C116.009953,89.5603359 117.215062,89.6176172 118.188844,89.7916641 C119.680359,90.0207891 121.171875,91.3382578 121.171875,93.2902266 C121.171875,95.2399922 119.565797,96.9033516 117.616031,96.9033516 L116.869172,96.9033516 C114.859922,96.9033516 113.714297,97.9366172 113.714297,100.232273 L113.714297,101.43518 L117.501469,101.43518 C119.508516,101.43518 121.114594,102.98618 121.114594,104.993227 C121.114594,107.002477 119.508516,108.54907 117.501469,108.54907 L113.828859,108.54907 L113.828859,127.828617 C113.828859,130.238836 111.879094,132.186398 109.468875,132.186398 C107.058656,132.186398 105.108891,130.238836 105.108891,127.828617 L105.108891,108.54907 Z" id="Fill-5126" fill="#1465C0"></path>
                    <path d="M124.843383,13.21875 L95.4691172,13.21875 C93.8476172,13.21875 92.5301484,14.5340156 92.5301484,16.1555156 L92.5301484,45.5319844 C92.5301484,46.2678281 92.8275703,46.9199531 93.2748047,47.4354844 L126.749086,13.9634062 C126.231352,13.5161719 125.579227,13.21875 124.843383,13.21875" id="Fill-5127" fill="#FCF1E2"></path>
                    <path d="M30.84375,44.0625 C13.8091875,44.0625 0,57.8716875 0,74.90625 C0,83.3508281 3.39942187,90.9956719 8.89621875,96.5651719 L52.5026719,52.9587188 C46.9331719,47.4619219 39.2883281,44.0625 30.84375,44.0625" id="Fill-5128" fill="#42A5F6"></path>
                    <path d="M40.7738953,60.0556453 C48.1543641,60.0556453 48.1543641,67.4361141 48.1543641,67.4361141 L53.0761453,69.8970047 C53.0761453,69.8970047 53.0761453,72.3578953 45.6934734,74.8187859 C48.1543641,82.1992547 39.5423484,92.0406141 29.7009891,92.0406141 C19.8596297,92.0406141 12.4769578,84.6601453 12.4769578,74.8187859 C12.4769578,74.8187859 18.6280828,79.7383641 26.0107547,77.2796766 C26.2442859,77.4383016 18.7140047,72.5209266 21.0889734,60.0556453 C21.0889734,60.0556453 26.0107547,67.4361141 33.3912234,67.4361141 C33.3912234,67.4361141 33.3912234,60.0556453 40.7738953,60.0556453" id="Fill-5129" fill="#FFFFFF"></path>
                    <path d="M124.843383,13.21875 L95.4691172,13.21875 C93.8454141,13.21875 92.5301484,14.5340156 92.5301484,16.1555156 L92.5301484,27.9069844 L127.780148,27.9069844 L127.780148,16.1555156 C127.780148,14.5340156 126.467086,13.21875 124.843383,13.21875" id="Fill-5130" fill="#8F4D37"></path>
                    <path d="M95.4691172,13.21875 C93.8476172,13.21875 92.5323516,14.5340156 92.5323516,16.1555156 L92.5323516,27.9069844 L112.805508,27.9069844 L126.749086,13.9634062 C126.231352,13.5161719 125.579227,13.21875 124.843383,13.21875 L95.4691172,13.21875 Z" id="Fill-5131" fill="#824E3E"></path>
                    <path d="M120.437133,30.84375 C120.437133,36.5212031 115.834805,41.1257344 110.155148,41.1257344 C104.477695,41.1257344 99.8753672,36.5212031 99.8753672,30.84375 C99.8753672,25.1662969 104.477695,20.5617656 110.155148,20.5617656 C115.834805,20.5617656 120.437133,25.1662969 120.437133,30.84375" id="Fill-5132" fill="#212121"></path>
                    <path d="M110.15625,20.5617656 C104.478797,20.5617656 99.8742656,25.1662969 99.8742656,30.84375 C99.8742656,33.6086719 100.980234,36.1092187 102.755953,37.9554375 L117.267938,23.4434531 C115.419516,21.6677344 112.921172,20.5617656 110.15625,20.5617656" id="Fill-5133" fill="#5B5C5F"></path>
                </g>
            </g>
        </g>
    </g>
</svg>