<?xml version="1.0" encoding="UTF-8" standalone="no"?>
<svg width="318px" height="177px" viewBox="0 0 318 177" version="1.1" xmlns="http://www.w3.org/2000/svg" xmlns:xlink="http://www.w3.org/1999/xlink" xmlns:sketch="http://www.bohemiancoding.com/sketch/ns">
    <!-- Generator: Sketch 3.2.2 (9983) - http://www.bohemiancoding.com/sketch -->
    <title>Group</title>
    <desc>Created with Sketch.</desc>
    <defs></defs>
    <g id="Page-1" stroke="none" stroke-width="1" fill="none" fill-rule="evenodd" sketch:type="MSPage">
        <g id="Homepage-(docenten)-3" sketch:type="MSArtboardGroup" transform="translate(-814.000000, -1119.000000)">
            <g id="Group" sketch:type="MSLayerGroup" transform="translate(814.000000, 1119.000000)">
                <rect id="Rectangle-494" fill="#8BC34A" sketch:type="MSShapeGroup" x="0" y="0" width="318" height="177"></rect>
                <g transform="translate(213.000000, 87.000000)" sketch:type="MSShapeGroup">
                    <path d="M69.6157938,30.2811429 C67.2764862,31.624 67.24644,33.0511429 67.24644,35.4711429 L67.24644,37.1425714 L64.3849015,37.1425714 L64.3849015,21.3311429 C52.6669015,24.3282857 36.9499015,23.7268571 29.0205785,16.684 C27.4467323,20.2211429 27.1949169,24.774 27.1849015,30.0511429 L27.1849015,41.4282857 L32.9079785,55.714 L40.2120554,61.4225714 C41.0261631,62.3354286 42.19224,62.8568571 43.4169785,62.8568571 L47.2156708,62.8568571 L51.0143631,62.8568571 C52.2376708,62.8568571 53.4037477,62.3354286 54.2178554,61.4225714 L61.5233631,55.714 L66.0918092,44.3111429 C70.1637785,44.0382857 71.5387477,37.8825714 71.5387477,33.2268571 C71.5387477,31.9925714 70.6717015,30.7697143 69.6157938,30.2811429" id="Fill-378" fill="#FFCDD2"></path>
                    <path d="M75.8307692,16.144 C73.0507846,-4.03171429 27.1846154,-5.43885714 27.1846154,13.0754286 L27.1846154,14.7982857 C34.2740769,23.6182857 51.6894,24.5797143 64.3846154,21.3311429 L64.3846154,37.1425714 L67.2461538,37.1425714 L67.2461538,35.4711429 C67.2461538,32.8825714 67.2461538,31.4282857 70.1076923,29.9997143 L70.1076923,19.4468571 C72.3797538,18.494 74.3370462,17.3825714 75.8307692,16.144" id="Fill-380" fill="#5C1700"></path>
                    <path d="M30.0461538,37.1428571 L27.1846154,37.1428571 L27.1846154,35.4714286 C27.1846154,33.0514286 27.1517077,31.6242857 24.8152615,30.2814286 C23.7593538,30.77 22.8923077,31.9928571 22.8923077,33.2271429 C22.8923077,37.8828571 24.2672769,44.0385714 28.3392462,44.3114286 L32.9076923,55.7142857 L40.2132,61.4228571 C41.0258769,62.3357143 42.1919538,62.8571429 43.4166923,62.8571429 L47.2153846,62.8571429 L47.2153846,22.9357143 C40.6381385,22.5228571 34.3985538,20.8528571 30.0461538,17.5485714 L30.0461538,37.1428571 Z" id="Fill-382" fill="#FFECEE"></path>
                    <path d="M47.2153846,0.083 C37.0211538,0.375857143 27.9,4.37728571 27.2475692,12.1872857 C25.5106154,13.1672857 24.3230769,15.0087143 24.3230769,17.143 L24.3230769,30.0001429 C27.1846154,31.4287143 27.1846154,32.8815714 27.1846154,35.4701429 L27.1846154,37.143 L30.0461538,37.143 L30.0461538,17.5487143 C34.3985538,20.853 40.6381385,22.523 47.2153846,22.9358571 L47.2153846,0.083 Z" id="Fill-384" fill="#733724"></path>
                    <path d="M40.2124846,61.4222857 L32.9069769,55.7137143 L32.9069769,64.2851429 L11.5069615,70.0251429 C9.58257692,70.8651429 8.03448462,72.3808571 7.15313077,74.2851429 L1.43005385,89.9994286 L47.2146692,89.9994286 L47.2146692,62.8565714 L43.4174077,62.8565714 C42.1926692,62.8565714 41.0265923,62.3351429 40.2124846,61.4222857" id="Fill-386" fill="#FFCDD2"></path>
                    <path d="M87.2769231,74.2857143 C86.397,72.3814286 84.8474769,70.8657143 82.9216615,70.0257143 L61.5230769,64.2857143 L61.5230769,55.7142857 L54.2175692,61.4228571 C53.4048923,62.3357143 52.2388154,62.8571429 51.0140769,62.8571429 L47.2153846,62.8571429 L47.2153846,90 L93,90 L87.2769231,74.2857143 Z" id="Fill-388" fill="#F5B1A9"></path>
                    <path d="M47.2153846,90 L47.2153846,82.86 C31.0205077,82.86 27.4392923,80.3914286 25.7538462,65.7142857 C24.1599692,66.2685714 20.0307692,67.1428571 20.0307692,67.1428571 L20.0307692,90 L47.2153846,90 Z" id="Fill-390" fill="#FFFFFF"></path>
                    <path d="M47.2153846,90 L47.2153846,82.86 C63.4102615,82.86 66.9914769,80.3914286 68.6769231,65.7142857 C70.2708,66.2685714 74.4,67.1428571 74.4,67.1428571 L74.4,90 L47.2153846,90 Z" id="Fill-392" fill="#FFFFFF"></path>
                    <path d="M42.9230769,32.9101429 C42.9230769,31.3315714 41.6411077,30.053 40.0615385,30.053 L40.0529538,30.053 C40.0543846,30.083 40.0615385,30.1115714 40.0615385,30.1415714 C40.0615385,31.7172857 38.7852923,32.993 37.2085846,32.9987143 C37.2572308,34.5344286 38.5120154,35.7672857 40.0615385,35.7672857 C41.6411077,35.7672857 42.9230769,34.4872857 42.9230769,32.9101429" id="Fill-394" fill="#212121"></path>
                    <path d="M57.2217554,32.9101429 C57.2217554,31.3315714 55.9397862,30.053 54.3602169,30.053 L54.3516323,30.053 C54.3530631,30.083 54.3602169,30.1115714 54.3602169,30.1415714 C54.3602169,31.7172857 53.0839708,32.993 51.5072631,32.9987143 C51.5544785,34.5344286 52.8106938,35.7672857 54.3602169,35.7672857 C55.9397862,35.7672857 57.2217554,34.4872857 57.2217554,32.9101429" id="Fill-396" fill="#212121"></path>
                    <path d="M40.0615385,47.1958571 L54.3692308,47.1958571 C54.3692308,47.1958571 54.3692308,51.4815714 47.2153846,51.4815714 C40.0615385,51.4815714 40.0615385,47.1958571 40.0615385,47.1958571" id="Fill-398" fill="#E57373"></path>
                </g>
                <path d="M216,63.7443193 C216,53.338092 209.525156,44.4472661 200.364187,40.7869619 C193.103812,23.1626855 181.377844,16.0012207 167.015625,16.0012207 C153.515531,16.0012207 141.8145,23.6383482 136.077094,34.8102333 C126.949969,30.9518836 116.659688,37.3618367 116.2785,47.2853281 C107.967188,50.1923523 102,58.0363666 102,67.2808451 C102,78.9991234 111.570656,88.5 123.375,88.5 L194.625,88.5 C194.625,88.5 216,84.5638468 216,63.7443193" id="Fill-6640" fill="#F0F0F0" sketch:type="MSShapeGroup"></path>
                <path d="M167.015625,16.0012207 C153.515531,16.0012207 141.8145,23.6383482 136.077094,34.8102333 C134.363531,34.0870137 132.478969,33.6838498 130.5,33.6838498 C122.813906,33.6838498 116.568844,39.7277724 116.2785,47.2853281 C107.967188,50.1923523 102,58.0363666 102,67.2808451 C102,78.4102918 110.633719,87.5203823 121.613344,88.4115869 L187.688813,22.816106 C181.755469,18.1160631 174.77475,16.0012207 167.015625,16.0012207" id="Fill-6641" fill="#FFFFFF" sketch:type="MSShapeGroup"></path>
                <g transform="translate(24.000000, 87.000000)" sketch:type="MSShapeGroup">
                    <path d="M68.7223385,68.2565538 C65.9544923,59.7730154 65.9392615,49.1267077 66.1898769,43.3957846 C65.4491077,44.0562462 64.5463385,44.5284 63.4455692,44.7180923 C61.7521846,51.0319385 58.8998769,55.3754769 55.6737231,58.4077846 C55.8620308,60.7270154 56.2566462,63.1237846 56.9544923,65.4513231 L68.7223385,68.2565538 Z" id="Fill-2177" fill="#212121"></path>
                    <path d="M85.0274308,77.0726769 C83.7965077,73.8728308 81.1546615,71.4234462 77.8717385,70.4376 L55.3842,65.0763692 L45.6918923,66.4609846 L35.9995846,65.0763692 L13.5134308,70.4376 C10.2291231,71.4234462 7.58727692,73.8728308 6.35773846,77.0726769 L1.3842,89.9994462 L45.6918923,89.9994462 L89.9995846,89.9994462 L85.0274308,77.0726769 Z" id="Fill-2178" fill="#E57373"></path>
                    <path d="M59.5384615,62.3076923 L59.5384615,53.7286154 C55.6047692,59.8153846 50.2393846,62.6898462 45.6923077,64.2073846 C41.1493846,62.6912308 35.7812308,59.8347692 31.8461538,53.7604615 L31.8461538,62.3076923 C31.8461538,63.6923077 38.0284615,84.2524615 45.6923077,90 C53.3575385,84.2524615 59.5384615,63.6923077 59.5384615,62.3076923" id="Fill-2179" fill="#F4D0A1"></path>
                    <path d="M66.4615385,30.9760615 L65.0769231,30.9760615 L65.0769231,30.9469846 C65.052,18.4729846 63.6590769,7.4376 45.6923077,7.4376 C27.7255385,7.4376 26.3326154,18.4729846 26.3076923,30.9469846 C26.3076923,54.2057538 37.3846154,61.4376 45.6923077,64.2068308 C52.0670769,62.0814462 60.0646154,57.3197538 63.4458462,44.7183692 C68.0344615,43.9249846 69.2307692,38.3311385 69.2307692,34.0526769 C69.2307692,32.5143692 67.8461538,30.9760615 66.4615385,30.9760615" id="Fill-2180" fill="#F9E1C2"></path>
                    <path d="M45.6923077,7.4376 C27.7255385,7.4376 26.3326154,18.4743692 26.3076923,30.9469846 C26.3076923,54.2043692 37.3846154,61.4376 45.6923077,64.2068308 L45.6923077,7.4376 Z" id="Fill-2181" fill="#FCF1E2"></path>
                    <path d="M54,7.4376 C55.3846154,26.8222154 59.5384615,30.9469846 66.4615385,30.9760615 C66.5169231,22.6406769 71.5416923,6.49744615 54,7.4376" id="Fill-2182" fill="#212121"></path>
                    <path d="M37.3346308,33.0462 C39.3160154,33.0462 40.9720154,33.4297385 41.4317077,34.6149692 C41.4372462,33.2303538 40.0415538,31.2282 37.3346308,31.2282 C34.6304769,31.2282 33.1087846,33.2303538 33.2375538,34.6149692 C33.6972462,33.4297385 35.3546308,33.0462 37.3346308,33.0462" id="Fill-2183" fill="#212121"></path>
                    <path d="M53.8431231,33.0462 C55.8245077,33.0462 57.4818923,33.4297385 57.9388154,34.6149692 C57.9457385,33.2303538 56.5514308,31.2282 53.8431231,31.2282 C51.1389692,31.2282 49.6158923,33.2303538 49.7474308,34.6149692 C50.2057385,33.4297385 51.8631231,33.0462 53.8431231,33.0462" id="Fill-2184" fill="#212121"></path>
                    <path d="M38.7692308,48.9760615 L52.6153846,48.9760615 C52.6153846,48.9760615 52.6153846,53.1299077 45.6923077,53.1299077 C38.7692308,53.1299077 38.7692308,48.9760615 38.7692308,48.9760615" id="Fill-2185" fill="#E57373"></path>
                    <path d="M31.8461538,62.3076923 C31.8461538,62.3076923 22.1538462,65.0769231 20.7692308,72 C27.6923077,72 41.5384615,90 41.5384615,90 L45.6923077,90 C38.0284615,84.2524615 31.8461538,63.6923077 31.8461538,62.3076923" id="Fill-2186" fill="#FFFFFF"></path>
                    <path d="M59.5384615,62.3076923 C59.5384615,63.6923077 53.3575385,84.2524615 45.6923077,90 L49.8461538,90 C49.8461538,90 63.6923077,72 70.6153846,72 C69.2307692,65.0769231 59.5384615,62.3076923 59.5384615,62.3076923" id="Fill-2187" fill="#FFFFFF"></path>
                    <path d="M35.6789077,58.3614 C35.2746,61.9641692 34.5033692,65.2152462 33.4953692,68.1312462 C35.8284462,75.0349385 40.4087538,86.0370923 45.6924462,89.9998615 L45.6924462,64.2072462 C41.6299846,62.8530923 38.3401385,60.8717077 35.6789077,58.3614" id="Fill-2188" fill="#F9E1C2"></path>
                    <path d="M18,26.3076923 L18,88.6153846 C18,88.6153846 36,78.0535385 36,52.7233846 L36,30.9766154 C36,8.838 55.3846154,19.8996923 54,7.43815385 C47.0769231,-5.02338462 18,1.38461538 18,26.3076923" id="Fill-2189" fill="#212121"></path>
                </g>
            </g>
        </g>
    </g>
</svg>