<?xml version="1.0" encoding="UTF-8" standalone="no"?>
<svg width="318px" height="177px" viewBox="0 0 318 177" version="1.1" xmlns="http://www.w3.org/2000/svg" xmlns:xlink="http://www.w3.org/1999/xlink" xmlns:sketch="http://www.bohemiancoding.com/sketch/ns">
    <!-- Generator: Sketch 3.2.2 (9983) - http://www.bohemiancoding.com/sketch -->
    <title>Rectangle 496 + Group + Group</title>
    <desc>Created with Sketch.</desc>
    <defs></defs>
    <g id="Page-1" stroke="none" stroke-width="1" fill="none" fill-rule="evenodd" sketch:type="MSPage">
        <g id="Homepage-(docenten)-3" sketch:type="MSArtboardGroup" transform="translate(-1201.000000, -1119.000000)">
            <g id="Rectangle-496-+-Group-+-Group" sketch:type="MSLayerGroup" transform="translate(1201.000000, 1119.000000)">
                <rect id="Rectangle-496" fill="#8E45B7" sketch:type="MSShapeGroup" x="0" y="0" width="318" height="177"></rect>
                <g id="Group" transform="translate(129.000000, 21.000000)" sketch:type="MSShapeGroup">
                    <path d="M26.3366471,69 C11.5131176,69 0.924882353,60.375 0.924882353,45.28125 C0.924882353,22.640625 27.3954706,20.484375 22.1013529,0 C32.6895882,8.625 39.0425294,15.09375 39.0425294,30.1875 C44.3366471,26.953125 44.3366471,16.171875 42.219,7.546875 C54.9248824,22.640625 64.5887647,69 26.3366471,69" id="Fill-2899" fill="#FDD835"></path>
                    <path d="M11.4402706,65.2676391 L50.9470941,25.0406391 C49.0105059,18.5190609 46.1463882,12.6368109 43.0334471,8.56904531 C42.7613294,8.22188906 42.4881529,7.86718594 42.2181529,7.54698281 C44.3358,16.1719828 44.3358,26.9532328 39.0416824,30.1876078 C39.0416824,15.0938578 32.6887412,8.62510781 22.1005059,0.0001078125 C27.3946235,20.4844828 0.924035294,22.6407328 0.924035294,45.2813578 C0.924035294,53.7338578 4.31227059,61.0112016 11.4402706,65.2676391" id="Fill-2900" fill="#FFEE58"></path>
                    <path d="M36.9248824,49.3779094 C36.9248824,55.4876437 32.2184118,60.3747844 26.3366471,60.3747844 C20.4538235,60.3747844 15.7484118,55.4520656 15.7484118,49.3779094 C15.7484118,38.3810344 25.2778235,39.4591594 25.2778235,24.7966594 C27.6305294,28.4633625 36.9248824,38.3810344 36.9248824,49.3779094" id="Fill-2901" fill="#D32F2F"></path>
                    <path d="M25.2778235,24.796875 C25.2778235,39.459375 15.7484118,38.38125 15.7484118,49.378125 C15.7484118,52.5650625 17.0518235,55.4264063 19.1334706,57.4349531 L35.2720588,41.0010937 C32.4937059,33.5889844 27.0100588,27.4954219 25.2778235,24.796875" id="Fill-2902" fill="#EF5350"></path>
                </g>
                <g id="Group" transform="translate(111.000000, 69.000000)" sketch:type="MSShapeGroup">
                    <path d="M90,5.625 C90,2.51859375 87.48,0 84.375,0 L5.625,0 C2.51859375,0 0,2.51859375 0,5.625 L0,61.875 C0,64.9814063 2.51859375,67.5 5.625,67.5 L22.5,67.5 L22.5,90 L45,67.5 L84.375,67.5 C87.48,67.5 90,64.9814063 90,61.875 L90,5.625 Z" id="Fill-2852" fill="#F0F0F0"></path>
                    <path d="M5.625,0 C2.51859375,0 0,2.51859375 0,5.625 L0,61.875 C0,63.0942187 0.39796875,64.215 1.0546875,65.1346875 L66.1907812,0 L5.625,0 Z" id="Fill-2853" fill="#FFFFFF"></path>
                    <path d="M37.7627344,19.7520469 C31.8283594,21.5590781 28.7317969,25.5584531 28.9891406,31.2340781 C32.7311719,32.2662656 36.3438281,35.3628281 36.3438281,40.0076719 L36.3438281,41.0398594 C36.3438281,45.9420469 32.8605469,49.6840781 27.5702344,49.6840781 C21.8932031,49.6840781 18.2805469,45.2965781 18.2805469,38.3300156 L18.2805469,37.0404844 C18.2805469,28.2682969 20.6036719,22.2031406 24.7324219,18.2037656 C28.0863281,14.7204844 33.1178906,12.6561094 36.8585156,12.6561094 C39.5683594,12.6561094 40.8592969,14.2043906 40.8592969,16.2687656 C40.8592969,18.0743906 39.5683594,19.2359531 37.7627344,19.7520469" id="Fill-2854" fill="#8E45B7"></path>
                    <path d="M70.0288594,19.7520469 C64.0930781,21.5590781 60.9965156,25.5584531 61.2552656,31.2340781 C64.9958906,32.2662656 68.6085469,35.3628281 68.6085469,40.0076719 L68.6085469,41.0398594 C68.6085469,45.9420469 65.1252656,49.6840781 59.8363594,49.6840781 C54.1593281,49.6840781 50.5466719,45.2965781 50.5466719,38.3300156 L50.5466719,37.0404844 C50.5466719,28.2682969 52.8683906,22.2031406 56.9971406,18.2037656 C60.3510469,14.7204844 65.3840156,12.6561094 69.1260469,12.6561094 C71.8344844,12.6561094 73.1254219,14.2043906 73.1254219,16.2687656 C73.1254219,18.0743906 71.8344844,19.2359531 70.0288594,19.7520469" id="Fill-2855" fill="#8E45B7"></path>
                </g>
            </g>
        </g>
    </g>
</svg>