<?xml version="1.0" encoding="UTF-8" standalone="no"?>
<svg width="318px" height="177px" viewBox="0 0 318 177" version="1.1" xmlns="http://www.w3.org/2000/svg" xmlns:xlink="http://www.w3.org/1999/xlink" xmlns:sketch="http://www.bohemiancoding.com/sketch/ns">
    <!-- Generator: Sketch 3.2.2 (9983) - http://www.bohemiancoding.com/sketch -->
    <title>Group</title>
    <desc>Created with Sketch.</desc>
    <defs></defs>
    <g id="Page-1" stroke="none" stroke-width="1" fill="none" fill-rule="evenodd" sketch:type="MSPage">
        <g id="Homepage-(docenten)-3" sketch:type="MSArtboardGroup" transform="translate(-1201.000000, -639.000000)">
            <g id="Group" sketch:type="MSLayerGroup" transform="translate(1201.000000, 639.000000)">
                <rect id="Rectangle-484" fill="#8E45B7" sketch:type="MSShapeGroup" x="0" y="0" width="318" height="177"></rect>
                <g transform="translate(106.500000, 79.500000) rotate(-270.000000) translate(-106.500000, -79.500000) translate(69.000000, 57.000000)" fill="#FFFFFF" sketch:type="MSShapeGroup">
                    <path d="M37.5384375,34.1143125 C37.5253125,34.1143125 37.5121875,34.1180625 37.4990625,34.1180625 C37.4878125,34.1180625 37.4746875,34.1143125 37.4615625,34.1143125 C34.5215625,34.1143125 32.1365625,36.4974375 32.1365625,39.4411875 C32.1365625,42.3811875 34.5215625,44.7661875 37.4615625,44.7661875 C37.4746875,44.7661875 37.4878125,44.7624375 37.4990625,44.7624375 C37.5121875,44.7624375 37.5253125,44.7661875 37.5384375,44.7661875 C40.4784375,44.7661875 42.8634375,42.3811875 42.8634375,39.4411875 C42.8634375,36.4974375 40.4784375,34.1143125 37.5384375,34.1143125" id="Fill-7011"></path>
                    <path d="M37.5384375,18.9770625 C37.5253125,18.9770625 37.5121875,18.9789375 37.4990625,18.9789375 C37.4878125,18.9789375 37.4746875,18.9770625 37.4615625,18.9770625 C28.7990625,18.9770625 20.9428125,23.7339375 16.7709375,30.8270625 L21.3778125,33.5158125 C24.1696875,28.4101875 30.4509375,24.3020625 37.4615625,24.3020625 C37.4746875,24.3020625 37.4878125,24.3039375 37.4990625,24.3039375 C37.5121875,24.3039375 37.5253125,24.3020625 37.5384375,24.3020625 C44.5490625,24.3020625 50.8303125,28.4101875 53.6221875,33.5158125 L58.2290625,30.8270625 C54.0571875,23.7339375 46.2009375,18.9770625 37.5384375,18.9770625" id="Fill-7012"></path>
                    <path d="M37.5384375,1.640625 C37.5253125,1.640625 37.5121875,1.6425 37.4990625,1.6425 C37.4878125,1.6425 37.4746875,1.640625 37.4615625,1.640625 C23.8490625,1.640625 10.7465625,7.5075 1.4053125,19.5075 L5.6390625,22.75875 C12.8934375,13.081875 24.4865625,6.965625 37.4615625,6.965625 C37.4746875,6.965625 37.4878125,6.9675 37.4990625,6.9675 C37.5121875,6.9675 37.5253125,6.965625 37.5384375,6.965625 C50.4965625,6.965625 62.0971875,13.070625 69.3609375,22.75875 L73.5928125,19.5075 C64.3284375,7.603125 51.2765625,1.640625 37.5384375,1.640625" id="Fill-7013"></path>
                </g>
                <g transform="translate(33.000000, 48.000000)" sketch:type="MSShapeGroup">
                    <path d="M36,57.09375 C36,60.3559687 33.313,63 30,63 L6,63 C2.687,63 0,60.3559687 0,57.09375 L0,5.90625 C0,2.64501562 2.687,0 6,0 L30,0 C33.313,0 36,2.64501562 36,5.90625 L36,57.09375 Z" id="Fill-3262" fill="#FFFFFF"></path>
                    <path d="M34,51.1875 L2,51.1875 L2,11.8125 L34,11.8125 L34,51.1875 Z" id="Fill-3263" fill="#212121"></path>
                    <path d="M12,6.890625 C12,7.43498437 11.552,7.875 11,7.875 C10.448,7.875 10,7.43498437 10,6.890625 C10,6.34725 10.448,5.90625 11,5.90625 C11.552,5.90625 12,6.34725 12,6.890625" id="Fill-3264" fill="#CFD3D4"></path>
                    <path d="M26,6.890625 C26,7.43498437 25.552,7.875 25,7.875 L15,7.875 C14.448,7.875 14,7.43498437 14,6.890625 C14,6.34725 14.448,5.90625 15,5.90625 L25,5.90625 C25.552,5.90625 26,6.34725 26,6.890625" id="Fill-3265" fill="#CFD3D4"></path>
                    <path d="M22,57.09375 C22,59.2692188 20.209,61.03125 18,61.03125 C15.791,61.03125 14,59.2692188 14,57.09375 C14,54.9192656 15.791,53.15625 18,53.15625 C20.209,53.15625 22,54.9192656 22,57.09375" id="Fill-3266" fill="#CFD3D4"></path>
                    <path d="M20,59.0625 L16,59.0625 L16,55.125 L20,55.125 L20,59.0625 Z" id="Fill-3267" fill="#FFFFFF"></path>
                    <path d="M34,16.416225 L34,11.8123031 L2,11.8123031 L2,47.916225 L34,16.416225 Z" id="Fill-3268" fill="#5B5C5F"></path>
                </g>
                <g transform="translate(144.000000, 30.000000)" sketch:type="MSShapeGroup">
                    <path d="M135,92.0578947 C135,95.4389474 132.253594,98.1821053 128.863828,98.1821053 L6.13617188,98.1821053 C2.74640625,98.1821053 0,95.4389474 0,92.0578947 L0,6.31473684 C0,2.93368421 2.74640625,0.190526316 6.13617188,0.190526316 L128.863828,0.190526316 C132.253594,0.190526316 135,2.93368421 135,6.31473684 L135,92.0578947 Z" id="Fill-2114" fill="#212121"></path>
                    <path d="M85.910625,113.875789 L49.0914844,113.875789 L49.0914844,98.1831579 L85.910625,98.1831579 L85.910625,113.875789 Z" id="Fill-2115" fill="#E2E4E5"></path>
                    <path d="M98.1817031,116.938737 C98.1817031,118.629263 96.8063906,119.999789 95.1125625,119.999789 L39.8870156,119.999789 C38.1931875,119.999789 36.817875,118.629263 36.817875,116.938737 C36.817875,115.246105 38.1931875,113.875579 39.8870156,113.875579 L95.1125625,113.875579 C96.8063906,113.875579 98.1817031,115.246105 98.1817031,116.938737" id="Fill-2116" fill="#F0F0F0"></path>
                    <path d="M135,92.0578947 L135,73.6831579 L0,73.6831579 L0,92.0578947 C0,95.4389474 2.74851562,98.1821053 6.13617188,98.1821053 L128.863828,98.1821053 C132.251484,98.1821053 135,95.4389474 135,92.0578947" id="Fill-2117" fill="#FFFFFF"></path>
                    <path d="M67.5,81.9141053 C65.2788281,81.9141053 63.4732031,83.7162105 63.4732031,85.9330526 C63.4732031,88.1477895 65.2788281,89.952 67.5,89.952 C69.7211719,89.952 71.5267969,88.1477895 71.5267969,85.9330526 C71.5267969,83.7162105 69.7211719,81.9141053 67.5,81.9141053 M67.5,94.1625263 C62.9542969,94.1625263 59.2544531,90.4698947 59.2544531,85.9330526 C59.2544531,81.3941053 62.9542969,77.7035789 67.5,77.7035789 C72.0457031,77.7035789 75.7455469,81.3941053 75.7455469,85.9330526 C75.7455469,90.4698947 72.0457031,94.1625263 67.5,94.1625263" id="Fill-2118" fill="#CFD3D4"></path>
                    <path d="M0,6.31578947 L0,73.6842105 L41.6053125,73.6842105 L115.241484,0.191578947 L6.13617188,0.191578947 C2.74851562,0.191578947 0,2.93473684 0,6.31578947" id="Fill-2119" fill="#5B5C5F"></path>
                </g>
            </g>
        </g>
    </g>
</svg>