<?xml version="1.0" encoding="UTF-8" standalone="no"?>
<svg width="318px" height="177px" viewBox="0 0 318 177" version="1.1" xmlns="http://www.w3.org/2000/svg" xmlns:xlink="http://www.w3.org/1999/xlink" xmlns:sketch="http://www.bohemiancoding.com/sketch/ns">
    <!-- Generator: Sketch 3.2.2 (9983) - http://www.bohemiancoding.com/sketch -->
    <title>Rectangle 483 + Group + Group</title>
    <desc>Created with Sketch.</desc>
    <defs></defs>
    <g id="Page-1" stroke="none" stroke-width="1" fill="none" fill-rule="evenodd" sketch:type="MSPage">
        <g id="Homepage-(docenten)-3" sketch:type="MSArtboardGroup" transform="translate(-814.000000, -639.000000)">
            <g id="Rectangle-483-+-Group-+-Group" sketch:type="MSLayerGroup" transform="translate(814.000000, 639.000000)">
                <g sketch:type="MSShapeGroup">
                    <rect id="Rectangle-483" fill="#8BC34A" x="0" y="0" width="318" height="177"></rect>
                    <g id="Group" transform="translate(57.000000, 30.000000)">
                        <path d="M183.75,14.8571429 C183.75,7.599 177.873281,1.71428571 170.625,1.71428571 L39.375,1.71428571 C32.1267188,1.71428571 26.25,7.599 26.25,14.8571429 L26.25,100.285714 L183.75,100.285714 L183.75,14.8571429 Z" id="Fill-7010" fill="#F0F0F0"></path>
                        <path d="M0,100.285714 L0,106.857143 C8.40328125,115.271857 19.8023437,120 31.6870313,120 L178.312969,120 C190.197656,120 201.596719,115.271857 210,106.857143 L210,100.285714 L0,100.285714 Z" id="Fill-7014" fill="#FFFFFF"></path>
                        <path d="M170.625,100.285714 L39.375,100.285714 L39.375,14.8571429 L170.625,14.8571429 L170.625,100.285714 Z" id="Fill-7015" fill="#212121"></path>
                        <path d="M39.375,100.024171 L124.425,14.8584571 L39.375,14.8584571 L39.375,100.024171 Z" id="Fill-7016" fill="#5B5C5F"></path>
                        <path d="M121.40625,106.857143 L88.59375,106.857143 L88.59375,100.285714 L121.40625,100.285714 L121.40625,106.857143 Z" id="Fill-7017" fill="#E2E4E5"></path>
                    </g>
                    <g id="Group" transform="translate(117.000000, 42.000000)">
                        <path d="M67.5,67.5 L22.5,67.5 L22.5,22.5 L67.5,22.5 L67.5,67.5 Z" id="Fill-4881" fill="#64B5F7"></path>
                        <path d="M90,75.9375 C90,77.4914063 88.74,78.75 87.1875,78.75 L16.875,78.75 C13.7685938,78.75 11.25,76.2314062 11.25,73.125 L11.25,2.8125 C11.25,1.26 12.51,0 14.0625,0 L19.6875,0 C21.24,0 22.5,1.26 22.5,2.8125 L22.5,67.5 L87.1875,67.5 C88.74,67.5 90,68.76 90,70.3125 L90,75.9375 Z" id="Fill-4882" fill="#E2E4E5"></path>
                        <path d="M40.6267031,32.4563906 C40.6238906,32.4577969 40.6210781,32.4577969 40.6182656,32.4592031 C40.0332656,29.9785781 37.8156094,28.1251406 35.1563906,28.1251406 C32.4957656,28.1251406 30.2795156,29.9785781 29.6945156,32.4592031 C29.6917031,32.4577969 29.6888906,32.4577969 29.6860781,32.4563906 C27.3784219,31.8798281 25.3126406,33.6474844 25.3126406,35.8595156 C25.3126406,37.8001406 26.8876406,39.3751406 28.8282656,39.3751406 L41.4845156,39.3751406 C43.4251406,39.3751406 45.0001406,37.8001406 45.0001406,35.8595156 C45.0001406,33.6446719 42.9315469,31.8798281 40.6267031,32.4563906" id="Fill-4883" fill="#FFFFFF"></path>
                        <path d="M22.5,67.5 L50.625,67.5 L33.75,42.1875 L22.5,59.0625 L22.5,67.5 Z" id="Fill-4884" fill="#00897B"></path>
                        <path d="M36.5625,46.40625 L33.75,50.625 L30.9375,46.40625 L33.75,42.1875 L36.5625,46.40625 Z" id="Fill-4885" fill="#F0F0F0"></path>
                        <path d="M78.75,16.875 L78.75,87.1875 C78.75,88.734375 77.484375,90 75.9375,90 L70.3125,90 C68.765625,90 67.5,88.734375 67.5,87.1875 L67.5,22.5 L2.8125,22.5 C1.265625,22.5 0,21.234375 0,19.6875 L0,14.0625 C0,12.515625 1.265625,11.25 2.8125,11.25 L73.125,11.25 C76.2328125,11.25 78.75,13.7671875 78.75,16.875" id="Fill-4886" fill="#FFFFFF"></path>
                        <path d="M67.5,56.2664531 L60.7640625,45.4791094 L53.4375,33.7495781 L46.40625,44.9995781 L32.34375,67.5277031 L67.5,67.5277031 L67.5,56.2664531 Z" id="Fill-4887" fill="#26A69A"></path>
                        <path d="M60.7640625,45.4785469 L57.65625,49.2191719 L53.4375,45.0004219 L49.21875,49.2191719 L46.40625,45.0004219 L53.4375,33.7504219 L60.7640625,45.4785469 Z" id="Fill-4888" fill="#F0F0F0"></path>
                    </g>
                </g>
            </g>
        </g>
    </g>
</svg>