<?xml version="1.0" encoding="UTF-8" standalone="no"?>
<svg width="318px" height="177px" viewBox="0 0 318 177" version="1.1" xmlns="http://www.w3.org/2000/svg" xmlns:xlink="http://www.w3.org/1999/xlink" xmlns:sketch="http://www.bohemiancoding.com/sketch/ns">
    <!-- Generator: Sketch 3.2.2 (9983) - http://www.bohemiancoding.com/sketch -->
    <title>Rectangle 481 + Fill 6640 + Fill 6641 + Fill 6642 + Group</title>
    <desc>Created with Sketch.</desc>
    <defs></defs>
    <g id="Page-1" stroke="none" stroke-width="1" fill="none" fill-rule="evenodd" sketch:type="MSPage">
        <g id="Homepage-(docenten)-3" sketch:type="MSArtboardGroup" transform="translate(-34.000000, -879.000000)">
            <g id="Rectangle-481-+-Fill-6640-+-Fill-6641-+-Fill-6642-+-Group" sketch:type="MSLayerGroup" transform="translate(34.000000, 879.000000)">
                <rect id="Rectangle-481" fill="#F6A623" sketch:type="MSShapeGroup" x="0" y="0" width="318" height="177"></rect>
                <g id="Fill-6640-+-Fill-6641-+-Fill-6642" transform="translate(54.000000, 27.000000)" sketch:type="MSShapeGroup">
                    <path d="M192,81 C192,63.345 181.095,48.261 165.666,42.051 C153.438,12.15 133.689,0 109.5,0 C86.763,0 67.056,12.957 57.393,31.911 C42.021,25.365 24.69,36.24 24.048,53.076 C10.05,58.008 0,71.316 0,87 C0,106.881 16.119,123 36,123 L156,123 C156,123 192,116.322 192,81" id="Fill-6640" fill="#F0F0F0"></path>
                    <path d="M109.5,0 C86.763,0 67.056,12.957 57.393,31.911 C54.507,30.684 51.333,30 48,30 C35.055,30 24.537,40.254 24.048,53.076 C10.05,58.008 0,71.316 0,87 C0,105.882 14.541,121.338 33.033,122.85 L144.318,11.562 C134.325,3.588 122.568,0 109.5,0" id="Fill-6641" fill="#FFFFFF"></path>
                </g>
                <g id="Group" transform="translate(117.000000, 45.000000)" sketch:type="MSShapeGroup">
                    <path d="M77.9634,30.6826875 C77.8224,29.2356563 76.5264,28.1247188 74.9754,28.1247188 L8.4549,28.1247188 C6.9024,28.1247188 5.6079,29.2356563 5.4669,30.6826875 L0.0129,86.9326875 C-0.1476,88.5794062 1.2369,89.9997188 2.9994,89.9997188 L80.4309,89.9997188 C82.1934,89.9997188 83.5764,88.5794062 83.4174,86.9326875 L77.9634,30.6826875 Z" id="Fill-4103" fill="#FDD835"></path>
                    <path d="M8.45505,28.125 C6.90255,28.125 5.60805,29.2359375 5.46705,30.6829687 L0.01305,86.9329687 C-0.06345,87.7190625 0.21705,88.5009375 0.78555,89.0845313 C1.05855,89.364375 1.38855,89.58375 1.74855,89.7384375 L67.47105,28.125 L8.45505,28.125 Z" id="Fill-4104" fill="#FFEE58"></path>
                    <path d="M22.6326,35.989875 C23.3136,33.8650312 25.7016,32.6570625 27.9696,33.2955 C30.2361,33.9339375 31.5216,36.1726875 30.8421,38.2989375 C30.1626,40.422375 24.2031,45.0601875 24.2031,45.0601875 C24.2031,45.0601875 21.9516,38.1133125 22.6326,35.989875 M28.5411,31.50675 C25.3671,30.6137813 22.0221,32.3026875 21.0696,35.2769062 C20.1186,38.2525312 23.2686,47.9781562 23.2686,47.9781562 C23.2686,47.9781562 31.6116,41.4869063 32.5641,38.5112813 C33.5166,35.5356563 31.7151,32.3997188 28.5411,31.50675" id="Fill-4105" fill="#5B5C5F"></path>
                    <path d="M27,36.5625 C28.656,36.5625 30,35.3025 30,33.75 L30,16.875 C30,10.6720312 35.3835,5.625 42,5.625 C48.6165,5.625 54,10.6720312 54,16.875 L54,33.75 C54,35.3025 55.344,36.5625 57,36.5625 C58.656,36.5625 60,35.3025 60,33.75 L60,16.875 C60,7.55578125 51.9405,0 42,0 C32.0595,0 24,7.55578125 24,16.875 L24,33.75 C24,35.3025 25.344,36.5625 27,36.5625" id="Fill-4106" fill="#733724"></path>
                    <path d="M30,64.6875 C30,66.24 28.656,67.5 27,67.5 L21,67.5 C19.344,67.5 18,66.24 18,64.6875 L18,47.8125 C18,46.26 19.344,45 21,45 L27,45 C28.656,45 30,46.26 30,47.8125 L30,64.6875 Z" id="Fill-4107" fill="#FFFFFF"></path>
                </g>
            </g>
        </g>
    </g>
</svg>