<?xml version="1.0" encoding="UTF-8" standalone="no"?>
<svg width="318px" height="177px" viewBox="0 0 318 177" version="1.1" xmlns="http://www.w3.org/2000/svg" xmlns:xlink="http://www.w3.org/1999/xlink" xmlns:sketch="http://www.bohemiancoding.com/sketch/ns">
    <!-- Generator: Sketch 3.2.2 (9983) - http://www.bohemiancoding.com/sketch -->
    <title>Rectangle 493 + Group</title>
    <desc>Created with Sketch.</desc>
    <defs></defs>
    <g id="Page-1" stroke="none" stroke-width="1" fill="none" fill-rule="evenodd" sketch:type="MSPage">
        <g id="Homepage-(docenten)-3" sketch:type="MSArtboardGroup" transform="translate(-424.000000, -1119.000000)">
            <g id="Rectangle-493-+-Group" sketch:type="MSLayerGroup" transform="translate(424.000000, 1119.000000)">
                <rect id="Rectangle-493" fill="#03A9F4" sketch:type="MSShapeGroup" x="0" y="0" width="318" height="177"></rect>
                <g id="Group" transform="translate(117.000000, 24.000000)" sketch:type="MSShapeGroup">
                    <path d="M72.5088,6.046875 L11.4908,6.046875 C10.0368,18.6667031 2.0008,19.075875 2.0008,26.73525 L2.0008,116.069766 C2.0008,118.758609 4.1628,120.9375 6.8308,120.9375 L42.0008,120.9375 L77.1708,120.9375 C79.8388,120.9375 82.0008,118.758609 82.0008,116.069766 L82.0008,26.73525 C82.0008,19.0476562 73.9688,18.7332187 72.5088,6.046875" id="Fill-7205" fill="#D32F2F"></path>
                    <path d="M11.4912,6.046875 C10.0372,18.6667031 1.9992,19.075875 1.9992,26.73525 L1.9992,116.069766 C1.9992,118.758609 4.1632,120.9375 6.8292,120.9375 L41.9992,120.9375 L41.9992,6.046875 L11.4912,6.046875 Z" id="Fill-7206" fill="#EF5350"></path>
                    <path d="M76,3.0234375 C76,4.69640625 74.656,6.046875 73,6.046875 L11,6.046875 C9.342,6.046875 8,4.69640625 8,3.0234375 C8,1.3545 9.342,0 11,0 L73,0 C74.656,0 76,1.3545 76,3.0234375" id="Fill-7207" fill="#D1D1D1"></path>
                    <path d="M22,120.9375 C22,120.9375 42.204,99.7613437 42.204,73.3284375 C42.204,44.4949219 16.95,37.2850312 27.05,6.046875 L54,6.046875 C54,6.046875 42,13.2567656 42,30.0771562 C42,56.6189063 58,61.3132969 58,97.3587187 C58,114.348422 52.95,120.9375 52.95,120.9375 L22,120.9375 Z" id="Fill-7208" fill="#FFFFFF"></path>
                    <path d="M42,0 L11,0 C9.342,0 8,1.35248438 8,3.0234375 C8,4.69640625 9.342,6.046875 11,6.046875 L42,6.046875 L42,0 Z" id="Fill-7209" fill="#E0E0E0"></path>
                    <path d="M42,120.985673 C42,120.985673 6,120.878845 6,120.985673 C6,123.210923 7.792,128.999798 10,128.999798 L74,128.999798 C76.208,128.999798 78,123.210923 78,120.985673 C78,120.878845 42,120.985673 42,120.985673" id="Fill-7210" fill="#D1D1D1"></path>
                    <path d="M6,120.985673 C6,123.210923 7.792,128.999798 10,128.999798 L42,128.999798 L42,120.985673 C42,120.985673 6,120.878845 6,120.985673" id="Fill-7211" fill="#E0E0E0"></path>
                </g>
            </g>
        </g>
    </g>
</svg>