<?xml version="1.0" encoding="UTF-8" standalone="no"?>
<svg width="318px" height="177px" viewBox="0 0 318 177" version="1.1" xmlns="http://www.w3.org/2000/svg" xmlns:xlink="http://www.w3.org/1999/xlink" xmlns:sketch="http://www.bohemiancoding.com/sketch/ns">
    <!-- Generator: Sketch 3.2.2 (9983) - http://www.bohemiancoding.com/sketch -->
    <title>Rectangle 482 + Group</title>
    <desc>Created with Sketch.</desc>
    <defs></defs>
    <g id="Page-1" stroke="none" stroke-width="1" fill="none" fill-rule="evenodd" sketch:type="MSPage">
        <g id="Homepage-(docenten)-3" sketch:type="MSArtboardGroup" transform="translate(-424.000000, -639.000000)">
            <g id="Rectangle-482-+-Group" sketch:type="MSLayerGroup" transform="translate(424.000000, 621.000000)">
                <rect id="Rectangle-482" fill="#03A9F4" sketch:type="MSShapeGroup" x="0" y="18" width="318" height="177"></rect>
                <g id="Group" transform="translate(165.000000, 102.000000) rotate(-31.000000) translate(-165.000000, -102.000000) translate(87.000000, 33.000000)" sketch:type="MSShapeGroup">
                    <path d="M136.5,70.2105263 C136.5,107.649684 105.9435,138 68.25,138 C30.5565,138 0,107.649684 0,70.2105263 C0,32.7713684 30.5565,2.42105263 68.25,2.42105263 C105.9435,2.42105263 136.5,32.7713684 136.5,70.2105263" id="Fill-3478" fill="#D32F2F"></path>
                    <path d="M117,70.2105263 C117,96.9534737 95.174625,118.631579 68.25,118.631579 C41.325375,118.631579 19.5,96.9534737 19.5,70.2105263 C19.5,43.47 41.325375,21.7894737 68.25,21.7894737 C95.174625,21.7894737 117,43.47 117,70.2105263" id="Fill-3479" fill="#F0F0F0"></path>
                    <path d="M97.5,70.2105263 C97.5,86.2548421 84.4033125,99.2631579 68.25,99.2631579 C52.0966875,99.2631579 39,86.2548421 39,70.2105263 C39,54.1662105 52.0966875,41.1578947 68.25,41.1578947 C84.4033125,41.1578947 97.5,54.1662105 97.5,70.2105263" id="Fill-3480" fill="#D32F2F"></path>
                    <path d="M78,70.2105263 C78,75.5586316 73.6344375,79.8947368 68.25,79.8947368 C62.8655625,79.8947368 58.5,75.5586316 58.5,70.2105263 C58.5,64.8624211 62.8655625,60.5263158 68.25,60.5263158 C73.6344375,60.5263158 78,64.8624211 78,70.2105263" id="Fill-3481" fill="#E2E4E5"></path>
                    <path d="M116.683369,22.4668842 L102.887119,36.1724632 C94.0877438,27.2847789 81.8271188,21.7889895 68.2502438,21.7889895 C41.3158688,21.7889895 19.5002438,43.4574105 19.5002438,70.2100421 C19.5002438,83.6710947 25.0333688,95.8489895 33.9789938,104.6132 L20.1827438,118.316358 C7.72711875,106.044042 0.000243750003,89.0216211 0.000243750003,70.2100421 C0.000243750003,32.7805684 30.5664938,2.42056842 68.2502438,2.42056842 C87.1896188,2.42056842 104.325244,10.0953053 116.683369,22.4668842" id="Fill-3482" fill="#EF5350"></path>
                    <path d="M102.886875,36.1714947 L89.115,49.8480211 C83.825625,44.4757053 76.415625,41.1588632 68.25,41.1588632 C52.089375,41.1588632 39,54.1599158 39,70.2114947 C39,78.3220211 42.339375,85.6820211 47.750625,90.9357053 L33.97875,104.614653 C25.033125,95.8480211 19.5,83.6725474 19.5,70.2114947 C19.5,43.4588632 41.315625,21.7904421 68.25,21.7904421 C81.826875,21.7904421 94.0875,27.2862316 102.886875,36.1714947" id="Fill-3483" fill="#FFFFFF"></path>
                    <path d="M89.1152437,49.8489895 L75.3189937,63.5521474 C73.5639937,61.6879368 71.0289937,60.5258316 68.2502437,60.5258316 C62.8633687,60.5258316 58.5002437,64.8595158 58.5002437,70.2100421 C58.5002437,72.9700421 59.6702437,75.4637263 61.5471187,77.2335158 L47.7508687,90.9342526 C42.3396188,85.6805684 39.0002437,78.3205684 39.0002437,70.2100421 C39.0002437,54.1584632 52.0896188,41.1574105 68.2502437,41.1574105 C76.4158687,41.1574105 83.8258687,44.4742526 89.1152437,49.8489895" id="Fill-3484" fill="#EF5350"></path>
                    <path d="M75.3185063,63.5526316 L70.1510063,68.6852632 C69.6878812,68.1284211 69.0053813,67.7894737 68.2497563,67.7894737 C66.9091313,67.7894737 65.8122563,68.8789474 65.8122563,70.2105263 C65.8122563,70.9610526 66.1535063,71.6389474 66.7141313,72.0989474 L61.5466313,77.2315789 C59.6697563,75.4642105 58.4997563,72.9705263 58.4997563,70.2105263 C58.4997563,64.86 62.8628813,60.5263158 68.2497563,60.5263158 C71.0285063,60.5263158 73.5635063,61.6884211 75.3185063,63.5526316" id="Fill-3485" fill="#FFFFFF"></path>
                    <path d="M68.25,70.2105263 C71.14575,72.128 76.25475,74.5127368 82.875,76.4374737 L82.875,63.9811579 C76.1011875,65.9543158 70.9970625,68.3923158 68.25,70.2105263" id="Fill-3486" fill="#212121"></path>
                    <path d="M82.875,63.9816421 L82.875,76.4379579 C86.516625,77.4959579 90.6189375,78.4062737 95.0625,79.0284842 L95.0625,61.3911158 C90.5945625,62.0157474 86.4898125,62.9260632 82.875,63.9816421" id="Fill-3487" fill="#FDD835"></path>
                    <path d="M82.875,63.9816421 C76.1011875,65.9548 70.9970625,68.3903789 68.25,70.2110105 L82.875,70.2110105 L82.875,63.9816421 Z" id="Fill-3488" fill="#787878"></path>
                    <path d="M156,43.5789474 C133.258125,43.5789474 123.03525,56.0546316 118.72575,61.2768421 C115.21575,60.8289474 110.884312,60.5263158 107.25,60.5263158 C102.952688,60.5263158 98.8771875,60.8555789 95.0625,61.3906316 L95.0625,70.2105263 L95.0625,79.0304211 C98.8966875,79.5654737 102.977063,79.8947368 107.25,79.8947368 C111.369375,79.8947368 115.184063,79.6017895 118.723313,79.1417895 C123.030375,84.3615789 133.25325,96.8421053 156,96.8421053 C156,87.9641053 154.437563,79.4347368 145.355437,70.2105263 C154.437563,60.9863158 156,52.4569474 156,43.5789474" id="Fill-3489" fill="#212121"></path>
                    <path d="M145.35495,70.2105263 C154.439513,60.9863158 155.999513,52.4569474 155.999513,43.5789474 C133.2552,43.5789474 123.029888,56.0594737 118.722825,61.2792632 C115.183575,60.8192632 111.368888,60.5263158 107.249513,60.5263158 C102.9522,60.5263158 98.8791375,60.8555789 95.0620125,61.3906316 L95.0620125,70.2105263 L145.35495,70.2105263 Z" id="Fill-3490" fill="#787878"></path>
                    <path d="M95.0625,70.2105263 L95.0625,61.3906316 C90.5945625,62.0152632 86.4898125,62.928 82.875,63.9811579 L82.875,70.2105263 L95.0625,70.2105263 Z" id="Fill-3491" fill="#FFEE58"></path>
                </g>
            </g>
        </g>
    </g>
</svg>