<?xml version="1.0" encoding="UTF-8" standalone="no"?>
<svg width="318px" height="177px" viewBox="0 0 318 177" version="1.1" xmlns="http://www.w3.org/2000/svg" xmlns:xlink="http://www.w3.org/1999/xlink" xmlns:sketch="http://www.bohemiancoding.com/sketch/ns">
    <!-- Generator: Sketch 3.2.2 (9983) - http://www.bohemiancoding.com/sketch -->
    <title>Group</title>
    <desc>Created with Sketch.</desc>
    <defs></defs>
    <g id="Page-1" stroke="none" stroke-width="1" fill="none" fill-rule="evenodd" sketch:type="MSPage">
        <g id="Homepage-(docenten)-3" sketch:type="MSArtboardGroup" transform="translate(-424.000000, -879.000000)">
            <g id="Group" sketch:type="MSLayerGroup" transform="translate(424.000000, 879.000000)">
                <rect id="Rectangle-482" fill="#03A9F4" sketch:type="MSShapeGroup" x="0" y="0" width="318" height="177"></rect>
                <g transform="translate(51.000000, 45.000000)" sketch:type="MSShapeGroup">
                    <path d="M51,81.5625 C51,86.2228125 47.1934167,90 42.5,90 L8.5,90 C3.80658333,90 0,86.2228125 0,81.5625 L0,8.4375 C0,3.77859375 3.80658333,0 8.5,0 L42.5,0 C47.1934167,0 51,3.77859375 51,8.4375 L51,81.5625 Z" id="Fill-4972" fill="#FFFFFF"></path>
                    <path d="M48.1666667,73.125 L2.83333333,73.125 L2.83333333,16.875 L48.1666667,16.875 L48.1666667,73.125 Z" id="Fill-4973" fill="#212121"></path>
                    <path d="M47.9806583,16.875 L2.83290833,16.875 L2.83290833,61.6907813 L47.9806583,16.875 Z" id="Fill-4974" fill="#5B5C5F"></path>
                    <path d="M17,9.84375 C17,10.6214062 16.3653333,11.25 15.5833333,11.25 C14.8013333,11.25 14.1666667,10.6214062 14.1666667,9.84375 C14.1666667,9.0675 14.8013333,8.4375 15.5833333,8.4375 C16.3653333,8.4375 17,9.0675 17,9.84375" id="Fill-4975" fill="#979797"></path>
                    <path d="M36.8333333,9.84375 C36.8333333,10.6214062 36.1986667,11.25 35.4166667,11.25 L21.25,11.25 C20.468,11.25 19.8333333,10.6214062 19.8333333,9.84375 C19.8333333,9.0675 20.468,8.4375 21.25,8.4375 L35.4166667,8.4375 C36.1986667,8.4375 36.8333333,9.0675 36.8333333,9.84375" id="Fill-4976" fill="#979797"></path>
                    <path d="M31.1666667,81.5625 C31.1666667,84.6703125 28.6294167,87.1875 25.5,87.1875 C22.3705833,87.1875 19.8333333,84.6703125 19.8333333,81.5625 C19.8333333,78.4560938 22.3705833,75.9375 25.5,75.9375 C28.6294167,75.9375 31.1666667,78.4560938 31.1666667,81.5625" id="Fill-4977" fill="#CFD3D4"></path>
                    <path d="M28.3333333,84.375 L22.6666667,84.375 L22.6666667,78.75 L28.3333333,78.75 L28.3333333,84.375 Z" id="Fill-4978" fill="#FFFFFF"></path>
                    <path d="M17,36.5625 L11.3333333,36.5625 L11.3333333,30.9375 L17,30.9375 L17,36.5625 Z M8.5,39.375 L19.8333333,39.375 L19.8333333,28.125 L8.5,28.125 L8.5,39.375 Z" id="Fill-4979" fill="#E2E4E5"></path>
                    <path d="M39.6666667,36.5625 L34,36.5625 L34,30.9375 L39.6666667,30.9375 L39.6666667,36.5625 Z M31.1666667,39.375 L42.5,39.375 L42.5,28.125 L31.1666667,28.125 L31.1666667,39.375 Z" id="Fill-4980" fill="#E2E4E5"></path>
                    <path d="M39.6666667,59.0625 L34,59.0625 L34,53.4375 L39.6666667,53.4375 L39.6666667,59.0625 Z M31.1666667,61.875 L42.5,61.875 L42.5,50.625 L31.1666667,50.625 L31.1666667,61.875 Z" id="Fill-4981" fill="#E2E4E5"></path>
                    <path d="M26.9166667,39.375 L24.0833333,39.375 L24.0833333,28.125 L26.9166667,28.125 L26.9166667,39.375 Z" id="Fill-4982" fill="#E2E4E5"></path>
                    <path d="M21.25,56.25 L18.4166667,56.25 L18.4166667,49.21875 L21.25,49.21875 L21.25,56.25 Z" id="Fill-4983" fill="#E2E4E5"></path>
                    <path d="M11.3333333,47.8125 L11.3333333,42.1875 L8.5,42.1875 L8.5,47.8125 L8.5,49.21875 L8.5,50.625 L15.5833333,50.625 L15.5833333,47.8125 L11.3333333,47.8125 Z" id="Fill-4984" fill="#E2E4E5"></path>
                    <path d="M36.8333333,46.40625 L31.1666667,46.40625 L31.1666667,43.59375 L36.8333333,43.59375 L36.8333333,46.40625 Z" id="Fill-4985" fill="#E2E4E5"></path>
                    <path d="M19.8333333,42.1875 L19.8333333,45 L24.0833333,45 L24.0833333,50.625 L26.9166667,50.625 L26.9166667,42.1875 L19.8333333,42.1875 Z" id="Fill-4986" fill="#E2E4E5"></path>
                    <path d="M16.9985833,45 L14.16525,45 L14.16525,42.1875 L16.9985833,42.1875 L16.9985833,45 Z" id="Fill-4987" fill="#E2E4E5"></path>
                    <path d="M42.5,46.40625 L39.6666667,46.40625 L39.6666667,43.59375 L42.5,43.59375 L42.5,46.40625 Z" id="Fill-4988" fill="#E2E4E5"></path>
                    <path d="M24.0833333,54.84375 L24.0833333,59.0625 L15.5833333,59.0625 L15.5833333,61.875 L26.9166667,61.875 L26.9166667,54.84375 L24.0833333,54.84375 Z" id="Fill-4989" fill="#E2E4E5"></path>
                    <path d="M14.1666667,56.25 L8.5,56.25 L8.5,53.4375 L14.1666667,53.4375 L14.1666667,56.25 Z" id="Fill-4990" fill="#E2E4E5"></path>
                    <path d="M11.3333333,61.875 L8.5,61.875 L8.5,59.0625 L11.3333333,59.0625 L11.3333333,61.875 Z" id="Fill-4991" fill="#E2E4E5"></path>
                </g>
                <g transform="translate(210.000000, 60.000000)" sketch:type="MSShapeGroup">
                    <path d="M63.1384615,4.42105263 C63.1384615,1.97952632 61.1545846,0 58.7076923,0 L14.4,0 C11.9531077,0 9.96923077,1.97952632 9.96923077,4.42105263 L9.96923077,35.3684211 L63.1384615,35.3684211 L63.1384615,4.42105263 Z" id="Fill-4154" fill="#212121"></path>
                    <path d="M9.96923077,4.42105263 L9.96923077,35.3684211 L22.2236308,35.3684211 L57.6697846,0 L14.4,0 C11.9531077,0 9.96923077,1.97952632 9.96923077,4.42105263" id="Fill-4155" fill="#5B5C5F"></path>
                    <path d="M68.8673354,60.6005842 C68.0365662,61.4295316 66.9089354,61.8948474 65.7336738,61.8948474 L7.37379692,61.8948474 C6.19853538,61.8948474 5.07201231,61.4295316 4.24013538,60.6005842 L1.10758154,57.4737947 L71.9998892,57.4737947 L68.8673354,60.6005842 Z" id="Fill-4156" fill="#FFFFFF"></path>
                    <path d="M63.1384615,35.3684211 L9.96923077,35.3684211 L1.10769231,57.4736842 L72,57.4736842 L63.1384615,35.3684211 Z" id="Fill-4157" fill="#F0F0F0"></path>
                    <path d="M43.6954708,50.7255 C43.4229785,50.1817105 42.7018708,49.7362895 42.09264,49.7362895 L31.0157169,49.7362895 C30.4064862,49.7362895 29.6853785,50.1817105 29.4117785,50.7255 L28.1877785,53.1692368 C27.9152862,53.7130263 28.1911015,54.1573421 28.8003323,54.1573421 L44.3080246,54.1573421 C44.9172554,54.1573421 45.1930708,53.7130263 44.9194708,53.1692368 L43.6954708,50.7255 Z" id="Fill-4158" fill="#CFD3D4"></path>
                    <path d="M58.7076923,45.3157895 C58.7076923,45.9247895 58.2092308,46.4210526 57.6,46.4210526 L16.6153846,46.4210526 C16.0061538,46.4210526 15.5076923,45.9247895 15.5076923,45.3157895 C15.5076923,44.709 16.0061538,44.2105263 16.6153846,44.2105263 L57.6,44.2105263 C58.2092308,44.2105263 58.7076923,44.709 58.7076923,45.3157895" id="Fill-4159" fill="#CFD3D4"></path>
                    <path d="M56.7443077,40.8947368 C56.7443077,41.5037368 56.2458462,42 55.6366154,42 L18.5787692,42 C17.9695385,42 17.4710769,41.5037368 17.4710769,40.8947368 C17.4710769,40.2879474 17.9695385,39.7894737 18.5787692,39.7894737 L55.6366154,39.7894737 C56.2458462,39.7894737 56.7443077,40.2879474 56.7443077,40.8947368" id="Fill-4160" fill="#CFD3D4"></path>
                    <path d="M46.5230769,13.2631579 L28.1065846,13.2631579 L26.4948923,9.51189474 C26.3198769,9.10626316 25.92,8.84210526 25.4769231,8.84210526 L22.1538462,8.84210526 C21.5424,8.84210526 21.0461538,9.33726316 21.0461538,9.94736842 C21.0461538,10.5574737 21.5424,11.0526316 22.1538462,11.0526316 L24.0169846,11.0526316 C24.4600615,11.0526316 24.8599385,11.3167895 25.0349538,11.7224211 L31.1051077,25.8565263 C31.2801231,26.2632632 31.68,26.5263158 32.1230769,26.5263158 L40.9846154,26.5263158 C41.5960615,26.5263158 42.0923077,26.0311579 42.0923077,25.4210526 C42.0923077,24.8109474 41.5960615,24.3157895 40.9846154,24.3157895 L33.5830154,24.3157895 C33.1399385,24.3157895 32.7400615,24.0527368 32.5650462,23.646 L31.9037538,22.1052632 L42.0923077,22.1052632 C42.7015385,22.1052632 43.4226462,21.6609474 43.6951385,21.1171579 L47.1356308,14.2523684 C47.4081231,13.7074737 47.1323077,13.2631579 46.5230769,13.2631579" id="Fill-4161" fill="#FFFFFF"></path>
                    <path d="M39.3230769,27.6315789 C38.4059077,27.6315789 37.6615385,28.3743158 37.6615385,29.2894737 C37.6615385,30.2057368 38.4059077,30.9473684 39.3230769,30.9473684 C40.2402462,30.9473684 40.9846154,30.2057368 40.9846154,29.2894737 C40.9846154,28.3743158 40.2402462,27.6315789 39.3230769,27.6315789" id="Fill-4162" fill="#FFFFFF"></path>
                    <path d="M33.0923077,27.6315789 C32.1751385,27.6315789 31.4307692,28.3743158 31.4307692,29.2894737 C31.4307692,30.2057368 32.1751385,30.9473684 33.0923077,30.9473684 C34.0094769,30.9473684 34.7538462,30.2057368 34.7538462,29.2894737 C34.7538462,28.3743158 34.0094769,27.6315789 33.0923077,27.6315789" id="Fill-4163" fill="#FFFFFF"></path>
                    <path d="M22.2230769,35.3684211 L9.96867692,35.3684211 L1.80055385,55.7461579 L22.2230769,35.3684211 Z" id="Fill-4164" fill="#FFFFFF"></path>
                </g>
                <g transform="translate(90.000000, 21.000000)" sketch:type="MSShapeGroup">
                    <path d="M120.75,0 C130.280625,0 138,7.719375 138,17.25 L138,120.75 C138,130.280625 130.280625,138 120.75,138 L17.25,138 C7.719375,138 0,130.280625 0,120.75 L0,17.25 C0,7.719375 7.719375,0 17.25,0 L120.75,0 Z" id="Fill-6247" fill="#FFFFFF"></path>
                    <path d="M120.75,0 L17.25,0 C7.7236875,0 0,7.7236875 0,17.25 L0,25.875 L138,25.875 L138,17.25 C138,7.7236875 130.276313,0 120.75,0" id="Fill-6248" fill="#212121"></path>
                    <path d="M23.71875,12.9375 C23.71875,15.318 21.78675,17.25 19.40625,17.25 C17.02575,17.25 15.09375,15.318 15.09375,12.9375 C15.09375,10.557 17.02575,8.625 19.40625,8.625 C21.78675,8.625 23.71875,10.557 23.71875,12.9375" id="Fill-6249" fill="#EF5350"></path>
                    <path d="M40.96875,12.9375 C40.96875,15.318 39.03675,17.25 36.65625,17.25 C34.27575,17.25 32.34375,15.318 32.34375,12.9375 C32.34375,10.557 34.27575,8.625 36.65625,8.625 C39.03675,8.625 40.96875,10.557 40.96875,12.9375" id="Fill-6250" fill="#FBC02D"></path>
                    <path d="M58.21875,12.9375 C58.21875,15.318 56.28675,17.25 53.90625,17.25 C51.52575,17.25 49.59375,15.318 49.59375,12.9375 C49.59375,10.557 51.52575,8.625 53.90625,8.625 C56.28675,8.625 58.21875,10.557 58.21875,12.9375" id="Fill-6251" fill="#26A69A"></path>
                    <path d="M116.4375,69 L19.40625,69 L19.40625,38.8125 L116.4375,38.8125 L116.4375,69 Z" id="Fill-6252" fill="#E2E4E5"></path>
                    <path d="M116.4375,92.71875 L56.0625,92.71875 L56.0625,79.78125 L116.4375,79.78125 L116.4375,92.71875 Z" id="Fill-6253" fill="#E2E4E5"></path>
                    <path d="M116.4375,118.59375 L56.0625,118.59375 L56.0625,101.34375 L116.4375,101.34375 L116.4375,118.59375 Z" id="Fill-6254" fill="#E2E4E5"></path>
                    <path d="M45.28125,120.75 L19.40625,120.75 L19.40625,79.78125 L45.28125,79.78125 L45.28125,120.75 Z" id="Fill-6255" fill="#E2E4E5"></path>
                </g>
                <g transform="translate(109.500000, 91.500000) rotate(-45.000000) translate(-109.500000, -91.500000) translate(78.000000, 60.000000)" sketch:type="MSShapeGroup">
                    <path d="M63,31.7915446 L58.9276406,37.1261908 L60.6237188,43.5899908 L54.7814531,46.9774523 L53.8315312,53.5856677 L47.1190781,54.5209754 L43.6796719,60.27336 L37.1158594,58.6033754 L31.696875,62.6121138 L26.2778906,58.6033754 L19.7130937,60.2723908 L16.2736875,54.5200062 L9.56123437,53.5846985 L8.61229687,46.9755138 L2.76904688,43.5890215 L4.46610938,37.1261908 L0.39375,31.7915446 L4.46610938,26.45496 L2.77003125,19.9921292 L8.61229687,16.6056369 L9.56320313,9.99645231 L16.2746719,9.06114462 L19.7140781,3.30876 L26.2778906,4.97874462 L31.696875,0.969036923 L37.1158594,4.97874462 L43.6806562,3.30876 L47.1200625,9.06114462 L53.8325156,9.99742154 L54.7814531,16.6066062 L60.6237188,19.9930985 L58.9276406,26.45496 L63,31.7915446 Z" id="Fill-3746" fill="#D32F2F"></path>
                    <path d="M53.8320234,9.99713077 L47.1195703,9.06182308 L43.6801641,3.30846923 L37.1163516,4.97845385 L31.6973672,0.969715385 L26.2773984,4.97845385 L19.7145703,3.30846923 L16.2751641,9.06182308 L9.56271094,9.99713077 L8.61180469,16.6053462 L2.76953906,19.9918385 L4.46561719,26.4546692 L0.393257812,31.7912538 L4.46561719,37.1268692 L2.76953906,43.5897 L8.61180469,46.9752231 L9.56172656,53.5844077 L10.0312734,53.6493462 L53.8979766,10.4584846 L53.8320234,9.99713077 Z" id="Fill-3747" fill="#EF5350"></path>
                    <path d="M11.3943375,27.5436 C11.3943375,26.7876 12.0007125,26.1905538 12.768525,26.1905538 L13.0539937,26.1905538 C13.713525,26.1905538 14.1062906,26.5074923 14.4813375,26.9814462 L19.7802281,33.8319692 L19.7802281,27.4902923 C19.7802281,26.7527077 20.3866031,26.1556615 21.1357125,26.1556615 C21.8848219,26.1556615 22.4911969,26.7527077 22.4911969,27.4902923 L22.4911969,37.2746769 C22.4911969,38.0297077 21.8848219,38.6277231 21.1170094,38.6277231 L21.0284156,38.6277231 C20.3679,38.6277231 19.9751344,38.3107846 19.6010719,37.8368308 L14.1062906,30.7401231 L14.1062906,37.3270154 C14.1062906,38.0655692 13.4999156,38.6626154 12.7498219,38.6626154 C12.0007125,38.6626154 11.3943375,38.0655692 11.3943375,37.3270154 L11.3943375,27.5436 Z" id="Fill-3748" fill="#FFFFFF"></path>
                    <path d="M25.314975,37.2042138 L25.314975,27.6127062 C25.314975,26.8576754 25.92135,26.2606292 26.6891625,26.2606292 L33.6112875,26.2606292 C34.2885375,26.2606292 34.8417563,26.8053369 34.8417563,27.4721677 C34.8417563,28.1399677 34.2885375,28.6672292 33.6112875,28.6672292 L28.0446469,28.6672292 L28.0446469,31.16106 L32.8080375,31.16106 C33.4862719,31.16106 34.0394906,31.7067369 34.0394906,32.3745369 C34.0394906,33.0413677 33.4862719,33.5686292 32.8080375,33.5686292 L28.0446469,33.5686292 L28.0446469,36.15066 L33.7008656,36.15066 C34.3781156,36.15066 34.9313344,36.6953677 34.9313344,37.3621985 C34.9313344,38.0299985 34.3781156,38.55726 33.7008656,38.55726 L26.6891625,38.55726 C25.92135,38.55726 25.314975,37.9592446 25.314975,37.2042138" id="Fill-3749" fill="#FFFFFF"></path>
                    <path d="M36.3093609,27.9822738 C36.2552203,27.8242892 36.2030484,27.6314123 36.2030484,27.4724585 C36.2030484,26.7174277 36.8448609,26.1552738 37.6116891,26.1552738 C38.2544859,26.1552738 38.7712828,26.5594431 38.9504391,27.1215969 L41.4290953,34.6573662 L43.9274391,27.1923508 C44.1410484,26.5594431 44.6233922,26.1203815 45.3183609,26.1203815 L45.5329547,26.1203815 C46.2289078,26.1203815 46.7102672,26.5419969 46.9248609,27.1923508 L49.4222203,34.6573662 L51.9018609,27.1215969 C52.0800328,26.5943354 52.5436734,26.1552738 53.2219078,26.1552738 C53.9710172,26.1552738 54.5783766,26.7174277 54.5783766,27.4559815 C54.5783766,27.6129969 54.5242359,27.8242892 54.4710797,27.9822738 L50.9735953,37.6435662 C50.7245484,38.3297815 50.2067672,38.7494585 49.5472359,38.7494585 L49.2617672,38.7494585 C48.6012516,38.7494585 48.1011891,38.3462585 47.8521422,37.6435662 L45.3902203,30.5991969 L42.9282984,37.6435662 C42.6782672,38.3462585 42.1791891,38.7494585 41.5186734,38.7494585 L41.2332047,38.7494585 C40.5736734,38.7494585 40.0558922,38.3297815 39.8058609,37.6435662 L36.3093609,27.9822738 Z" id="Fill-3750" fill="#FFFFFF"></path>
                </g>
                <g transform="translate(183.000000, 27.000000)" sketch:type="MSShapeGroup">
                    <path d="M11.8597985,54.2508508 C11.8597985,56.3909123 10.1239062,58.1277738 7.98287538,58.1277738 C5.84184462,58.1277738 4.10595231,56.3909123 4.10595231,54.2508508 C4.10595231,52.10982 5.84184462,50.3739277 7.98287538,50.3739277 C10.1239062,50.3739277 11.8597985,52.10982 11.8597985,54.2508508 L11.8597985,54.2508508 Z M0.000290769231,38.7693277 L0.000290769231,62.0308662 L23.2618292,62.0308662 L62.03106,23.2616354 L39.7387523,9.69230767e-05 L0.000290769231,38.7693277 Z" id="Fill-3740" fill="#D32F2F"></path>
                    <path d="M39.7384615,0 L0,38.7692308 L0,62.0307692 L5.14370769,56.8734923 C4.50498462,56.1824308 4.10566154,55.2665077 4.10566154,54.2507538 C4.10566154,52.1097231 5.84155385,50.3738308 7.98258462,50.3738308 C8.99833846,50.3738308 9.91426154,50.7731538 10.6062923,51.4118769 L50.6413385,11.3768308 L39.7384615,0 Z" id="Fill-3741" fill="#EF5350"></path>
                    <path d="M22.9918015,42.3735092 C21.5205092,40.9022169 19.9416323,41.25114 17.7821862,42.5169554 C15.95034,43.6024938 15.4075708,43.78374 14.8531708,43.22934 L14.82894,43.2051092 C14.4189554,42.7951246 14.4674169,42.09534 15.1778631,41.3839246 C15.7574631,40.8062631 16.5406015,40.43214 17.5175862,40.1782015 C17.7463246,40.1181092 17.9401708,40.0211862 18.1204477,39.8409092 C18.6031246,39.3582323 18.6147554,38.5983554 18.1320785,38.1166477 C17.7705554,37.7551246 17.3130785,37.7076323 16.9874169,37.7909862 C15.7448631,38.0681862 14.5876015,38.6962477 13.5621554,39.7197554 C11.8378938,41.4449862 11.6217554,43.6868169 13.15314,45.2182015 L13.1773708,45.2424323 C14.8531708,46.9182323 16.4204169,46.29114 18.5536938,45.0262938 C20.3273862,43.9766169 20.8575554,43.9281554 21.3276323,44.3982323 L21.3518631,44.4224631 C21.8461708,44.91774 21.6891554,45.6776169 20.9302477,46.4365246 C20.1093092,47.2564938 19.1216631,47.6655092 18.0118938,47.8351246 C17.8073862,47.8709862 17.5534477,47.9553092 17.3121092,48.1976169 C16.8304015,48.6783554 16.8178015,49.4392015 17.2995092,49.9218785 C17.5893092,50.2107092 18.0002631,50.3299246 18.3491862,50.2708015 C19.9648938,50.0052323 21.4245554,49.2211246 22.5333554,48.1123246 C24.3535708,46.29114 24.6918323,44.0725708 23.0160323,42.3967708 L22.9918015,42.3735092 Z" id="Fill-3742" fill="#FFFFFF"></path>
                    <path d="M25.8279646,37.5108785 L24.2122569,33.5564169 L28.1667185,35.1730938 L25.8279646,37.5108785 Z M33.4364262,34.5808938 L23.8507338,30.8794015 C23.1868108,30.6254631 22.5480877,30.7107554 22.0421492,31.2166938 L21.9335954,31.3262169 C21.4266877,31.8321554 21.3307338,32.4834785 21.5837031,33.1464323 L25.2851954,42.7321246 C25.3578877,42.9250015 25.4422108,43.1052785 25.5749954,43.2380631 C26.0567031,43.72074 26.8175492,43.73334 27.2992569,43.2506631 C27.6850108,42.8649092 27.7819338,42.3337708 27.5764569,41.8162015 L26.7807185,39.8380015 L30.4948108,36.1239092 L32.3877185,36.8847554 C32.9421185,37.1008938 33.4839185,37.0650323 33.9191031,36.6308169 C34.4124415,36.1365092 34.40178,35.3514323 33.9065031,34.8580938 C33.7863185,34.7379092 33.6293031,34.6535862 33.4364262,34.5808938 L33.4364262,34.5808938 Z" id="Fill-3743" fill="#FFFFFF"></path>
                    <path d="M39.67362,27.3546969 L36.2367277,30.7915892 L30.3408969,24.8947892 C29.8213892,24.37722 29.0023892,24.37722 28.4838508,24.8947892 C27.9653123,25.4133277 27.9643431,26.2342662 28.4838508,26.7518354 L35.1395585,33.4085123 C35.6580969,33.9260815 36.4790354,33.9260815 36.9966046,33.4085123 L41.36202,29.0430969 C41.8320969,28.57302 41.8320969,27.8247738 41.36202,27.3546969 C40.8919431,26.88462 40.1436969,26.88462 39.67362,27.3546969" id="Fill-3744" fill="#FFFFFF"></path>
                    <path d="M49.0928954,19.6718954 C48.6344492,19.2134492 47.8871723,19.2134492 47.4287262,19.6718954 L43.6070492,23.4935723 L41.8343262,21.7218185 L45.0541108,18.5020338 C45.5125569,18.0445569 45.5241877,17.3089108 45.0657415,16.8504646 C44.6082646,16.3920185 43.8600185,16.3929877 43.4015723,16.8504646 L40.1827569,20.06928 L38.4701262,18.3576185 L42.2317108,14.5960338 C42.6901569,14.1375877 42.7027569,13.4019415 42.2443108,12.9434954 C41.7858646,12.4850492 41.0385877,12.4850492 40.5801415,12.9434954 L35.9026338,17.6219723 C35.3831262,18.1405108 35.3831262,18.9595108 35.9026338,19.4790185 L42.4856492,26.0620338 C43.0041877,26.5805723 43.8241569,26.5805723 44.3426954,26.0620338 L49.0812646,21.3234646 C49.5397108,20.8659877 49.5513415,20.1303415 49.0928954,19.6718954" id="Fill-3745" fill="#FFFFFF"></path>
                </g>
            </g>
        </g>
    </g>
</svg>