<?xml version="1.0" encoding="UTF-8" standalone="no"?>
<svg width="318px" height="177px" viewBox="0 0 318 177" version="1.1" xmlns="http://www.w3.org/2000/svg" xmlns:xlink="http://www.w3.org/1999/xlink" xmlns:sketch="http://www.bohemiancoding.com/sketch/ns">
    <!-- Generator: Sketch 3.2.2 (9983) - http://www.bohemiancoding.com/sketch -->
    <title>Group</title>
    <desc>Created with Sketch.</desc>
    <defs></defs>
    <g id="Page-1" stroke="none" stroke-width="1" fill="none" fill-rule="evenodd" sketch:type="MSPage">
        <g id="Homepage-(docenten)-3" sketch:type="MSArtboardGroup" transform="translate(-1201.000000, -879.000000)">
            <g id="Group" sketch:type="MSLayerGroup" transform="translate(1201.000000, 879.000000)">
                <rect id="Rectangle-484" fill="#8E45B7" sketch:type="MSShapeGroup" x="0" y="0" width="318" height="177"></rect>
                <g transform="translate(42.000000, 45.000000)" sketch:type="MSShapeGroup">
                    <path d="M0,5.625 C0,2.51859375 2.552175,0 5.7,0 L51.3,0 C54.447825,0 57,2.51859375 57,5.625 L57,84.375 C57,87.4828125 54.447825,90 51.3,90 L5.7,90 C2.552175,90 0,87.4828125 0,84.375 L0,5.625 Z" id="Fill-5779" fill="#FFFFFF"></path>
                    <path d="M5.7,81.5625 C5.7,83.115 6.9768,84.375 8.55,84.375 L48.45,84.375 C50.0232,84.375 51.3,83.115 51.3,81.5625 L51.3,8.4375 C51.3,6.885 50.0232,5.625 48.45,5.625 L8.55,5.625 C6.9768,5.625 5.7,6.885 5.7,8.4375 L5.7,81.5625 Z" id="Fill-5780" fill="#212121"></path>
                    <path d="M17.1,5.625 L22.8,11.25 L34.2,11.25 L39.9,5.625 L17.1,5.625 Z" id="Fill-5781" fill="#5B5C5F"></path>
                    <path d="M22.8,28.125 L11.4,28.125 L11.4,16.875 L22.8,16.875 L22.8,28.125 Z" id="Fill-5782" fill="#FFEE58"></path>
                    <path d="M34.2,28.125 L22.8,28.125 L22.8,16.875 L34.2,16.875 L34.2,28.125 Z" id="Fill-5783" fill="#4DB6AC"></path>
                    <path d="M45.6,28.125 L34.2,28.125 L34.2,16.875 L45.6,16.875 L45.6,28.125 Z" id="Fill-5784" fill="#FB8C00"></path>
                    <path d="M11.4,39.375 L28.5,39.375 L28.5,28.125 L11.4,28.125 L11.4,39.375 Z" id="Fill-5785" fill="#64B5F7"></path>
                    <path d="M28.5,39.375 L45.6,39.375 L45.6,28.125 L28.5,28.125 L28.5,39.375 Z" id="Fill-5786" fill="#EF5350"></path>
                    <path d="M11.4,56.25 L28.5,56.25 L28.5,39.375 L11.4,39.375 L11.4,56.25 Z" id="Fill-5787" fill="#4DB6AC"></path>
                    <path d="M28.5,47.8125 L37.05,47.8125 L37.05,39.375 L28.5,39.375 L28.5,47.8125 Z" id="Fill-5788" fill="#FB8C00"></path>
                    <path d="M28.5,56.25 L37.05,56.25 L37.05,47.8125 L28.5,47.8125 L28.5,56.25 Z" id="Fill-5789" fill="#FFEE58"></path>
                    <path d="M37.05,47.8125 L45.6,47.8125 L45.6,39.375 L37.05,39.375 L37.05,47.8125 Z" id="Fill-5790" fill="#64B5F7"></path>
                    <path d="M37.05,56.25 L45.6,56.25 L45.6,47.8125 L37.05,47.8125 L37.05,56.25 Z" id="Fill-5791" fill="#FB8C00"></path>
                    <path d="M45.6,67.5 L11.4,67.5 L11.4,56.25 L45.6,56.25 L45.6,67.5 Z" id="Fill-5792" fill="#EF5350"></path>
                    <path d="M31.35,78.75 L25.65,78.75 L25.65,73.125 L31.35,73.125 L31.35,78.75 Z" id="Fill-5793" fill="#979797"></path>
                </g>
                <g transform="translate(99.000000, 33.000000)" sketch:type="MSShapeGroup">
                    <path d="M64.125,46.3125 C64.125,48.279 62.529,49.875 60.5625,49.875 L3.5625,49.875 C1.596,49.875 0,48.279 0,46.3125 L0,3.5625 C0,1.596 1.596,0 3.5625,0 L60.5625,0 C62.529,0 64.125,1.596 64.125,3.5625 L64.125,46.3125 Z" id="Fill-2102" fill="#212121"></path>
                    <path d="M0,46.3125 C0,48.279 1.596,49.875 3.5625,49.875 L60.5625,49.875 C62.529,49.875 64.125,48.279 64.125,46.3125 L64.125,35.625 L0,35.625 L0,46.3125 Z" id="Fill-2103" fill="#FFFFFF"></path>
                    <path d="M30.28125,42.75 C30.28125,43.7350313 29.48325,44.53125 28.5,44.53125 C27.51675,44.53125 26.71875,43.7350313 26.71875,42.75 C26.71875,41.76675 27.51675,40.96875 28.5,40.96875 C29.48325,40.96875 30.28125,41.76675 30.28125,42.75" id="Fill-2104" fill="#979797"></path>
                    <path d="M42.75,57 L21.375,57 L21.375,49.875 L42.75,49.875 L42.75,57 Z" id="Fill-2105" fill="#E2E4E5"></path>
                    <path d="M49.875,58.78125 C49.875,59.7662813 49.077,60.5625 48.09375,60.5625 L16.03125,60.5625 C15.048,60.5625 14.25,59.7662813 14.25,58.78125 C14.25,57.798 15.048,57 16.03125,57 L48.09375,57 C49.077,57 49.875,57.798 49.875,58.78125" id="Fill-2106" fill="#F0F0F0"></path>
                    <path d="M114,96.1875 C114,98.154 112.404,99.75 110.4375,99.75 L39.1875,99.75 C37.221,99.75 35.625,98.154 35.625,96.1875 L35.625,46.3125 C35.625,44.346 37.221,42.75 39.1875,42.75 L110.4375,42.75 C112.404,42.75 114,44.346 114,46.3125 L114,96.1875 Z" id="Fill-2107" fill="#212121"></path>
                    <path d="M85.5,110.4375 L64.125,110.4375 L64.125,99.75 L85.5,99.75 L85.5,110.4375 Z" id="Fill-2108" fill="#E2E4E5"></path>
                    <path d="M92.625,112.21875 C92.625,113.203781 91.827,114 90.84375,114 L58.78125,114 C57.798,114 57,113.203781 57,112.21875 C57,111.2355 57.798,110.4375 58.78125,110.4375 L90.84375,110.4375 C91.827,110.4375 92.625,111.2355 92.625,112.21875" id="Fill-2109" fill="#F0F0F0"></path>
                    <path d="M114,96.1875 L114,85.5 L35.625,85.5 L35.625,96.1875 C35.625,98.154 37.221,99.75 39.1875,99.75 L110.4375,99.75 C112.404,99.75 114,98.154 114,96.1875" id="Fill-2110" fill="#FFFFFF"></path>
                    <path d="M78.375,92.625 C78.375,94.5915 76.779,96.1875 74.8125,96.1875 C72.846,96.1875 71.25,94.5915 71.25,92.625 C71.25,90.6585 72.846,89.0625 74.8125,89.0625 C76.779,89.0625 78.375,90.6585 78.375,92.625" id="Fill-2111" fill="#979797"></path>
                    <path d="M35.625,46.3125 L35.625,85.5 L59.77875,85.5 L102.52875,42.75 L39.1875,42.75 C37.221,42.75 35.625,44.346 35.625,46.3125" id="Fill-2112" fill="#5B5C5F"></path>
                    <path d="M0,3.5625 L0,35.625 L17.7287812,35.625 L53.3537812,0 L3.5625,0 C1.596,0 0,1.596 0,3.5625" id="Fill-2113" fill="#5B5C5F"></path>
                </g>
                <g transform="translate(57.000000, 51.000000)" sketch:type="MSShapeGroup">
                    <path d="M20.48382,110.4375 C20.48382,112.405781 22.09662,114 24.08382,114 L85.28382,114 C87.27102,114 88.88382,112.405781 88.88382,110.4375 L88.88382,24.9375 C88.88382,22.971 87.27102,21.375 85.28382,21.375 L24.08382,21.375 C22.09662,21.375 20.48382,22.971 20.48382,24.9375 L20.48382,110.4375 Z" id="Fill-1922" fill="#D32F2F"></path>
                    <path d="M81.684,89.0625 L27.684,89.0625 L27.684,30.28125 L81.684,30.28125 L81.684,89.0625 Z" id="Fill-1923" fill="#212121"></path>
                    <path d="M27.68382,30.28125 L80.92242,30.28125 L88.29342,22.9888125 C87.64902,22.0180312 86.54382,21.375 85.28382,21.375 L24.08382,21.375 C22.09662,21.375 20.48382,22.971 20.48382,24.9375 L20.48382,90.0902813 L27.68382,82.9652813 L27.68382,30.28125 Z" id="Fill-1924" fill="#EF5350"></path>
                    <path d="M27.68382,82.9654594 L80.92242,30.2814281 L27.68382,30.2814281 L27.68382,82.9654594 Z" id="Fill-1925" fill="#5B5C5F"></path>
                    <path d="M54.68382,94.40625 C50.70762,94.40625 47.48382,97.5964688 47.48382,101.53125 C47.48382,105.466031 50.70762,108.65625 54.68382,108.65625 C58.66002,108.65625 61.88382,105.466031 61.88382,101.53125 C61.88382,97.5964688 58.66002,94.40625 54.68382,94.40625 M54.68382,97.96875 C56.66922,97.96875 58.28382,99.5665312 58.28382,101.53125 C58.28382,103.495969 56.66922,105.09375 54.68382,105.09375 C52.69842,105.09375 51.08382,103.495969 51.08382,101.53125 C51.08382,99.5665312 52.69842,97.96875 54.68382,97.96875" id="Fill-1926" fill="#E57373"></path>
                    <path d="M58.28382,25.828125 C58.28382,26.31975 57.88062,26.71875 57.38382,26.71875 L51.98382,26.71875 C51.48702,26.71875 51.08382,26.31975 51.08382,25.828125 C51.08382,25.3365 51.48702,24.9375 51.98382,24.9375 L57.38382,24.9375 C57.88062,24.9375 58.28382,25.3365 58.28382,25.828125" id="Fill-1927" fill="#E57373"></path>
                    <path d="M34.2,14.25 L27,14.25 L27,21.375 L34.2,21.375 L34.2,14.25 Z" id="Fill-1928" fill="#5B5C5F"></path>
                    <path d="M52.17534,56.2825125 C51.70194,55.773075 51.15474,55.3633875 50.55894,55.0730437 C49.86774,54.71145 49.10094,54.5012625 48.32514,54.4282312 L41.82174,60.3722625 C41.83434,61.1417625 41.98554,61.914825 42.29514,62.627325 C42.53994,63.2347312 42.91254,63.8082937 43.38594,64.31595 L38.91294,68.3736375 L42.97014,72.7198875 L51.83874,64.6490437 C54.27234,62.4260437 54.42174,58.6889812 52.17534,56.2825125" id="Fill-1929" fill="#CFD3D4"></path>
                    <path d="M50.55822,55.0735781 L42.29622,62.6242969 C41.98482,61.9135781 41.83362,61.1405156 41.82102,60.3727969 L48.32622,54.4269844 C49.10022,54.5017969 49.86702,54.7102031 50.55822,55.0735781" id="Fill-1930" fill="#FFFFFF"></path>
                    <path d="M53.23014,86.4018469 C30.97494,98.2774406 12.93534,97.5025969 8.12574,73.0852219 C12.44574,77.0591906 18.81054,79.3516594 24.73434,79.3516594 C31.11714,79.3498781 37.22094,76.7902219 42.21774,71.9131594 L39.78054,69.2982844 C26.31294,82.6273781 6.92154,72.3085969 7.20054,64.1255344 C11.99934,57.0005344 11.99934,49.8755344 7.20054,42.7505344 L7.20054,14.2558781 C7.20774,13.1621906 7.56774,3.56303438 18.00054,3.56303438 C28.43154,3.56303438 28.79154,13.1621906 28.80054,14.2505344 L32.40054,14.2505344 C32.40054,9.32181562 29.38914,0.000534375 18.00054,0.000534375 C6.61014,0.000534375 3.60054,9.32181562 3.60054,14.2505344 L3.60054,42.7505344 C-1.20006,49.8755344 -1.20006,57.0005344 3.60054,64.1255344 C3.31434,80.3420344 11.00214,97.4705344 29.12994,97.4705344 C36.43434,97.4705344 45.09954,94.8040031 55.03914,89.4834094 L53.23014,86.4018469 Z" id="Fill-1931" fill="#FFFFFF"></path>
                    <path d="M68.26194,76.1571656 C67.90734,75.5551031 67.45914,75.0296344 66.93714,74.6146031 C66.33594,74.1087281 65.62674,73.7346656 64.88154,73.4959781 L57.15594,77.9384156 C56.99574,78.6990094 56.97414,79.4934469 57.12354,80.2611656 C57.22794,80.9148844 57.46734,81.5632594 57.82194,82.1635406 L52.51734,85.1881031 L55.55034,90.3537281 L66.07674,84.3259781 C68.96574,82.6640719 69.94134,79.0160719 68.26194,76.1571656" id="Fill-1932" fill="#CFD3D4"></path>
                    <path d="M66.9366,74.61585 L57.123,80.2606312 C56.9754,79.4929125 56.997,78.698475 57.1554,77.9396625 L64.881,73.4954438 C65.6262,73.7341313 66.3372,74.1081938 66.9366,74.61585" id="Fill-1933" fill="#FFFFFF"></path>
                    <path d="M8.9991,53.4375 C8.9991,55.4057813 7.3881,57 5.3991,57 C3.4119,57 1.7991,55.4057813 1.7991,53.4375 C1.7991,51.471 3.4119,49.875 5.3991,49.875 C7.3881,49.875 8.9991,51.471 8.9991,53.4375" id="Fill-1934" fill="#CFD3D4"></path>
                </g>
                <g transform="translate(192.000000, 63.000000)" sketch:type="MSShapeGroup">
                    <path d="M78.375,92.625 C78.375,94.5915 76.779,96.1875 74.8125,96.1875 L3.5625,96.1875 C1.596,96.1875 0,94.5915 0,92.625 L0,3.5625 C0,1.596 1.596,0 3.5625,0 L74.8125,0 C76.779,0 78.375,1.596 78.375,3.5625 L78.375,92.625 Z" id="Fill-2198" fill="#FFFFFF"></path>
                    <path d="M71.25,10.6875 L7.125,10.6875 L7.125,81.9375 L71.25,81.9375 L71.25,10.6875 Z" id="Fill-2199" fill="#212121"></path>
                    <path d="M42.75,89.0625 C42.75,91.029 41.154,92.625 39.1875,92.625 C37.221,92.625 35.625,91.029 35.625,89.0625 C35.625,87.096 37.221,85.5 39.1875,85.5 C41.154,85.5 42.75,87.096 42.75,89.0625" id="Fill-2200" fill="#979797"></path>
                    <path d="M92.625,78.375 C92.625,57 78.375,42.75 78.375,42.75 L78.375,71.25 L68.4872813,64.659375 C67.965375,64.31025 67.352625,64.125 66.725625,64.125 C65.2899375,64.125 64.125,65.2899375 64.125,66.725625 C64.125,67.3472812 64.3476562,67.9475625 64.752,68.4178125 C70.6176562,76.7398125 74.8125,85.5 83.71875,92.625 L89.0625,114 L114,114 L92.625,78.375 Z" id="Fill-2201" fill="#FBC8C8"></path>
                    <path d="M7.125,70.9299094 L67.366875,10.6880344 L7.125,10.6880344 L7.125,70.9299094 Z" id="Fill-2202" fill="#5B5C5F"></path>
                    <path d="M39.1875,5.34375 C39.1875,6.32878125 38.3895,7.125 37.40625,7.125 C36.423,7.125 35.625,6.32878125 35.625,5.34375 C35.625,4.3605 36.423,3.5625 37.40625,3.5625 C38.3895,3.5625 39.1875,4.3605 39.1875,5.34375" id="Fill-2203" fill="#212121"></path>
                </g>
            </g>
        </g>
    </g>
</svg>