<?xml version="1.0" encoding="UTF-8" standalone="no"?>
<svg width="320px" height="177px" viewBox="0 0 320 177" version="1.1" xmlns="http://www.w3.org/2000/svg" xmlns:xlink="http://www.w3.org/1999/xlink" xmlns:sketch="http://www.bohemiancoding.com/sketch/ns">
    <!-- Generator: Sketch 3.2.2 (9983) - http://www.bohemiancoding.com/sketch -->
    <title>Rectangle 481 + Group</title>
    <desc>Created with Sketch.</desc>
    <defs></defs>
    <g id="Page-1" stroke="none" stroke-width="1" fill="none" fill-rule="evenodd" sketch:type="MSPage">
        <g id="Homepage-(docenten)-3" sketch:type="MSArtboardGroup" transform="translate(-32.000000, -1359.000000)">
            <g id="Rectangle-481-+-Group" sketch:type="MSLayerGroup" transform="translate(32.000000, 1359.000000)">
                <rect id="Rectangle-481" fill="#F6A623" sketch:type="MSShapeGroup" x="0" y="0" width="320" height="177"></rect>
                <g id="Group" transform="translate(87.547170, 21.000000)" sketch:type="MSShapeGroup">
                    <path d="M115.924528,0 L2.41509434,0 C1.08196226,0 0,1.06593103 0,2.37931034 L0,135.62069 C0,136.936448 1.08196226,138 2.41509434,138 L142.490566,138 C143.823698,138 144.90566,136.936448 144.90566,135.62069 L144.90566,28.5517241 L115.924528,0 Z" id="Fill-5942" fill="#FFFFFF"></path>
                    <path d="M67.6226415,109.448276 L9.66037736,109.448276 L9.66037736,61.862069 L67.6226415,61.862069 L67.6226415,109.448276 Z" id="Fill-5943" fill="#64B5F7"></path>
                    <path d="M135.245283,64.2413793 C135.245283,65.5571379 134.163321,66.6206897 132.830189,66.6206897 L79.6981132,66.6206897 C78.3649811,66.6206897 77.2830189,65.5571379 77.2830189,64.2413793 C77.2830189,62.928 78.3649811,61.862069 79.6981132,61.862069 L132.830189,61.862069 C134.163321,61.862069 135.245283,62.928 135.245283,64.2413793" id="Fill-5944" fill="#E2E4E5"></path>
                    <path d="M135.245283,78.5172414 C135.245283,79.833 134.163321,80.8965517 132.830189,80.8965517 L79.6981132,80.8965517 C78.3649811,80.8965517 77.2830189,79.833 77.2830189,78.5172414 C77.2830189,77.2038621 78.3649811,76.137931 79.6981132,76.137931 L132.830189,76.137931 C134.163321,76.137931 135.245283,77.2038621 135.245283,78.5172414" id="Fill-5945" fill="#E2E4E5"></path>
                    <path d="M135.245283,92.7931034 C135.245283,94.1088621 134.163321,95.1724138 132.830189,95.1724138 L79.6981132,95.1724138 C78.3649811,95.1724138 77.2830189,94.1088621 77.2830189,92.7931034 C77.2830189,91.4797241 78.3649811,90.4137931 79.6981132,90.4137931 L132.830189,90.4137931 C134.163321,90.4137931 135.245283,91.4797241 135.245283,92.7931034" id="Fill-5946" fill="#E2E4E5"></path>
                    <path d="M135.245283,107.068966 C135.245283,108.384724 134.163321,109.448276 132.830189,109.448276 L79.6981132,109.448276 C78.3649811,109.448276 77.2830189,108.384724 77.2830189,107.068966 C77.2830189,105.755586 78.3649811,104.689655 79.6981132,104.689655 L132.830189,104.689655 C134.163321,104.689655 135.245283,105.755586 135.245283,107.068966" id="Fill-5947" fill="#E2E4E5"></path>
                    <path d="M135.245283,121.344828 C135.245283,122.660586 134.163321,123.724138 132.830189,123.724138 L79.6981132,123.724138 C78.3649811,123.724138 77.2830189,122.660586 77.2830189,121.344828 C77.2830189,120.031448 78.3649811,118.965517 79.6981132,118.965517 L132.830189,118.965517 C134.163321,118.965517 135.245283,120.031448 135.245283,121.344828" id="Fill-5948" fill="#E2E4E5"></path>
                    <path d="M67.6226415,121.344828 C67.6226415,122.660586 66.5406792,123.724138 65.2075472,123.724138 L12.0754717,123.724138 C10.7423396,123.724138 9.66037736,122.660586 9.66037736,121.344828 C9.66037736,120.031448 10.7423396,118.965517 12.0754717,118.965517 L65.2075472,118.965517 C66.5406792,118.965517 67.6226415,120.031448 67.6226415,121.344828" id="Fill-5949" fill="#E2E4E5"></path>
                    <path d="M9.66037736,61.862069 L9.66037736,109.448276 L15.5338868,109.448276 L63.8357736,61.862069 L9.66037736,61.862069 Z" id="Fill-5950" fill="#90CAF9"></path>
                    <path d="M135.245283,47.5862069 C135.245283,48.9019655 134.163321,49.9655172 132.830189,49.9655172 L12.0754717,49.9655172 C10.7423396,49.9655172 9.66037736,48.9019655 9.66037736,47.5862069 C9.66037736,46.2728276 10.7423396,45.2068966 12.0754717,45.2068966 L132.830189,45.2068966 C134.163321,45.2068966 135.245283,46.2728276 135.245283,47.5862069" id="Fill-5951" fill="#EF5350"></path>
                    <path d="M115.924528,0 L115.924528,28.5517241 L144.90566,28.5517241 L115.924528,0 Z" id="Fill-5952" fill="#E2E4E5"></path>
                    <path d="M12.5519698,15.1926103 L18.1284226,15.1926103 L23.7362717,24.9501621 L25.7045736,29.5374724 L25.8688,29.5089207 C25.8349887,29.5089207 25.2457057,25.5664034 25.2118943,25.5664034 L25.2118943,15.1926103 L31.0491774,15.1926103 L31.0491774,38.0696793 L25.1128755,38.0696793 L19.8648755,29.0544724 L17.8337811,24.4647828 L17.6695547,24.4980931 L18.4230642,28.9236103 L18.4230642,38.0696793 L12.5519698,38.0696793 L12.5519698,15.1926103 Z" id="Fill-5953" fill="#212121"></path>
                    <path d="M40.6663245,24.1764103 L50.0779472,24.1764103 L50.0779472,29.1824793 L40.6663245,29.1824793 L40.6663245,32.6086862 L50.8990792,32.6086862 L50.8990792,38.0692034 L34.7300226,38.0692034 L34.7300226,15.1921345 L50.8990792,15.1921345 L50.8990792,20.6193414 L40.6663245,20.6193414 L40.6663245,24.1764103 Z" id="Fill-5954" fill="#212121"></path>
                    <path d="M76.1261887,15.1926103 L82.1929057,15.1926103 L75.5030943,38.0696793 L70.0594717,38.0696793 L67.9921509,31.7359552 L67.1710189,26.5038517 L67.0744151,26.5038517 L66.1880755,31.7026448 L64.3526038,38.0696793 L58.9089811,38.0696793 L52.1829434,15.1926103 L58.2834717,15.1926103 L61.0390943,26.1469552 L61.6307925,30.9936103 L61.7926038,30.9936103 L62.3504906,26.1778862 L64.9418868,18.1667483 L69.402566,18.1667483 L71.7983396,26.2111966 L72.5518491,30.9936103 L72.6508679,30.9936103 L73.3053585,26.2111966 L76.1261887,15.1926103 Z" id="Fill-5955" fill="#212121"></path>
                    <path d="M86.3031547,30.8299138 C88.6313057,33.6089483 93.7488906,33.7398103 93.913117,31.2819828 C93.9783245,29.9900172 91.8457962,29.2476724 89.9427019,28.9907069 C86.2041358,28.4077759 82.7940226,26.0808103 82.7940226,21.7195345 C82.7940226,17.2273966 86.9262491,14.8695 91.1888906,14.8695 C94.0097208,14.8695 96.7339472,15.6451552 99.1273057,18.5217414 L95.2897208,21.4292586 C92.8625509,18.8762586 88.6965132,18.9738103 88.5999094,21.6243621 C88.665117,22.7212241 89.8774943,23.3660172 91.6839849,23.7562241 C95.8137962,24.498569 99.9460226,25.9190172 99.6851925,31.5413276 C99.4871547,35.9692241 94.7656453,38.3913621 90.5005887,38.3913621 C87.7135698,38.3913621 84.7623245,37.0042241 82.5959849,34.2561207 L86.3031547,30.8299138 Z" id="Fill-5956" fill="#212121"></path>
                </g>
            </g>
        </g>
    </g>
</svg>