<?xml version="1.0" encoding="UTF-8" standalone="no"?>
<svg width="318px" height="177px" viewBox="0 0 318 177" version="1.1" xmlns="http://www.w3.org/2000/svg" xmlns:xlink="http://www.w3.org/1999/xlink" xmlns:sketch="http://www.bohemiancoding.com/sketch/ns">
    <!-- Generator: Sketch 3.2.2 (9983) - http://www.bohemiancoding.com/sketch -->
    <title>Group</title>
    <desc>Created with Sketch.</desc>
    <defs></defs>
    <g id="Page-1" stroke="none" stroke-width="1" fill="none" fill-rule="evenodd" sketch:type="MSPage">
        <g id="Homepage-(docenten)-3" sketch:type="MSArtboardGroup" transform="translate(-814.000000, -879.000000)">
            <g id="Group" sketch:type="MSLayerGroup" transform="translate(814.000000, 879.000000)">
                <rect id="Rectangle-483" fill="#8BC34A" sketch:type="MSShapeGroup" x="0" y="0" width="318" height="177"></rect>
                <g id="Fill-1370-+-Fill-1371" transform="translate(123.000000, 54.000000)" sketch:type="MSShapeGroup">
                    <path d="M9.12312923,59.0625 C8.16460615,59.0625 7.29543692,58.7268281 6.60091385,58.188375 C5.66980615,57.4668281 5.06159077,56.3702344 5.06159077,55.125 C5.06159077,52.9505156 6.88014462,51.1875 9.12312923,51.1875 C10.4075908,51.1875 11.5387292,51.7771406 12.2830062,52.6798125 C12.8394369,53.353125 13.1846677,54.19575 13.1846677,55.125 C13.1846677,57.2994844 11.3661138,59.0625 9.12312923,59.0625 M64.7580831,13.001625 L51.7692831,25.59375 L45.6769754,27.5625 L41.9342677,23.9331094 L37.5538985,19.6875 L39.5846677,13.78125 L52.5734677,1.189125 C50.4178062,0.433125 48.1027292,0 45.6769754,0 C34.4610369,0 25.3692831,8.81409375 25.3692831,19.6875 C25.3692831,22.0381875 25.8160523,24.2825625 26.5958677,26.373375 L3.53851385,48.7265625 C0.141036923,52.0202813 0.09636,57.5327812 3.87359077,60.8324062 C7.25583692,63.7875 12.4657754,63.6969375 15.7231292,60.5390625 L38.7804831,38.185875 C40.93716,38.9408906 43.2522369,39.375 45.6769754,39.375 C56.8929138,39.375 65.9846677,30.5609062 65.9846677,19.6875 C65.9846677,17.3368125 65.5378985,15.0924375 64.7580831,13.001625" id="Fill-1370" fill="#E0E0E0"></path>
                    <path d="M5.06159077,55.125 C5.06159077,52.9505156 6.88014462,51.1875 9.12312923,51.1875 C10.4075908,51.1875 11.5387292,51.7771406 12.2830062,52.6798125 L41.9342677,23.9331094 L37.5538985,19.6875 L39.5846677,13.78125 L52.5734677,1.189125 C50.4178062,0.433125 48.1027292,0 45.6769754,0 C34.4610369,0 25.3692831,8.81409375 25.3692831,19.6875 C25.3692831,22.0381875 25.8160523,24.2825625 26.5958677,26.373375 L3.53851385,48.7265625 C0.174544615,51.9877969 0.174544615,57.2778281 3.53851385,60.5390625 C3.64614462,60.6424219 3.76189846,60.7349531 3.87359077,60.8324062 L6.60091385,58.188375 C5.66980615,57.4668281 5.06159077,56.3702344 5.06159077,55.125" id="Fill-1371" fill="#F0F0F0"></path>
                </g>
                <g transform="translate(33.000000, 54.000000)" sketch:type="MSShapeGroup">
                    <path d="M12.75,43.3125 L12.75,53.15625 C12.75,53.8472813 12.8849375,54.5087812 13.1208125,55.125 C13.9963125,57.4176094 16.3508125,59.0625 19.125,59.0625 L21.25,59.0625 L21.25,61.03125 C21.25,62.118 22.202,63 23.375,63 L27.625,63 C28.798,63 29.75,62.118 29.75,61.03125 L29.75,59.0625 L31.875,59.0625 C34.6491875,59.0625 37.0036875,57.4176094 37.8791875,55.125 C38.1150625,54.5087812 38.25,53.8472813 38.25,53.15625 L38.25,43.3125 L12.75,43.3125 Z" id="Fill-1608" fill="#E0E0E0"></path>
                    <path d="M12.75,43.3125 L38.25,43.3125 C45.281625,39.10725 51,31.95675 51,23.625 C51,10.5771094 39.5834375,0 25.5,0 C11.4165625,0 0,10.5771094 0,23.625 C0,31.95675 5.3125,39.375 12.75,43.3125" id="Fill-1609" fill="#FDD835"></path>
                    <path d="M12.75,53.15625 L25.5,53.15625 L25.5,50.203125 L12.75,50.203125 L12.75,53.15625 Z" id="Fill-1610" fill="#FFFFFF"></path>
                    <path d="M12.75,48.234375 L25.5,48.234375 L25.5,45.28125 L12.75,45.28125 L12.75,48.234375 Z" id="Fill-1611" fill="#FFFFFF"></path>
                    <path d="M19.125,59.0625 L21.25,59.0625 L25.5,59.0625 L25.5,55.125 L13.1208125,55.125 C13.9963125,57.4176094 16.3508125,59.0625 19.125,59.0625" id="Fill-1612" fill="#FFFFFF"></path>
                    <path d="M21.25,59.0625 L21.25,61.03125 C21.25,62.118 22.202,63 23.375,63 L25.5,63 L25.5,59.0625 L21.25,59.0625 Z" id="Fill-1613" fill="#E0E0E0"></path>
                    <path d="M29.75,59.0625 L29.75,61.03125 C29.75,62.118 28.798,63 27.625,63 L25.5,63 L25.5,59.0625 L29.75,59.0625 Z" id="Fill-1614" fill="#979797"></path>
                    <path d="M38.25,45.28125 L12.75,45.28125 L12.75,43.3125 L38.25,43.3125 L38.25,45.28125 Z" id="Fill-1615" fill="#D1D1D1"></path>
                    <path d="M38.25,50.203125 L12.75,50.203125 L12.75,48.234375 L38.25,48.234375 L38.25,50.203125 Z" id="Fill-1616" fill="#D1D1D1"></path>
                    <path d="M25.5,53.15625 L12.75,53.15625 C12.75,53.8472813 12.8849375,54.5087812 13.1208125,55.125 L25.5,55.125 L37.8791875,55.125 C38.1150625,54.5087812 38.25,53.8472813 38.25,53.15625 L25.5,53.15625 Z" id="Fill-1617" fill="#D1D1D1"></path>
                    <path d="M12.75,53.15625 C12.75,53.8472813 12.8849375,54.5087812 13.1208125,55.125 L25.5,55.125 L25.5,53.15625 L12.75,53.15625 Z" id="Fill-1618" fill="#E0E0E0"></path>
                    <path d="M12.75,45.28125 L25.5,45.28125 L25.5,43.3125 L12.75,43.3125 L12.75,45.28125 Z" id="Fill-1619" fill="#E0E0E0"></path>
                    <path d="M12.75,50.203125 L25.5,50.203125 L25.5,48.234375 L12.75,48.234375 L12.75,50.203125 Z" id="Fill-1620" fill="#E0E0E0"></path>
                    <path d="M12.75,43.3125 L25.5,43.3125 L25.5,0 C11.4165625,0 0,10.5771094 0,23.625 C0,31.95675 5.3125,39.375 12.75,43.3125" id="Fill-1621" fill="#FFEE58"></path>
                </g>
                <g transform="translate(228.000000, 54.000000)" sketch:type="MSShapeGroup">
                    <path d="M63,31.5 C63,48.8968594 48.8968594,63 31.5,63 C14.1031406,63 0,48.8968594 0,31.5 C0,14.1031406 14.1031406,0 31.5,0 C48.8968594,0 63,14.1031406 63,31.5" id="Fill-2391" fill="#FDD835"></path>
                    <path d="M0,31.5 C0,48.8968594 14.1031406,63 31.5,63 L31.5,0 C14.1031406,0 0,14.1031406 0,31.5" id="Fill-2392" fill="#FFEE58"></path>
                    <path d="M26.0859375,25.59375 C25.2698906,25.59375 24.609375,24.93225 24.609375,24.1171875 C24.609375,20.5891875 21.7379531,17.71875 18.2109375,17.71875 C14.6829375,17.71875 11.8125,20.5891875 11.8125,24.1171875 C11.8125,24.93225 11.1519844,25.59375 10.3359375,25.59375 C9.51989063,25.59375 8.859375,24.93225 8.859375,24.1171875 C8.859375,18.9610312 13.0547812,14.765625 18.2109375,14.765625 C23.3670938,14.765625 27.5625,18.9610312 27.5625,24.1171875 C27.5625,24.93225 26.9019844,25.59375 26.0859375,25.59375" id="Fill-2393" fill="#8F4D37"></path>
                    <path d="M52.6640625,25.59375 C51.8480156,25.59375 51.1875,24.93225 51.1875,24.1171875 C51.1875,20.5891875 48.3160781,17.71875 44.7890625,17.71875 C41.2610625,17.71875 38.390625,20.5891875 38.390625,24.1171875 C38.390625,24.93225 37.7301094,25.59375 36.9140625,25.59375 C36.0980156,25.59375 35.4375,24.93225 35.4375,24.1171875 C35.4375,18.9610312 39.6329062,14.765625 44.7890625,14.765625 C49.9452188,14.765625 54.140625,18.9610312 54.140625,24.1171875 C54.140625,24.93225 53.4801094,25.59375 52.6640625,25.59375" id="Fill-2394" fill="#8F4D37"></path>
                    <path d="M52.4276156,33.8239125 C53.0645063,33.6358969 53.7535688,33.7825687 54.2595375,34.2117562 C54.7655063,34.6429125 55.0214438,35.2985062 54.9387563,35.9570531 C53.9593031,43.7277094 49.2018187,50.3210531 42.5641781,53.8451156 C40.8907406,50.8526156 36.5693344,48.7263656 31.4998031,48.7263656 C26.4302719,48.7263656 22.1088656,50.8526156 20.4354281,53.8451156 C13.7977875,50.3210531 9.04030313,43.7277094 8.06183437,35.9570531 C7.9781625,35.2985062 8.23311563,34.6419281 8.74006875,34.2107719 C9.2460375,33.7806 9.9351,33.6358969 10.5719906,33.8239125 C24.5245219,37.9405687 38.4760688,37.9405687 52.4276156,33.8239125" id="Fill-2395" fill="#EF5350"></path>
                    <path d="M42.5645719,53.8455094 C39.2570719,55.6075406 35.4967594,56.6017594 31.5001969,56.6017594 C27.5036344,56.6017594 23.7433219,55.6075406 20.4358219,53.8455094 C22.1092594,50.8530094 26.4306656,48.7267594 31.5001969,48.7267594 C36.5697281,48.7267594 40.8911344,50.8530094 42.5645719,53.8455094" id="Fill-2396" fill="#E57373"></path>
                </g>
                <text id="+" sketch:type="MSTextLayer" font-family="Roboto" font-size="32.4" font-weight="bold" fill="#F0F0F0">
                    <tspan x="99" y="99">+</tspan>
                </text>
                <text id="=" sketch:type="MSTextLayer" font-family="Roboto" font-size="32.4" font-weight="bold" fill="#F0F0F0">
                    <tspan x="198" y="99">=</tspan>
                </text>
            </g>
        </g>
    </g>
</svg>