<?xml version="1.0" encoding="UTF-8" standalone="no"?>
<svg width="175px" height="175px" viewBox="0 0 175 175" version="1.1" xmlns="http://www.w3.org/2000/svg" xmlns:xlink="http://www.w3.org/1999/xlink" xmlns:sketch="http://www.bohemiancoding.com/sketch/ns">
    <!-- Generator: Sketch 3.2.2 (9983) - http://www.bohemiancoding.com/sketch -->
    <title>b_100quizvragen</title>
    <desc>Created with Sketch.</desc>
    <defs>
        <circle id="path-1" cx="79.5" cy="79.5" r="79.5"></circle>
    </defs>
    <g id="Page-1" stroke="none" stroke-width="1" fill="none" fill-rule="evenodd" sketch:type="MSPage">
        <g id="Artboard-16" sketch:type="MSArtboardGroup" transform="translate(-340.000000, -618.000000)">
            <g id="b_100quizvragen" sketch:type="MSLayerGroup" transform="translate(348.000000, 626.000000)">
                <g id="Oval-115">
                    <use stroke="#00539F" stroke-width="8" fill="#3F81AD" fill-rule="evenodd" sketch:type="MSShapeGroup" xlink:href="#path-1"></use>
                    <use stroke="none" fill="none" xlink:href="#path-1"></use>
                </g>
                <circle id="Oval-117" stroke="#00539F" stroke-width="8" sketch:type="MSShapeGroup" cx="79.5" cy="79.5" r="71.5"></circle>
                <g id="Group" transform="translate(43.000000, 29.000000)" sketch:type="MSShapeGroup">
                    <path d="M75.1305116,60.4551118 C74.1297855,54.4853959 70.1543735,48.5211435 66.3952356,44.0156288 C65.1104205,46.4778179 63.0429863,48.4628668 60.519177,49.6593596 C60.7904361,59.8432068 60.6548066,70.600715 54.8685568,89.3530531 C56.8040271,91.4692245 59.1023981,93.6873801 60.9737193,94.6161644 C71.085452,90.5968957 77.1539579,72.512918 75.1305116,60.4551118" id="Fill-7024" fill="#FFFFFF"></path>
                    <path d="M10.626198,44.0152646 C6.86706014,48.5207792 2.8916481,54.4850317 1.89092197,60.4547476 C-0.132524268,72.5125538 5.93414878,90.5965314 16.0477143,94.6176213 C17.9172027,93.6870158 20.2155737,91.4688603 22.1528768,89.3526889 C16.3647942,70.6021719 16.2309975,59.8428426 16.5022566,49.6589953 C13.9766144,48.4625026 11.9110131,46.4774537 10.626198,44.0152646 Z" id="Fill-7025" fill="#FFFFFF"></path>
                    <path d="M55.0060192,50.9092119 C47.9202917,50.9092119 42.176197,45.201741 42.176197,38.1611914 C42.176197,37.7350433 42.2000238,37.3125375 42.2403461,36.8973163 C39.7458621,36.1779637 37.2752049,36.1779637 34.7807209,36.8973163 C34.8210432,37.3125375 34.84487,37.7350433 34.84487,38.1611914 C34.84487,45.201741 29.1007754,50.9092119 22.0150479,50.9092119 C20.0392553,50.9092119 18.1734326,50.4521043 16.50189,49.6580848 C16.2068041,60.7634318 16.3754246,72.5225701 23.8478796,94.6167108 L38.5105335,94.6167108 L53.1731874,94.6167108 C60.6456424,72.5225701 60.8142629,60.7634318 60.519177,49.6580848 C58.8476345,50.4521043 56.9818118,50.9092119 55.0060192,50.9092119" id="Fill-7026" fill-opacity="0.4" fill="#FFFFFF"></path>
                    <path d="M66.0030096,17.8537769 L66.0030096,27.3328407 L69.6686731,21.8694034 L73.3343365,27.3328407 L73.3343365,16.3240144 L66.0030096,17.8537769 Z" id="Fill-7028" fill="#FFFFFF"></path>
                    <path d="M75.7470762,12.3520955 L39.0904415,0.108532371 C38.714711,-0.0153055426 38.3078223,-0.0153055426 37.930259,0.108532371 L1.27362424,12.3520955 C0.487339425,12.6125193 -0.0240206293,13.3646525 0.0236329959,14.1859893 C0.0731194528,15.007326 0.668789767,15.6957191 1.4789014,15.8632646 L18.3501175,19.429068 L18.3501175,38.2597154 L58.6724158,38.2597154 L58.6724158,19.429068 L75.5417991,15.8632646 C76.3519107,15.6957191 76.9494138,15.007326 76.9952346,14.1859893 C77.0447211,13.3646525 76.533361,12.6125193 75.7470762,12.3520955" id="Fill-7029" fill="#FFFFFF"></path>
                    <path d="M60.5045144,90.9744192 C53.1731874,86.1174234 45.8418605,86.1174234 38.5105335,90.9744192 C31.1792066,86.1174234 23.8478796,86.1174234 16.5165527,90.9744192 C15.2940539,94.6167108 16.5165527,98.2590023 20.1822161,101.901294 L23.8478796,94.6167108 L27.5135431,101.901294 L31.1792066,94.6167108 L34.84487,101.901294 C36.6777018,100.080148 37.9002005,98.2590023 38.5105335,96.4378565 C39.1208665,98.2590023 40.3433653,100.080148 42.176197,101.901294 L45.8418605,94.6167108 L49.5075239,101.901294 L53.1731874,94.6167108 L56.8388509,101.901294 C60.5045144,98.2590023 61.7270131,94.6167108 60.5045144,90.9744192" id="Fill-7035" fill="#FFFFFF"></path>
                    <path d="M37.2222361,48.7475119 C36.0418924,49.9075817 34.0441059,51.4500922 31.2343748,52.2331849 C30.5800539,52.4134783 30.0796908,52.9397895 29.9367299,53.6026865 C29.7937691,54.2619413 30.0302044,54.944871 30.5525614,55.3801248 C33.8864823,58.1610144 38.5107168,61.8360866 38.5107168,61.8360866 C38.5107168,61.8360866 43.1331184,58.1610144 46.4688722,55.3801248 C46.9893964,54.944871 47.2258317,54.2601202 47.0828708,53.6026865 C46.93991,52.9416106 46.4413797,52.4134783 45.7870588,52.2331849 C42.9754949,51.4500922 40.9795411,49.9075817 39.7973647,48.7475119 C39.0825603,48.0481919 37.9352076,48.0481919 37.2222361,48.7475119 Z" id="Fill-7036" fill="#FFFFFF"></path>
                    <path d="M55.0060192,27.2184807 C49.6284908,27.2184807 45.0317488,30.5092911 43.123771,35.1696032 C40.051945,34.3118435 36.969122,34.3118435 33.897296,35.1696032 C31.9893182,30.5092911 27.3925762,27.2184807 22.0150479,27.2184807 C14.9293204,27.2184807 9.18522572,32.9259516 9.18522572,39.9665012 C9.18522572,47.0070508 14.9293204,52.7145217 22.0150479,52.7145217 C29.1007754,52.7145217 34.84487,47.0070508 34.84487,39.9665012 C34.84487,39.5403531 34.8210432,39.1178472 34.7807209,38.702626 C37.2752049,37.9832734 39.7458621,37.9832734 42.2403461,38.702626 C42.2000238,39.1178472 42.176197,39.5403531 42.176197,39.9665012 C42.176197,47.0070508 47.9202917,52.7145217 55.0060192,52.7145217 C62.0917466,52.7145217 67.8358413,47.0070508 67.8358413,39.9665012 C67.8358413,32.9259516 62.0917466,27.2184807 55.0060192,27.2184807" id="Fill-7037" fill="#00539F"></path>
                    <path d="M31.1792066,39.9665012 C31.1792066,44.9965058 27.0754963,49.0722301 22.0150479,49.0722301 C16.9545995,49.0722301 12.8508892,44.9965058 12.8508892,39.9665012 C12.8508892,34.9401388 16.9545995,30.8607722 22.0150479,30.8607722 C27.0754963,30.8607722 31.1792066,34.9401388 31.1792066,39.9665012" id="Fill-7038" fill="#FFF5D1"></path>
                    <path d="M64.1701778,39.9665012 C64.1701778,44.9965058 60.0664676,49.0722301 55.0060192,49.0722301 C49.9455707,49.0722301 45.8418605,44.9965058 45.8418605,39.9665012 C45.8418605,34.9401388 49.9455707,30.8607722 55.0060192,30.8607722 C60.0664676,30.8607722 64.1701778,34.9401388 64.1701778,39.9665012" id="Fill-7040" fill="#FFF5D1"></path>
                    <path d="M22.0150479,36.3242096 C20.7558925,36.3242096 19.6433636,36.9561472 18.985377,37.9177122 L22.0150479,39.6569064 L18.7251149,41.5436134 C19.3171196,42.7619599 20.5597795,43.6087927 22.0150479,43.6087927 C24.0384941,43.6087927 25.6807114,41.9788673 25.6807114,39.9665012 C25.6807114,37.9559562 24.0384941,36.3242096 22.0150479,36.3242096" id="Fill-7042" fill="#00539F"></path>
                    <path d="M55.0060192,36.3242096 C53.7468637,36.3242096 52.6343349,36.9561472 51.9763483,37.9177122 L55.0060192,39.6569064 L51.7160862,41.5436134 C52.3080908,42.7619599 53.5507508,43.6087927 55.0060192,43.6087927 C57.0294654,43.6087927 58.6716826,41.9788673 58.6716826,39.9665012 C58.6716826,37.9559562 57.0294654,36.3242096 55.0060192,36.3242096" id="Fill-7043" fill="#00539F"></path>
                </g>
            </g>
        </g>
    </g>
</svg>