<?xml version="1.0" encoding="UTF-8" standalone="no"?>
<svg width="175px" height="175px" viewBox="0 0 175 175" version="1.1" xmlns="http://www.w3.org/2000/svg" xmlns:xlink="http://www.w3.org/1999/xlink" xmlns:sketch="http://www.bohemiancoding.com/sketch/ns">
    <!-- Generator: Sketch 3.2.2 (9983) - http://www.bohemiancoding.com/sketch -->
    <title>b_50quizzen</title>
    <desc>Created with Sketch.</desc>
    <defs></defs>
    <g id="Page-1" stroke="none" stroke-width="1" fill="none" fill-rule="evenodd" sketch:type="MSPage">
        <g id="Artboard-16" sketch:type="MSArtboardGroup" transform="translate(-340.000000, -417.000000)">
            <g id="b_50quizzen" sketch:type="MSLayerGroup" transform="translate(348.000000, 425.000000)">
                <circle id="Oval-115" stroke="#00539F" stroke-width="8" fill="#3F81AD" sketch:type="MSShapeGroup" cx="79.5" cy="79.5" r="79.5"></circle>
                <circle id="Oval-118" stroke="#00539F" stroke-width="8" sketch:type="MSShapeGroup" cx="79.5" cy="79.5" r="71.5"></circle>
                <g id="Group" transform="translate(29.000000, 39.000000)" fill="#FFFFFF" sketch:type="MSShapeGroup">
                    <path d="M101.606833,28.6646015 C101.606833,27.6926132 101.183883,26.7897123 100.517569,26.4323637 L51.5896127,0.388795312 C51.2086219,0.186297754 50.7890284,0.186297754 50.4097159,0.388795312 L1.48343852,26.4323637 C0.827194331,26.7849477 0.392495492,27.6711723 0.392495492,28.6646015 C0.392495492,29.4960326 0.796983601,30.5299613 1.48343852,30.8968393 L24.1465212,42.9585468 L24.1465212,59.7968144 C28.4213395,68.2898002 39.6647662,73.0663603 51.0005035,73.5142372 C62.3362408,73.0663603 73.5796675,68.2898002 77.8544858,59.7968144 L77.8544858,42.9585468 L94.6382248,34.024831 L94.6382248,59.7968144 L97.9949725,59.7968144 L97.9949725,32.2380878 L100.517569,30.8968393 C101.155351,30.5537846 101.606833,29.6556483 101.606833,28.6646015" id="Fill-7060"></path>
                    <path d="M97.994469,64.3989883 L94.6377212,64.3989883 L94.6377212,59.6343398 L97.994469,59.6343398 L97.994469,64.3989883 Z" id="Fill-7065"></path>
                    <path d="M101.351217,81.2374941 L97.994469,64.5612246 L94.6377212,64.5612246 L91.2809735,81.2374941 L101.351217,81.2374941 Z" id="Fill-7066"></path>
                    <path d="M96.3160951,59.6343398 L94.6377212,59.6343398 L94.6377212,64.3989883 L96.3160951,64.3989883 L96.3160951,59.6343398 Z" id="Fill-7068"></path>
                    <path d="M96.3160951,64.5612246 L94.6377212,64.5612246 L91.2809735,81.2374941 L96.3160951,81.2374941 L96.3160951,64.5612246 Z" id="Fill-7069"></path>
                    <path d="M24.1460177,42.9585468 L24.1460177,59.7968144 C28.420836,68.2898002 39.6642627,73.0663603 51,73.5142372 L51,57.090494 C50.8002735,57.090494 50.600547,57.0404652 50.4092124,56.9380253 L24.1460177,42.9585468 Z" id="Fill-7072"></path>
                    <path d="M50.4098837,0.389748242 L1.48360636,26.4333166 C0.827362168,26.7859006 0.39266333,27.6721252 0.39266333,28.6655544 C0.39266333,29.6566013 0.827362168,30.5452082 1.48360636,30.8954099 L50.4098837,56.9389782 C50.59954,57.0390358 50.7992665,57.091447 51.0006713,57.091447 L51.0006713,0.239661816 C50.7992665,0.239661816 50.59954,0.289690625 50.4098837,0.389748242" id="Fill-7073"></path>
                </g>
            </g>
        </g>
    </g>
</svg>