<?xml version="1.0" encoding="UTF-8" standalone="no"?>
<svg width="175px" height="172px" viewBox="0 0 175 172" version="1.1" xmlns="http://www.w3.org/2000/svg" xmlns:xlink="http://www.w3.org/1999/xlink" xmlns:sketch="http://www.bohemiancoding.com/sketch/ns">
    <!-- Generator: Sketch 3.2.2 (9983) - http://www.bohemiancoding.com/sketch -->
    <title>b_50cursussen</title>
    <desc>Created with Sketch.</desc>
    <defs></defs>
    <g id="Page-1" stroke="none" stroke-width="1" fill="none" fill-rule="evenodd" sketch:type="MSPage">
        <g id="Artboard-16" sketch:type="MSArtboardGroup" transform="translate(-548.000000, -212.000000)">
            <g id="b_50cursussen" sketch:type="MSLayerGroup" transform="translate(556.000000, 220.000000)">
                <polygon id="Star-10" stroke="#FDB32E" stroke-width="8" stroke-linejoin="round" fill-opacity="0.770000219" fill="#FDB32E" sketch:type="MSShapeGroup" points="79.5 151.050008 57.1022617 155.779691 40.8171454 139.691697 19.4179088 131.561428 14.4158238 109.222947 0.80919537 90.8140296 8.67826833 69.3173722 7.18425637 46.4745065 25.4261122 32.6447095 36.519055 12.6203441 59.3420334 10.8482705 79.5 0 99.6579666 10.8482705 122.480945 12.6203441 133.573888 32.6447095 151.815744 46.4745065 150.321732 69.3173722 158.190805 90.8140296 144.584176 109.222947 139.582091 131.561428 118.182855 139.691697 101.897738 155.779691 "></polygon>
                <polygon id="Star-11" fill="#FDB32E" sketch:type="MSShapeGroup" points="80.5 140.350006 61.764785 144.306283 48.1426436 130.849029 30.2426533 124.048239 26.0585193 105.362591 14.6768741 89.9639367 21.2591804 71.982456 20.0094723 52.8749016 35.2683832 41.3065809 44.5473856 24.5566401 63.6383047 23.0743394 80.5 14 97.3616953 23.0743394 116.452614 24.5566401 125.731617 41.3065809 140.990528 52.8749016 139.74082 71.982456 146.323126 89.9639367 134.941481 105.362591 130.757347 124.048239 112.857356 130.849029 99.235215 144.306283 "></polygon>
                <g id="Group-2" transform="translate(36.000000, 45.000000)" sketch:type="MSShapeGroup">
                    <path d="M94,65.0833333 C94,68.3508125 91.3694687,71 88.125,71 L29.375,71 C26.1305313,71 23.5,68.3508125 23.5,65.0833333 L23.5,29.5833333 C23.5,26.3158542 26.1305313,23.6666667 29.375,23.6666667 L88.125,23.6666667 C91.3694687,23.6666667 94,26.3158542 94,29.5833333 L94,65.0833333 Z" id="Fill-5326" fill="#FEC564"></path>
                    <path d="M82.25,53.25 C82.25,56.5174792 79.6194687,59.1666667 76.375,59.1666667 L17.625,59.1666667 C14.3805313,59.1666667 11.75,56.5174792 11.75,53.25 L11.75,17.75 C11.75,14.4825208 14.3805313,11.8333333 17.625,11.8333333 L76.375,11.8333333 C79.6194687,11.8333333 82.25,14.4825208 82.25,17.75 L82.25,53.25 Z" id="Fill-5327" fill="#FFDDA2"></path>
                    <path d="M70.5,41.4166667 C70.5,44.6841458 67.8694687,47.3333333 64.625,47.3333333 L5.875,47.3333333 C2.63053125,47.3333333 0,44.6841458 0,41.4166667 L0,5.91666667 C0,2.6491875 2.63053125,0 5.875,0 L64.625,0 C67.8694687,0 70.5,2.6491875 70.5,5.91666667 L70.5,41.4166667 Z" id="Fill-5328" fill="#FFFFFF"></path>
                    <path d="M64.625,0 L5.875,0 C2.63053125,0 0,2.6491875 0,5.91666667 L0,11.8333333 L70.5,11.8333333 L70.5,5.91666667 C70.5,2.6491875 67.8694687,0 64.625,0" id="Fill-5330" fill="#FEC564"></path>
                </g>
            </g>
        </g>
    </g>
</svg>