<?xml version="1.0" encoding="UTF-8" standalone="no"?>
<svg width="175px" height="175px" viewBox="0 0 175 175" version="1.1" xmlns="http://www.w3.org/2000/svg" xmlns:xlink="http://www.w3.org/1999/xlink" xmlns:sketch="http://www.bohemiancoding.com/sketch/ns">
    <!-- Generator: Sketch 3.2.2 (9983) - http://www.bohemiancoding.com/sketch -->
    <title>b_50mediawijs</title>
    <desc>Created with Sketch.</desc>
    <defs></defs>
    <g id="Page-1" stroke="none" stroke-width="1" fill="none" fill-rule="evenodd" sketch:type="MSPage">
        <g id="Artboard-16" sketch:type="MSArtboardGroup" transform="translate(-340.000000, -11.000000)">
            <g id="b_50mediawijs" sketch:type="MSLayerGroup" transform="translate(348.000000, 19.000000)">
                <circle id="Oval-115" stroke="#9E9E9E" stroke-width="8" fill="#CCCCCC" sketch:type="MSShapeGroup" cx="79.5" cy="79.5" r="79.5"></circle>
                <g id="Group" transform="translate(32.000000, 42.000000)" sketch:type="MSShapeGroup">
                    <path d="M13.2822727,22.7232074 C12.0140909,20.2632074 11.1610606,17.7743556 10.5974242,15.7030963 L18.6974242,15.7030963 L18.6974242,19.0453556 C18.6974242,23.5902815 19.7156061,27.8952815 21.5171212,31.7583926 C18.1792424,29.9285778 15.4519697,26.9310222 13.2822727,22.7232074 M79.3034848,19.0453556 L79.3034848,15.7030963 L87.4019697,15.7030963 C86.8383333,17.7743556 85.9868182,20.2632074 84.7171212,22.7232074 C82.5474242,26.9310222 79.8216667,29.9285778 76.4837879,31.7583926 C78.2837879,27.8952815 79.3034848,23.5902815 79.3034848,19.0453556 M97.4640909,11.5863926 C97.5868182,10.3078 97.1656061,9.0368 96.305,8.08620741 C95.4428788,7.1340963 94.2201515,6.59198519 92.9398485,6.59198519 L79.3034848,6.59198519 L79.3034848,0.517911111 L49.0004545,0.517911111 L18.6974242,0.517911111 L18.6974242,6.59198519 L5.06106061,6.59198519 C3.77924242,6.59198519 2.55651515,7.1340963 1.69590909,8.08620741 C0.833787879,9.0368 0.412575758,10.3078 0.53530303,11.5863926 C2.83227273,35.3846148 17.9580303,42.0023185 41.0322727,48.1082815 C46.3262121,58.8943185 41.7322727,71.2110222 33.1822727,73.1471333 C31.7974242,73.4599481 30.8186364,74.6853926 30.8186364,76.1052074 L30.8186364,79.4808741 L49.0004545,79.4808741 L67.1822727,79.4808741 L67.1822727,76.1052074 C67.1822727,74.6853926 66.2004545,73.4599481 64.8186364,73.1471333 C56.2686364,71.2110222 51.6731818,58.8943185 56.9686364,48.1082815 C80.0428788,42.0023185 95.1671212,35.3846148 97.4640909,11.5863926" id="Fill-2460" fill="#E8E8E8"></path>
                    <path d="M21.5163636,31.757937 C18.1784848,29.9281222 15.4527273,26.9305667 13.2815152,22.7227519 C12.0133333,20.2642704 11.1618182,17.7739 10.5981818,15.7041593 L18.6966667,15.7041593 L18.6966667,19.0449 C18.6966667,23.5898259 19.7163636,27.8948259 21.5163636,31.757937 M41.0315152,48.1093444 C46.3269697,58.893863 41.7315152,71.2105667 33.1815152,73.1466778 C31.7981818,73.4594926 30.8178788,74.684937 30.8178788,76.1062704 L30.8178788,79.481937 L48.999697,79.481937 L48.999697,0.518974074 L18.6966667,0.518974074 L18.6966667,6.59304815 L5.06030303,6.59304815 C3.78,6.59304815 2.55727273,7.13515926 1.69515152,8.08575185 C0.834545455,9.03634444 0.413333333,10.308863 0.536060606,11.585937 C2.8330303,35.3841593 17.9572727,42.001863 41.0315152,48.1093444" id="Fill-2464" fill="#FFFFFF"></path>
                    <path d="M86.7493939,61.4282704 C86.8236364,61.4161222 86.8781818,61.353863 86.8781818,61.277937 L86.8781818,61.2399741 C86.8781818,61.1640481 86.8236364,61.1002704 86.7493939,61.0896407 C82.5312121,60.4549 80.1054545,58.0237519 79.4721212,53.7961963 C79.4615152,53.7217889 79.3978788,53.6671222 79.3221212,53.6671222 L79.2842424,53.6671222 C79.2084848,53.6671222 79.1448485,53.7217889 79.1342424,53.7961963 C78.5009091,58.0237519 76.0766667,60.4549 71.8554545,61.0896407 C71.7812121,61.1002704 71.7266667,61.1640481 71.7266667,61.2399741 L71.7266667,61.277937 C71.7266667,61.353863 71.7812121,61.4161222 71.8569697,61.4282704 C76.0766667,62.0630111 78.5009091,64.4956778 79.1342424,68.7232333 C79.1448485,68.7976407 79.2084848,68.8523074 79.2842424,68.8523074 L79.3387879,68.8523074 C79.4039394,68.8523074 79.46,68.8037148 79.4706061,68.7384185 C80.0993939,64.5002333 82.5251515,62.0645296 86.7493939,61.4282704" id="Fill-2465" fill="#FFFFFF"></path>
                    <path d="M26.0663636,56.975063 C26.1845455,56.9568407 26.2724242,56.8551 26.2724242,56.735137 L26.2724242,56.6728778 C26.2724242,56.5529148 26.1845455,56.4511741 26.0663636,56.4329519 C19.3148485,55.417063 15.4345455,51.5266185 14.4209091,44.7616185 C14.4042424,44.6431741 14.3027273,44.5551 14.1815152,44.5551 L14.1209091,44.5551 C14.0012121,44.5551 13.899697,44.6431741 13.8815152,44.763137 C12.8678788,51.5266185 8.98757576,55.4185815 2.23606061,56.4329519 C2.11787879,56.4511741 2.03,56.5529148 2.03,56.6728778 L2.03,56.735137 C2.03,56.8551 2.11787879,56.9568407 2.23606061,56.975063 C8.98757576,57.9894333 12.8693939,61.8798778 13.8815152,68.6463963 C13.899697,68.7648407 14.0012121,68.8513963 14.1209091,68.8513963 L14.2087879,68.8513963 C14.3133333,68.8513963 14.4027273,68.7754704 14.4178788,68.6706926 C15.4254545,61.8905074 19.3072727,57.9909519 26.0663636,56.975063" id="Fill-2466" fill="#FFFFFF"></path>
                </g>
                <circle id="Oval-118" stroke="#9E9E9E" stroke-width="8" sketch:type="MSShapeGroup" cx="79.5" cy="79.5" r="71.5"></circle>
            </g>
        </g>
    </g>
</svg>