<?xml version="1.0" encoding="UTF-8" standalone="no"?>
<svg width="155px" height="175px" viewBox="0 0 155 175" version="1.1" xmlns="http://www.w3.org/2000/svg" xmlns:xlink="http://www.w3.org/1999/xlink" xmlns:sketch="http://www.bohemiancoding.com/sketch/ns">
    <!-- Generator: Sketch 3.2.2 (9983) - http://www.bohemiancoding.com/sketch -->
    <title>b_begrip1</title>
    <desc>Created with Sketch.</desc>
    <defs></defs>
    <g id="Page-1" stroke="none" stroke-width="1" fill="none" fill-rule="evenodd" sketch:type="MSPage">
        <g id="Artboard-16" sketch:type="MSArtboardGroup" transform="translate(-153.000000, -817.000000)">
            <g id="b_begrip1" sketch:type="MSLayerGroup" transform="translate(151.000000, 825.000000)">
                <polygon id="Polygon-2" stroke="#008290" stroke-width="8" stroke-linejoin="round" fill="#00ACC5" sketch:type="MSShapeGroup" points="79.5 0 148.34902 39.75 148.34902 119.25 79.5 159 10.6509804 119.25 10.6509804 39.75 "></polygon>
                <g id="Fill-2472-+-Fill-2473-+-Fill-2474" transform="translate(34.000000, 46.000000)" sketch:type="MSShapeGroup">
                    <path d="M96,36 C96,36 84,72 48,72 C12,72 0,36 0,36 C0,36 12,0 48,0 C84,0 96,36 96,36" id="Fill-2472" fill="#FFFFFF"></path>
                    <path d="M48,12 C44.208,12 40.635,12.9045 37.446,14.469 C40.1445,15.8265 42,18.612 42,21.8385 C42,26.394 38.307,30.0885 33.75,30.0885 C30.543,30.0885 27.7695,28.254 26.403,25.5825 C24.879,28.7355 24,32.2605 24,36 C24,49.254 34.746,60 48,60 C61.254,60 72,49.254 72,36 C72,22.746 61.254,12 48,12" id="Fill-2473" fill="#008290"></path>
                    <path d="M48,12 C44.208,12 40.635,12.9045 37.446,14.469 C40.1445,15.8265 42,18.612 42,21.8385 C42,26.394 38.307,30.0885 33.75,30.0885 C30.543,30.0885 27.7695,28.254 26.403,25.5825 C24.879,28.7355 24,32.2605 24,36 C24,40.7055 25.374,45.0825 27.714,48.786 L60.786,15.714 C57.081,13.374 52.7055,12 48,12" id="Fill-2474" fill="#00ACC5"></path>
                </g>
            </g>
        </g>
    </g>
</svg>