<?xml version="1.0" encoding="UTF-8" standalone="no"?>
<svg width="175px" height="172px" viewBox="0 0 175 172" version="1.1" xmlns="http://www.w3.org/2000/svg" xmlns:xlink="http://www.w3.org/1999/xlink" xmlns:sketch="http://www.bohemiancoding.com/sketch/ns">
    <!-- Generator: Sketch 3.2.2 (9983) - http://www.bohemiancoding.com/sketch -->
    <title>b_begrip3</title>
    <desc>Created with Sketch.</desc>
    <defs></defs>
    <g id="Page-1" stroke="none" stroke-width="1" fill="none" fill-rule="evenodd" sketch:type="MSPage">
        <g id="Artboard-16" sketch:type="MSArtboardGroup" transform="translate(-548.000000, -818.000000)">
            <g id="b_begrip3" sketch:type="MSLayerGroup" transform="translate(556.000000, 826.000000)">
                <polygon id="Star-10" stroke="#009000" stroke-width="8" stroke-linejoin="round" fill="#8BC34A" sketch:type="MSShapeGroup" points="79.5 151.050008 57.1022617 155.779691 40.8171454 139.691697 19.4179088 131.561428 14.4158238 109.222947 0.80919537 90.8140296 8.67826833 69.3173722 7.18425637 46.4745065 25.4261122 32.6447095 36.519055 12.6203441 59.3420334 10.8482705 79.5 0 99.6579666 10.8482705 122.480945 12.6203441 133.573888 32.6447095 151.815744 46.4745065 150.321732 69.3173722 158.190805 90.8140296 144.584176 109.222947 139.582091 131.561428 118.182855 139.691697 101.897738 155.779691 "></polygon>
                <polygon id="Star-12" fill="#009000" sketch:type="MSShapeGroup" points="79.5 140.350006 60.764785 144.306283 47.1426436 130.849029 29.2426533 124.048239 25.0585193 105.362591 13.6768741 89.9639367 20.2591804 71.982456 19.0094723 52.8749016 34.2683832 41.3065809 43.5473856 24.5566401 62.6383047 23.0743394 79.5 14 96.3616953 23.0743394 115.452614 24.5566401 124.731617 41.3065809 139.990528 52.8749016 138.74082 71.982456 145.323126 89.9639367 133.941481 105.362591 129.757347 124.048239 111.857356 130.849029 98.235215 144.306283 "></polygon>
                <g id="Fill-2472-+-Fill-2473-+-Fill-2474" transform="translate(32.000000, 45.000000)" sketch:type="MSShapeGroup">
                    <path d="M96,36 C96,36 84,72 48,72 C12,72 0,36 0,36 C0,36 12,0 48,0 C84,0 96,36 96,36" id="Fill-2472" fill="#FFFFFF"></path>
                    <path d="M48,12 C44.208,12 40.635,12.9045 37.446,14.469 C40.1445,15.8265 42,18.612 42,21.8385 C42,26.394 38.307,30.0885 33.75,30.0885 C30.543,30.0885 27.7695,28.254 26.403,25.5825 C24.879,28.7355 24,32.2605 24,36 C24,49.254 34.746,60 48,60 C61.254,60 72,49.254 72,36 C72,22.746 61.254,12 48,12" id="Fill-2473" fill="#009000"></path>
                    <path d="M37.446,14.469 C40.1445,15.8265 42,18.612 42,21.8385 C42,26.394 38.307,30.0885 33.75,30.0885 C30.543,30.0885 27.7695,28.254 26.403,25.5825 C24.879,28.7355 24,32.2605 24,36 C24,40.7055 25.374,45.0825 27.714,48.786 L60.786,15.714 C57.081,13.374 52.7055,12 48,12 C44.208,12 40.635,12.9045 37.446,14.469 Z" id="Fill-2474" fill="#8BC34A"></path>
                </g>
            </g>
        </g>
    </g>
</svg>