<?xml version="1.0" encoding="UTF-8" standalone="no"?>
<svg width="175px" height="172px" viewBox="0 0 175 172" version="1.1" xmlns="http://www.w3.org/2000/svg" xmlns:xlink="http://www.w3.org/1999/xlink" xmlns:sketch="http://www.bohemiancoding.com/sketch/ns">
    <!-- Generator: Sketch 3.2.2 (9983) - http://www.bohemiancoding.com/sketch -->
    <title>b_communicatie3</title>
    <desc>Created with Sketch.</desc>
    <defs></defs>
    <g id="Page-1" stroke="none" stroke-width="1" fill="none" fill-rule="evenodd" sketch:type="MSPage">
        <g id="Artboard-16" sketch:type="MSArtboardGroup" transform="translate(-548.000000, -1223.000000)">
            <g id="b_communicatie3" sketch:type="MSLayerGroup" transform="translate(556.000000, 1231.000000)">
                <polygon id="Star-10" stroke="#009000" stroke-width="8" stroke-linejoin="round" fill="#8BC34A" sketch:type="MSShapeGroup" points="79.5 151.050008 57.1022617 155.779691 40.8171454 139.691697 19.4179088 131.561428 14.4158238 109.222947 0.80919537 90.8140296 8.67826833 69.3173722 7.18425637 46.4745065 25.4261122 32.6447095 36.519055 12.6203441 59.3420334 10.8482705 79.5 0 99.6579666 10.8482705 122.480945 12.6203441 133.573888 32.6447095 151.815744 46.4745065 150.321732 69.3173722 158.190805 90.8140296 144.584176 109.222947 139.582091 131.561428 118.182855 139.691697 101.897738 155.779691 "></polygon>
                <polygon id="Star-12" fill="#009000" sketch:type="MSShapeGroup" points="79.5 140.350006 60.764785 144.306283 47.1426436 130.849029 29.2426533 124.048239 25.0585193 105.362591 13.6768741 89.9639367 20.2591804 71.982456 19.0094723 52.8749016 34.2683832 41.3065809 43.5473856 24.5566401 62.6383047 23.0743394 79.5 14 96.3616953 23.0743394 115.452614 24.5566401 124.731617 41.3065809 139.990528 52.8749016 138.74082 71.982456 145.323126 89.9639367 133.941481 105.362591 129.757347 124.048239 111.857356 130.849029 98.235215 144.306283 "></polygon>
                <g id="Group" transform="translate(38.000000, 47.000000)" sketch:type="MSShapeGroup">
                    <path d="M21,55.8032787 C21,58.5916885 23.3506875,60.852459 26.25,60.852459 L57.75,60.852459 L73.5,76 L73.5,60.852459 L78.75,60.852459 C81.648,60.852459 84,58.5916885 84,55.8032787 L84,15.4098361 C84,12.6214262 81.648,10.3606557 78.75,10.3606557 L26.25,10.3606557 C23.3506875,10.3606557 21,12.6214262 21,15.4098361 L21,55.8032787 Z" id="Fill-2859" fill="#9ED39F"></path>
                    <path d="M63,45.704918 C63,48.4933279 60.648,50.7540984 57.75,50.7540984 L26.25,50.7540984 L10.5,65.9016393 L10.5,50.7540984 L5.25,50.7540984 C2.3506875,50.7540984 0,48.4933279 0,45.704918 L0,5.31147541 C0,2.52306557 2.3506875,0.262295082 5.25,0.262295082 L57.75,0.262295082 C60.648,0.262295082 63,2.52306557 63,5.31147541 L63,45.704918 Z" id="Fill-2860" fill="#F0F0F0"></path>
                    <path d="M62.1277125,2.53177541 C61.1879625,1.16597213 59.58015,0.262168852 57.750525,0.262168852 L5.250525,0.262168852 C2.3499,0.262168852 0.000525,2.52293934 0.000525,5.31134918 L0.000525,45.7047918 C0.000525,48.4932016 2.3499,50.7539721 5.250525,50.7539721 L10.500525,50.7539721 L10.500525,52.1854148 L62.1277125,2.53177541 Z" id="Fill-2861" fill="#FFFFFF"></path>
                    <path d="M21,25.5081967 C21,28.2966066 18.648,30.557377 15.75,30.557377 C12.8506875,30.557377 10.5,28.2966066 10.5,25.5081967 C10.5,22.7197869 12.8506875,20.4590164 15.75,20.4590164 C18.648,20.4590164 21,22.7197869 21,25.5081967" id="Fill-2862" fill="#009000"></path>
                    <path d="M36.75,25.5081967 C36.75,28.2966066 34.398,30.557377 31.5,30.557377 C28.6006875,30.557377 26.25,28.2966066 26.25,25.5081967 C26.25,22.7197869 28.6006875,20.4590164 31.5,20.4590164 C34.398,20.4590164 36.75,22.7197869 36.75,25.5081967" id="Fill-2863" fill="#009000"></path>
                    <path d="M52.5,25.5081967 C52.5,28.2966066 50.148,30.557377 47.25,30.557377 C44.3506875,30.557377 42,28.2966066 42,25.5081967 C42,22.7197869 44.3506875,20.4590164 47.25,20.4590164 C50.148,20.4590164 52.5,22.7197869 52.5,25.5081967" id="Fill-2864" fill="#009000"></path>
                </g>
            </g>
        </g>
    </g>
</svg>