<?xml version="1.0" encoding="UTF-8" standalone="no"?>
<svg width="175px" height="175px" viewBox="0 0 175 175" version="1.1" xmlns="http://www.w3.org/2000/svg" xmlns:xlink="http://www.w3.org/1999/xlink" xmlns:sketch="http://www.bohemiancoding.com/sketch/ns">
    <!-- Generator: Sketch 3.2.2 (9983) - http://www.bohemiancoding.com/sketch -->
    <title>b_gebruik2</title>
    <desc>Created with Sketch.</desc>
    <defs>
        <circle id="path-1" cx="79.5" cy="79.5" r="79.5"></circle>
    </defs>
    <g id="Page-1" stroke="none" stroke-width="1" fill="none" fill-rule="evenodd" sketch:type="MSPage">
        <g id="Artboard-16" sketch:type="MSArtboardGroup" transform="translate(-340.000000, -1017.000000)">
            <g id="b_gebruik2" sketch:type="MSLayerGroup" transform="translate(348.000000, 1025.000000)">
                <g id="Oval-115">
                    <use stroke="#A005B4" stroke-width="8" fill="#BC61CC" fill-rule="evenodd" sketch:type="MSShapeGroup" xlink:href="#path-1"></use>
                    <use stroke="none" fill="none" xlink:href="#path-1"></use>
                </g>
                <g id="Group-4" transform="translate(39.000000, 48.000000)" sketch:type="MSShapeGroup">
                    <path d="M10.75,0 C4.810625,0 0,4.84791667 0,10.8333333 L0,62.2916667 C0,63.7880208 1.204,65 2.6875,65 L83.3125,65 C84.796,65 86,63.7880208 86,62.2916667 L86,10.8333333 C86,4.84791667 81.189375,0 75.25,0 L10.75,0 Z" id="Fill-3173" fill-opacity="0.600000381" fill="#FFFFFF"></path>
                    <path d="M75.25,0 L10.75,0 C4.8133125,0 0,4.850625 0,10.8333333 L0,16.25 L86,16.25 L86,10.8333333 C86,4.850625 81.1866875,0 75.25,0" id="Fill-3175" fill="#FFFFFF"></path>
                    <path d="M14.78125,8.125 C14.78125,9.62135417 13.57725,10.8333333 12.09375,10.8333333 C10.61025,10.8333333 9.40625,9.62135417 9.40625,8.125 C9.40625,6.63 10.61025,5.41666667 12.09375,5.41666667 C13.57725,5.41666667 14.78125,6.63 14.78125,8.125" id="Fill-3176" fill="#BC61CC"></path>
                    <path d="M25.53125,8.125 C25.53125,9.62135417 24.32725,10.8333333 22.84375,10.8333333 C21.36025,10.8333333 20.15625,9.62135417 20.15625,8.125 C20.15625,6.63 21.36025,5.41666667 22.84375,5.41666667 C24.32725,5.41666667 25.53125,6.63 25.53125,8.125" id="Fill-3177" fill-opacity="0.6" fill="#BC61CC"></path>
                    <path d="M36.28125,8.125 C36.28125,9.62135417 35.07725,10.8333333 33.59375,10.8333333 C32.11025,10.8333333 30.90625,9.62135417 30.90625,8.125 C30.90625,6.63 32.11025,5.41666667 33.59375,5.41666667 C35.07725,5.41666667 36.28125,6.63 36.28125,8.125" id="Fill-3178" fill-opacity="0.8" fill="#BC61CC"></path>
                    <path d="M66.2334375,58.2291667 C65.73625,56.46875 65.0375,54.8044792 64.1775,53.2336458 L68.654875,48.7215625 C69.7043438,47.6653125 69.7043438,45.9495833 68.654875,44.8919792 L62.9533437,39.14625 C61.903875,38.0886458 60.2026875,38.0886458 59.151875,39.14625 L54.6758437,43.6583333 C53.1197812,42.7889583 51.4562187,42.1010417 49.71875,41.591875 L49.71875,35.2083333 C49.71875,33.7133333 48.51475,32.5 47.03125,32.5 L38.96875,32.5 C37.4839062,32.5 36.28125,33.7133333 36.28125,35.2083333 L36.28125,41.591875 C34.5437812,42.1010417 32.878875,42.7889583 31.3241562,43.6583333 L26.8454375,39.14625 C25.7973125,38.0886458 24.096125,38.0886458 23.0466563,39.14625 L17.345125,44.8919792 C16.2956562,45.9495833 16.2956562,47.6653125 17.345125,48.7215625 L21.8225,53.2336458 C20.9625,54.8044792 20.26375,56.46875 19.7665625,58.2291667 L13.4375,58.2291667 C11.9526562,58.2291667 10.75,59.4425 10.75,60.9375 L10.75,65 L75.25,65 L75.25,60.9375 C75.25,59.4425 74.046,58.2291667 72.5625,58.2291667 L66.2334375,58.2291667 Z" id="Fill-3179" fill="#FFFFFF"></path>
                    <path d="M59.125,65 L26.875,65 C26.875,56.021875 34.0909375,48.75 43,48.75 C51.9090625,48.75 59.125,56.021875 59.125,65" id="Fill-3180" fill="#E4C0EA"></path>
                </g>
                <circle id="Oval-117" stroke="#A005B4" stroke-width="8" sketch:type="MSShapeGroup" cx="79.5" cy="79.5" r="71.5"></circle>
            </g>
        </g>
    </g>
</svg>