<?xml version="1.0" encoding="UTF-8" standalone="no"?>
<svg width="175px" height="172px" viewBox="0 0 175 172" version="1.1" xmlns="http://www.w3.org/2000/svg" xmlns:xlink="http://www.w3.org/1999/xlink" xmlns:sketch="http://www.bohemiancoding.com/sketch/ns">
    <!-- Generator: Sketch 3.2.2 (9983) - http://www.bohemiancoding.com/sketch -->
    <title>b_strategie3</title>
    <desc>Created with Sketch.</desc>
    <defs></defs>
    <g id="Page-1" stroke="none" stroke-width="1" fill="none" fill-rule="evenodd" sketch:type="MSPage">
        <g id="Artboard-16" sketch:type="MSArtboardGroup" transform="translate(-548.000000, -1425.000000)">
            <g id="b_strategie3" sketch:type="MSLayerGroup" transform="translate(556.000000, 1433.000000)">
                <polygon id="Star-10" stroke="#009000" stroke-width="8" stroke-linejoin="round" fill="#8BC34A" sketch:type="MSShapeGroup" points="79.5 151.050008 57.1022617 155.779691 40.8171454 139.691697 19.4179088 131.561428 14.4158238 109.222947 0.80919537 90.8140296 8.67826833 69.3173722 7.18425637 46.4745065 25.4261122 32.6447095 36.519055 12.6203441 59.3420334 10.8482705 79.5 0 99.6579666 10.8482705 122.480945 12.6203441 133.573888 32.6447095 151.815744 46.4745065 150.321732 69.3173722 158.190805 90.8140296 144.584176 109.222947 139.582091 131.561428 118.182855 139.691697 101.897738 155.779691 "></polygon>
                <polygon id="Star-12" fill="#009000" sketch:type="MSShapeGroup" points="79.5 140.350006 60.764785 144.306283 47.1426436 130.849029 29.2426533 124.048239 25.0585193 105.362591 13.6768741 89.9639367 20.2591804 71.982456 19.0094723 52.8749016 34.2683832 41.3065809 43.5473856 24.5566401 62.6383047 23.0743394 79.5 14 96.3616953 23.0743394 115.452614 24.5566401 124.731617 41.3065809 139.990528 52.8749016 138.74082 71.982456 145.323126 89.9639367 133.941481 105.362591 129.757347 124.048239 111.857356 130.849029 98.235215 144.306283 "></polygon>
                <g id="Group" transform="translate(32.000000, 45.000000)" sketch:type="MSShapeGroup">
                    <path d="M73.150071,10.7966857 C66.7056194,4.41513469 57.8023935,0.468359184 47.9672968,0.468359184 C43.0734903,0.468359184 38.4111677,1.44844082 34.1672968,3.21611429 C30.0332323,0.480114286 20.020071,0.468359184 12.3543935,0.468359184 C12.3543935,7.81529796 14.1172323,13.4151347 17.5939419,17.319298 C15.1129097,21.324849 13.4198129,25.8579102 12.7209097,30.711298 L0.483425806,23.9785633 L3.45116774,35.7336653 L0.483425806,47.4887673 L12.7209097,40.757502 C13.9198774,49.0830531 18.0494903,56.4726041 24.0502645,61.8623184 L18.2898774,65.1214204 C23.9182,71.6690122 29.8714903,72.4272163 36.0666516,68.9741551 C39.7896839,70.2804408 43.7931677,70.9989714 47.9672968,70.9989714 C57.8023935,70.9989714 66.7056194,67.0507265 73.150071,60.6691755 L47.9672968,35.7336653 L73.150071,10.7966857 Z" id="Fill-6486" fill="#9ED39F"></path>
                    <path d="M81.7489548,26.9327673 C79.6448258,25.2400327 76.1057935,23.9778286 73.1929548,23.9778286 L75.4558581,28.4609306 C73.8874065,29.3866449 72.7003097,30.6708898 72.1171484,32.1564408 L65.7736,28.3859918 L67.257471,34.2635429 L65.7736,40.1410939 L72.1171484,36.3735837 C72.9080516,38.3837061 74.7985032,40.027951 77.2587613,40.9081143 L76.1606968,43.0798694 C78.2247613,43.0798694 79.4623097,42.4788898 80.0988903,41.5414204 C85.9601806,42.1247673 90.9994065,38.6496653 90.9994065,34.2635429 C90.9994065,30.307951 86.8920516,27.0914612 81.7489548,26.9327673" id="Fill-6488" fill="#FFFFFF"></path>
                    <path d="M56.8709677,14.4285714 C56.8709677,18.8925714 53.2176774,22.5102041 48.7096774,22.5102041 C44.2016774,22.5102041 40.5483871,18.8925714 40.5483871,14.4285714 C40.5483871,9.96457143 44.2016774,6.34693878 48.7096774,6.34693878 C53.2176774,6.34693878 56.8709677,9.96457143 56.8709677,14.4285714" id="Fill-6489" fill="#FFFFFF"></path>
                    <path d="M49.6943742,9.94223673 C48.8411484,9.94223673 48.051729,10.193502 47.3780516,10.6093388 C48.0324387,10.9869714 48.4924387,11.659951 48.4924387,12.4637061 C48.4924387,13.9962776 46.8705677,15.1820735 45.3006323,14.3827265 C45.3451484,16.752849 47.2905032,18.6615837 49.6943742,18.6615837 C52.1249548,18.6615837 54.0970194,16.7102367 54.0970194,14.3019102 C54.0970194,11.8950531 52.1249548,9.94223673 49.6943742,9.94223673" id="Fill-6490" fill="#009000"></path>
                    <path d="M88.0322581,32.0612245 C88.0322581,34.090449 86.3718065,35.7346939 84.3225806,35.7346939 C82.2733548,35.7346939 80.6129032,34.090449 80.6129032,32.0612245 C80.6129032,30.032 82.2733548,28.3877551 84.3225806,28.3877551 C86.3718065,28.3877551 88.0322581,30.032 88.0322581,32.0612245" id="Fill-6491" fill="#FFFFFF"></path>
                    <path d="M84.7704129,30.0221551 C84.3816387,30.0221551 84.0240258,30.1367673 83.7168645,30.324849 C84.0151226,30.4967673 84.2243484,30.8024 84.2243484,31.1682776 C84.2243484,31.7148898 83.7762194,32.1601143 83.2242194,32.1601143 C83.0595097,32.1601143 82.9096387,32.1101551 82.7731226,32.0410939 C82.7924129,33.1166857 83.6782839,33.9850939 84.7704129,33.9850939 C85.8758968,33.9850939 86.7721548,33.0975837 86.7721548,32.0043592 C86.7721548,30.9096653 85.8758968,30.0221551 84.7704129,30.0221551" id="Fill-6492" fill="#009000"></path>
                </g>
            </g>
        </g>
    </g>
</svg>