<?xml version="1.0" encoding="UTF-8" standalone="no"?>
<svg width="155px" height="175px" viewBox="0 0 155 175" version="1.1" xmlns="http://www.w3.org/2000/svg" xmlns:xlink="http://www.w3.org/1999/xlink" xmlns:sketch="http://www.bohemiancoding.com/sketch/ns">
    <!-- Generator: Sketch 3.2.2 (9983) - http://www.bohemiancoding.com/sketch -->
    <title>b_welkom</title>
    <desc>Created with Sketch.</desc>
    <defs></defs>
    <g id="Page-1" stroke="none" stroke-width="1" fill="none" fill-rule="evenodd" sketch:type="MSPage">
        <g id="Artboard-16" sketch:type="MSArtboardGroup" transform="translate(-153.000000, -212.000000)">
            <g id="b_welkom" sketch:type="MSLayerGroup" transform="translate(151.000000, 220.000000)">
                <g id="b_10quizzen" stroke="#1592CA" stroke-width="8" fill="#03A9F4" sketch:type="MSShapeGroup" stroke-linejoin="round">
                    <polygon id="Polygon-1" points="79.5 0 148.34902 39.75 148.34902 119.25 79.5 159 10.6509804 119.25 10.6509804 39.75 "></polygon>
                </g>
                <g id="Group" transform="translate(41.000000, 45.000000)" sketch:type="MSShapeGroup">
                    <path d="M28.2107563,16.7195492 C11.0938812,16.7195492 0.00031875,31.7636723 0.00031875,37.9503185 L9.56281875,37.9503185 L11.7271312,40.8323954 C11.3201938,41.5882108 10.9185687,42.3493338 10.5211937,43.1189492 C9.83056875,44.4246415 9.15375625,45.7600569 8.50031875,47.1039646 L20.5894437,59.1810877 C21.9409438,58.5356723 23.2945687,57.8753954 24.6163187,57.2013185 C25.3037563,56.8499492 25.9858813,56.4943338 26.6637562,56.13978 L29.6621313,58.3849338 L29.6621313,67.93878 C35.7024437,67.93878 50.9121313,57.1227646 50.9121313,39.71778 C62.8089438,28.8614262 69.4740062,16.0221185 66.3502562,1.31556462 C51.7121937,-1.78837385 39.0036312,4.91099538 28.2107563,16.7195492 Z" id="Fill-2871" fill-opacity="0.690000296" fill="#FFFFFF"></path>
                    <path d="M24.616,57.2007877 C23.29425,57.8748646 21.940625,58.5351415 20.589125,59.1805569 L8.5010625,47.1034338 C9.1545,45.7595262 9.83025,44.4241108 10.520875,43.1173569 C24.1431875,16.7943877 42.738,-3.69118154 66.3499375,1.31503385 C71.36175,24.9077262 51.18275,43.7033262 24.616,57.2007877" id="Fill-2872" fill="#FFFFFF"></path>
                    <path d="M59.58925,20.0805923 C56.27,23.3968385 50.8884375,23.3968385 47.5691875,20.0805923 C44.248875,16.7643462 44.248875,11.3876538 47.5691875,8.07140769 C50.8884375,4.7541 56.27,4.7541 59.58925,8.07140769 C62.9085,11.3876538 62.9085,16.7643462 59.58925,20.0805923" id="Fill-2874" fill="#1592CA"></path>
                    <path d="M19.3055187,57.8844185 C19.3055187,60.9098031 17.5619563,63.0010338 14.7367687,64.3385723 C15.0767688,63.0647262 15.0555187,61.6422646 15.0555187,60.0074954 C10.2625812,66.0444646 6.10820625,66.4202492 2.27895625,66.3767262 C2.27895625,60.8577877 4.73120625,56.7464492 8.65395625,53.6382646 C6.96458125,53.6382646 5.52170625,53.6064185 4.20420625,53.9885723 C5.54401875,51.0693415 7.65414375,49.3921108 10.7991437,49.3921108 L19.3055187,57.8844185 Z" id="Fill-2876" fill="#FFFFFF"></path>
                </g>
                <path d="M65.616,102.200788 C64.29425,102.874865 62.940625,103.535142 61.589125,104.180557 L49.5010625,92.1034338 C50.1545,90.7595262 50.83025,89.4241108 51.520875,88.1173569 L65.616,102.200788 Z" id="Fill-2875" fill="#1592CA" sketch:type="MSShapeGroup"></path>
            </g>
        </g>
    </g>
</svg>