<?xml version="1.0" encoding="UTF-8" standalone="no"?>
<svg width="162px" height="121px" viewBox="0 0 162 121" version="1.1" xmlns="http://www.w3.org/2000/svg" xmlns:xlink="http://www.w3.org/1999/xlink" xmlns:sketch="http://www.bohemiancoding.com/sketch/ns">
    <!-- Generator: Sketch 3.2.2 (9983) - http://www.bohemiancoding.com/sketch -->
    <title>Group</title>
    <desc>Created with Sketch.</desc>
    <defs></defs>
    <g id="Page-1" stroke="none" stroke-width="1" fill="none" fill-rule="evenodd" sketch:type="MSPage">
        <g id="Homepage-(docenten)-3" sketch:type="MSArtboardGroup" transform="translate(-964.000000, -546.000000)">
            <g id="Group" sketch:type="MSLayerGroup" transform="translate(964.000000, 546.000000)">
                <path d="M162,115.958333 C162,118.743854 159.732,121 156.9375,121 L5.0625,121 C2.268,121 0,118.743854 0,115.958333 L0,15.125 C0,12.342 2.268,10.0833333 5.0625,10.0833333 L60.75,10.0833333 L60.75,5.04166667 C60.75,2.25866667 63.018,0 65.8125,0 L156.9375,0 C159.732,0 162,2.25866667 162,5.04166667 L162,115.958333 Z" id="Fill-2008" fill="#F0F0F0" sketch:type="MSShapeGroup"></path>
                <path d="M65.8125,0 C63.018,0 60.75,2.25866667 60.75,5.04166667 L60.75,10.0833333 L5.0625,10.0833333 C2.268,10.0833333 0,12.342 0,15.125 L0,115.958333 C0,116.752396 0.19996875,117.493521 0.52903125,118.161542 L119.178844,0 L65.8125,0 Z" id="Fill-2009" fill="#FFFFFF" sketch:type="MSShapeGroup"></path>
                <path d="M45.5625,10.0833333 L10.125,10.0833333 L10.125,2.52083333 C10.125,1.12933333 11.259,0 12.65625,0 L43.03125,0 C44.4285,0 45.5625,1.12933333 45.5625,2.52083333 L45.5625,10.0833333 Z" id="Fill-2010" fill="#FFFFFF" sketch:type="MSShapeGroup"></path>
                <path d="M151.875,27.7291667 C151.875,29.1231875 150.741,30.25 149.34375,30.25 L124.03125,30.25 C122.634,30.25 121.5,29.1231875 121.5,27.7291667 L121.5,12.6041667 C121.5,11.2126667 122.634,10.0833333 124.03125,10.0833333 L149.34375,10.0833333 C150.741,10.0833333 151.875,11.2126667 151.875,12.6041667 L151.875,27.7291667 Z" id="Fill-2011" fill="#64B5F7" sketch:type="MSShapeGroup"></path>
                <path d="M30.375,25.2083333 C30.375,27.9938542 28.107,30.25 25.3125,30.25 C22.518,30.25 20.25,27.9938542 20.25,25.2083333 C20.25,22.4253333 22.518,20.1666667 25.3125,20.1666667 C28.107,20.1666667 30.375,22.4253333 30.375,25.2083333" id="Fill-2012" fill="#5B5C5F" sketch:type="MSShapeGroup"></path>
                <path d="M20.25,10.0833333 L15.1875,10.0833333 L15.1875,0 L20.25,0 L20.25,10.0833333 Z" id="Fill-2013" fill="#E2E4E5" sketch:type="MSShapeGroup"></path>
                <path d="M30.375,10.0833333 L25.3125,10.0833333 L25.3125,0 L30.375,0 L30.375,10.0833333 Z" id="Fill-2014" fill="#E2E4E5" sketch:type="MSShapeGroup"></path>
                <path d="M40.5,10.0833333 L35.4375,10.0833333 L35.4375,0 L40.5,0 L40.5,10.0833333 Z" id="Fill-2015" fill="#E2E4E5" sketch:type="MSShapeGroup"></path>
                <path d="M162,110.916667 L0,110.916667 L0,40.3333333 L162,40.3333333 L162,110.916667 Z" id="Fill-2016" fill="#212121" sketch:type="MSShapeGroup"></path>
                <path d="M0,40.3333333 L0,110.916667 L7.80384375,110.916667 L78.6788438,40.3333333 L0,40.3333333 Z" id="Fill-2017" fill="#5B5C5F" sketch:type="MSShapeGroup"></path>
                <path d="M131.625,70.5833333 C131.625,92.8599375 113.491125,110.916667 91.125,110.916667 C68.758875,110.916667 50.625,92.8599375 50.625,70.5833333 C50.625,48.3067292 68.758875,30.25 91.125,30.25 C113.491125,30.25 131.625,48.3067292 131.625,70.5833333" id="Fill-2018" fill="#FFFFFF" sketch:type="MSShapeGroup"></path>
                <path d="M121.5,70.5833333 C121.5,87.2888958 107.899594,100.833333 91.125,100.833333 C74.3504063,100.833333 60.75,87.2888958 60.75,70.5833333 C60.75,53.8777708 74.3504063,40.3333333 91.125,40.3333333 C107.899594,40.3333333 121.5,53.8777708 121.5,70.5833333" id="Fill-2019" fill="#42A5F6" sketch:type="MSShapeGroup"></path>
                <path d="M91.125,40.3333333 C74.3504063,40.3333333 60.75,53.8777708 60.75,70.5833333 C60.75,78.997875 64.2051562,86.6032292 69.771375,92.0885625 L112.719094,49.3175833 C107.211094,43.7742708 99.5743125,40.3333333 91.125,40.3333333" id="Fill-2020" fill="#64B5F7" sketch:type="MSShapeGroup"></path>
                <path d="M40.5,85.7083333 C40.5,88.4938542 38.232,90.75 35.4375,90.75 C32.643,90.75 30.375,88.4938542 30.375,85.7083333 L30.375,75.625 C30.375,72.842 32.643,70.5833333 35.4375,70.5833333 C38.232,70.5833333 40.5,72.842 40.5,75.625 L40.5,85.7083333 Z" id="Fill-2021" fill="#787878" sketch:type="MSShapeGroup"></path>
            </g>
        </g>
    </g>
</svg>