<?xml version="1.0" encoding="UTF-8" standalone="no"?>
<svg width="395px" height="262px" viewBox="0 0 395 262" version="1.1" xmlns="http://www.w3.org/2000/svg" xmlns:xlink="http://www.w3.org/1999/xlink" xmlns:sketch="http://www.bohemiancoding.com/sketch/ns">
    <!-- Generator: Sketch 3.2.2 (9983) - http://www.bohemiancoding.com/sketch -->
    <title>Group</title>
    <desc>Created with Sketch.</desc>
    <defs></defs>
    <g id="Page-1" stroke="none" stroke-width="1" fill="none" fill-rule="evenodd" sketch:type="MSPage">
        <g id="Homepage-(docenten)-3" sketch:type="MSArtboardGroup" transform="translate(-1045.000000, -177.000000)">
            <g id="Group" sketch:type="MSLayerGroup" transform="translate(1045.000000, 177.000000)">
                <path d="M411,172.536585 C411,134.93 387.656484,102.799854 354.628781,89.5720488 C328.453219,25.8804878 286.178016,0 234.398438,0 C185.727047,0 143.54175,27.5994634 122.856891,67.9730244 C89.9512031,54.0295122 52.8520313,77.1941463 51.47775,113.056195 C21.5132812,123.561756 0,151.908878 0,185.317073 C0,227.66522 34.5047344,262 77.0625,262 L333.9375,262 C333.9375,262 411,247.775317 411,172.536585" id="Fill-6939" fill="#F0F0F0" sketch:type="MSShapeGroup"></path>
                <path d="M234.398438,0 C185.727047,0 143.54175,27.5994634 122.856891,67.9730244 C116.679047,65.3594146 109.884703,63.902439 102.75,63.902439 C75.0460312,63.902439 52.5245156,85.7442927 51.47775,113.056195 C21.5132812,123.561756 0,151.908878 0,185.317073 C0,225.537268 31.1268281,258.459805 70.7112656,261.680488 L308.930719,24.628 C287.539453,7.64273171 262.372125,0 234.398438,0" id="Fill-6940" fill="#FFFFFF" sketch:type="MSShapeGroup"></path>
                <path d="M180.1824,147.727741 L166.497384,147.561595 L166.471697,147.261254 C166.471697,115.092766 192.762853,88.9374976 225.08415,88.9374976 C239.379244,88.9374976 252.325744,94.2605707 262.510837,102.746815 L277.3839,81.1414 C262.966791,69.824278 244.824994,63.012278 225.08415,63.012278 C178.403541,63.012278 140.41815,100.80418 140.41815,147.261254 L127.767056,147.114278 C121.92315,147.024815 119.649806,151.031498 122.732306,155.983937 L147.694134,196.095498 C150.776634,201.047937 155.914134,201.105449 159.105806,196.223302 L185.005228,156.725205 C188.1969,151.843059 186.026306,147.798034 180.1824,147.727741" id="Fill-6941" fill="#42A5F6" sketch:type="MSShapeGroup"></path>
                <path d="M328.105153,132.82058 L303.136903,92.7026293 C300.060825,87.7565805 294.923325,87.6990683 291.725231,92.5812146 L265.832231,132.079312 C262.634138,136.961459 264.804731,141.006483 270.655059,141.076776 L284.333653,141.236532 L284.359341,141.543263 C284.359341,173.705361 258.068184,199.86702 225.753309,199.86702 C211.451794,199.86702 198.505294,194.556727 188.326622,186.057702 L173.447138,207.663117 C187.864247,218.980239 206.006044,225.785849 225.753309,225.785849 C272.433919,225.785849 310.412888,187.993946 310.412888,141.543263 L323.070403,141.690239 C328.907888,141.773312 331.181231,137.77302 328.105153,132.82058" id="Fill-6942" fill="#42A5F6" sketch:type="MSShapeGroup"></path>
            </g>
        </g>
    </g>
</svg>