<?xml version="1.0" encoding="UTF-8" standalone="no"?>
<svg width="225px" height="144px" viewBox="0 0 225 144" version="1.1" xmlns="http://www.w3.org/2000/svg" xmlns:xlink="http://www.w3.org/1999/xlink" xmlns:sketch="http://www.bohemiancoding.com/sketch/ns">
    <!-- Generator: Sketch 3.2.2 (9983) - http://www.bohemiancoding.com/sketch -->
    <title>Fill 6640 + Fill 6641 + Fill 6642</title>
    <desc>Created with Sketch.</desc>
    <defs></defs>
    <g id="Page-1" stroke="none" stroke-width="1" fill="none" fill-rule="evenodd" sketch:type="MSPage">
        <g id="Homepage-(docenten)-3" sketch:type="MSArtboardGroup" transform="translate(-170.000000, -294.000000)">
            <g id="Fill-6640-+-Fill-6641-+-Fill-6642" sketch:type="MSLayerGroup" transform="translate(170.000000, 294.000000)">
                <path d="M225,94.8292683 C225,74.16 212.220703,56.5006829 194.139844,49.230439 C179.810156,14.2243902 156.666797,0 128.320312,0 C101.675391,0 78.58125,15.1691707 67.2574219,37.3592195 C49.2433594,29.6956098 28.9335938,42.4273171 28.18125,62.1377561 C11.7773438,67.9118049 0,83.4919024 0,101.853659 C0,125.128976 18.8894531,144 42.1875,144 L182.8125,144 C182.8125,144 225,136.181854 225,94.8292683" id="Fill-6640" fill="#F0F0F0" sketch:type="MSShapeGroup"></path>
                <path d="M128.320313,0 C101.675391,0 78.58125,15.1691707 67.2574219,37.3592195 C63.8753906,35.9227317 60.1558594,35.1219512 56.25,35.1219512 C41.0800781,35.1219512 28.7542969,47.1266341 28.18125,62.1377561 C11.7773438,67.9118049 0,83.4919024 0,101.853659 C0,123.959415 17.0402344,142.054244 38.7105469,143.82439 L169.122656,13.536 C157.412109,4.20058537 143.634375,0 128.320313,0" id="Fill-6641" fill="#FFFFFF" sketch:type="MSShapeGroup"></path>
                <path d="M147.302578,81.6669659 C146.585391,79.9389659 144.894375,78.808039 143.020547,78.808039 L131.035781,78.808039 L131.035781,46.4010146 C131.035781,43.8441366 128.961563,41.7684293 126.402188,41.7684293 L98.5971094,41.7684293 C96.0377344,41.7684293 93.9635156,43.8441366 93.9635156,46.4010146 L93.9635156,78.808039 L81.97875,78.808039 C80.1049219,78.808039 78.4139063,79.9389659 77.6967188,81.6669659 C76.9795313,83.398478 77.3732813,85.3863805 78.7021875,86.7139902 L109.129922,114.544624 C110.943984,116.353405 113.876016,116.353405 115.686563,114.544624 L146.297109,86.7139902 C147.6225,85.3863805 148.019766,83.398478 147.302578,81.6669659" id="Fill-6642" fill="#42A5F5" sketch:type="MSShapeGroup"></path>
            </g>
        </g>
    </g>
</svg>