<?xml version="1.0" encoding="UTF-8" standalone="no"?>
<svg width="120px" height="81px" viewBox="0 0 120 81" version="1.1" xmlns="http://www.w3.org/2000/svg" xmlns:xlink="http://www.w3.org/1999/xlink" xmlns:sketch="http://www.bohemiancoding.com/sketch/ns">
    <!-- Generator: Sketch 3.2.2 (9983) - http://www.bohemiancoding.com/sketch -->
    <title>Group</title>
    <desc>Created with Sketch.</desc>
    <defs></defs>
    <g id="Page-1" stroke="none" stroke-width="1" fill="none" fill-rule="evenodd" sketch:type="MSPage">
        <g id="Homepage-(docenten)-3" sketch:type="MSArtboardGroup" transform="translate(-527.000000, -438.000000)">
            <g id="Group" sketch:type="MSLayerGroup" transform="translate(527.000000, 438.000000)">
                <path d="M114.58275,79.6903955 C109.839,82.0367136 104.08275,80.23085 101.5515,75.5885318 L91.314,59.9134864 C89.34525,56.2980318 85.55775,54.0430318 81.414,54.0430318 L38.589,54.0430318 C34.44525,54.0430318 30.65775,56.2980318 28.689,59.9134864 L18.4515,75.5885318 C15.92025,80.23085 10.164,82.0367136 5.42025,79.6903955 C1.44525,77.6944409 -0.69225,73.2962591 0.20775,68.9539864 L13.6515,13.9003045 C14.49525,9.83757727 17.57025,6.57621364 21.58275,5.43939545 C46.014,-1.48587727 71.939625,-2.06546818 98.42025,5.43939545 C102.43275,6.57621364 105.50775,9.83757727 106.3515,13.9003045 L119.79525,68.9539864 C120.69525,73.2962591 118.55775,77.6944409 114.58275,79.6903955" id="Fill-7878" fill="#212121" sketch:type="MSShapeGroup"></path>
                <path d="M60,0.0372727273 C46.89,0.0391363636 34.040625,1.90836364 21.583125,5.43995455 C17.570625,6.57677273 14.495625,9.83813636 13.651875,13.9008636 L0.208125,68.9545455 C-0.691875,73.2968182 1.445625,77.695 5.420625,79.6909545 C10.164375,82.0372727 15.920625,80.2314091 18.451875,75.5890909 L28.689375,59.9140455 C30.658125,56.2985909 34.445625,54.0435909 38.589375,54.0435909 L60,54.0435909 L60,0.0372727273 Z" id="Fill-7879" fill="#5B5C5F" sketch:type="MSShapeGroup"></path>
                <path d="M52.501875,54.0435909 C52.501875,61.2484091 46.625625,67.0890455 39.376875,67.0890455 C32.128125,67.0890455 26.251875,61.2484091 26.251875,54.0435909 C26.251875,46.8387727 32.128125,40.9981364 39.376875,40.9981364 C46.625625,40.9981364 52.501875,46.8387727 52.501875,54.0435909" id="Fill-7880" fill="#E2E4E5" sketch:type="MSShapeGroup"></path>
                <path d="M46.876875,54.0435909 C46.876875,58.1603636 43.51875,61.4981364 39.376875,61.4981364 C35.235,61.4981364 31.876875,58.1603636 31.876875,54.0435909 C31.876875,49.9268182 35.235,46.5890455 39.376875,46.5890455 C43.51875,46.5890455 46.876875,49.9268182 46.876875,54.0435909" id="Fill-7881" fill="#5B5C5F" sketch:type="MSShapeGroup"></path>
                <path d="M93.751875,54.0435909 C93.751875,61.2484091 87.875625,67.0890455 80.626875,67.0890455 C73.378125,67.0890455 67.501875,61.2484091 67.501875,54.0435909 C67.501875,46.8387727 73.378125,40.9981364 80.626875,40.9981364 C87.875625,40.9981364 93.751875,46.8387727 93.751875,54.0435909" id="Fill-7882" fill="#E2E4E5" sketch:type="MSShapeGroup"></path>
                <path d="M88.126875,54.0435909 C88.126875,58.1603636 84.76875,61.4981364 80.626875,61.4981364 C76.485,61.4981364 73.126875,58.1603636 73.126875,54.0435909 C73.126875,49.9268182 76.485,46.5890455 80.626875,46.5890455 C84.76875,46.5890455 88.126875,49.9268182 88.126875,54.0435909" id="Fill-7883" fill="#5B5C5F" sketch:type="MSShapeGroup"></path>
                <path d="M45.939375,20.9640455 C45.939375,19.6781364 44.889375,18.6345 43.595625,18.6345 L38.908125,18.6345 C37.614375,18.6345 36.564375,17.5927273 36.564375,16.3049545 L36.564375,11.6458636 C36.564375,10.3599545 35.514375,9.31631818 34.220625,9.31631818 L29.533125,9.31631818 C28.239375,9.31631818 27.189375,10.3599545 27.189375,11.6458636 L27.189375,16.3049545 C27.189375,17.5927273 26.139375,18.6345 24.845625,18.6345 L20.158125,18.6345 C18.864375,18.6345 17.814375,19.6781364 17.814375,20.9640455 L17.814375,25.6231364 C17.814375,26.9109091 18.864375,27.9526818 20.158125,27.9526818 L24.845625,27.9526818 C26.139375,27.9526818 27.189375,28.9963182 27.189375,30.2822273 L27.189375,34.9413182 C27.189375,36.2290909 28.239375,37.2708636 29.533125,37.2708636 L34.220625,37.2708636 C35.514375,37.2708636 36.564375,36.2290909 36.564375,34.9413182 L36.564375,30.2822273 C36.564375,28.9963182 37.614375,27.9526818 38.908125,27.9526818 L43.595625,27.9526818 C44.889375,27.9526818 45.939375,26.9109091 45.939375,25.6231364 L45.939375,20.9640455 Z" id="Fill-7884" fill="#E2E4E5" sketch:type="MSShapeGroup"></path>
                <path d="M82.50375,23.2935909 C82.50375,25.8672727 80.40375,27.9545455 77.81625,27.9545455 C75.226875,27.9545455 73.126875,25.8672727 73.126875,23.2935909 C73.126875,20.7199091 75.226875,18.6345 77.81625,18.6345 C80.40375,18.6345 82.50375,20.7199091 82.50375,23.2935909" id="Fill-7885" fill="#26A69A" sketch:type="MSShapeGroup"></path>
                <path d="M101.25375,23.2909818 C101.25375,25.8646636 99.15375,27.9500727 96.56625,27.9500727 C93.976875,27.9500727 91.876875,25.8646636 91.876875,23.2909818 C91.876875,20.7191636 93.976875,18.6318909 96.56625,18.6318909 C99.15375,18.6318909 101.25375,20.7191636 101.25375,23.2909818" id="Fill-7886" fill="#42A5F6" sketch:type="MSShapeGroup"></path>
                <path d="M91.87875,32.6117727 C91.87875,35.1854545 89.77875,37.2727273 87.19125,37.2727273 C84.601875,37.2727273 82.501875,35.1854545 82.501875,32.6117727 C82.501875,30.0380909 84.601875,27.9526818 87.19125,27.9526818 C89.77875,27.9526818 91.87875,30.0380909 91.87875,32.6117727" id="Fill-7887" fill="#FDD835" sketch:type="MSShapeGroup"></path>
                <path d="M91.876875,13.9718682 C91.876875,16.54555 89.77875,18.6309591 87.189375,18.6309591 C84.6,18.6309591 82.501875,16.54555 82.501875,13.9718682 C82.501875,11.3981864 84.6,9.31091364 87.189375,9.31091364 C89.77875,9.31091364 91.876875,11.3981864 91.876875,13.9718682" id="Fill-7888" fill="#EF5350" sketch:type="MSShapeGroup"></path>
                <path d="M75.9961875,0.966481818 L71.2524375,11.1792091 L48.7524375,11.1792091 L44.0068125,0.966481818 C54.6774375,-0.300790909 65.3274375,-0.300790909 75.9961875,0.966481818" id="Fill-7890" fill="#5B5C5F" sketch:type="MSShapeGroup"></path>
                <path d="M60,0.0164 C54.67125,0.0164 49.3425,0.333218182 44.008125,0.966854545 L48.751875,11.1795818 L60,11.1795818 L60,0.0164 Z" id="Fill-7891" fill="#787878" sketch:type="MSShapeGroup"></path>
                <path d="M75.001875,35.4072273 C75.001875,36.4359545 74.161875,37.2708636 73.126875,37.2708636 L65.626875,37.2708636 C64.591875,37.2708636 63.751875,36.4359545 63.751875,35.4072273 C63.751875,34.3766364 64.591875,33.5435909 65.626875,33.5435909 L73.126875,33.5435909 C74.161875,33.5435909 75.001875,34.3766364 75.001875,35.4072273" id="Fill-7892" fill="#5B5C5F" sketch:type="MSShapeGroup"></path>
                <path d="M56.251875,35.4072273 C56.251875,36.4359545 55.411875,37.2708636 54.376875,37.2708636 L46.876875,37.2708636 C45.841875,37.2708636 45.001875,36.4359545 45.001875,35.4072273 C45.001875,34.3766364 45.841875,33.5435909 46.876875,33.5435909 L54.376875,33.5435909 C55.411875,33.5435909 56.251875,34.3766364 56.251875,35.4072273" id="Fill-7893" fill="#787878" sketch:type="MSShapeGroup"></path>
            </g>
        </g>
    </g>
</svg>