<?xml version="1.0" encoding="UTF-8" standalone="no"?>
<svg width="113px" height="105px" viewBox="0 0 113 105" version="1.1" xmlns="http://www.w3.org/2000/svg" xmlns:xlink="http://www.w3.org/1999/xlink" xmlns:sketch="http://www.bohemiancoding.com/sketch/ns">
    <!-- Generator: Sketch 3.2.2 (9983) - http://www.bohemiancoding.com/sketch -->
    <title>Group 3</title>
    <desc>Created with Sketch.</desc>
    <defs></defs>
    <g id="Page-1" stroke="none" stroke-width="1" fill="none" fill-rule="evenodd" sketch:type="MSPage">
        <g id="Homepage-(docenten)-3" sketch:type="MSArtboardGroup" transform="translate(-833.000000, -360.000000)">
            <g id="Group-3" sketch:type="MSLayerGroup" transform="translate(889.500000, 412.500000) scale(-1, 1) translate(-889.500000, -412.500000) translate(833.000000, 360.000000)">
                <path d="M98.2827296,76.8138722 C95.486657,86.2313493 98.1406457,97.0721359 106.176285,104.2721 C92.5099097,104.2721 80.2310462,98.5058725 71.7253021,88.8746382 C66.989169,89.8478413 62.0074587,90.3692 56.8678773,90.3692 C25.8725176,90.3692 0.735929924,71.6871776 0.735929924,48.6604989 C0.735929924,25.6338201 25.8725176,6.95179776 56.8678773,6.95179776 C87.8825323,6.95179776 112.999825,25.6459852 112.999825,48.6604989 C112.999825,59.7480619 107.118249,69.6364998 98.2827296,76.8138722" id="Fill-2845" fill="#F0F0F0" sketch:type="MSShapeGroup"></path>
                <path d="M56.8680527,6.95145019 C25.872693,6.95145019 0.736105336,25.6334726 0.736105336,48.6601513 C0.736105336,65.3575347 13.9586872,79.7626773 33.0417951,86.4239045 L98.9775379,21.101127 C87.5406536,11.4594656 71.9500053,6.95145019 56.8680527,6.95145019" id="Fill-2846" fill="#FFFFFF" sketch:type="MSShapeGroup"></path>
                <text id="--Het" sketch:type="MSTextLayer" transform="translate(57.000000, 49.000000) scale(-1, 1) translate(-57.000000, -49.000000) " font-family="Roboto" font-size="18" font-weight="normal" line-spacing="25" fill="#03A9F4">
                    <tspan x="23" y="41">  Het</tspan>
                    <tspan x="23" y="66">is gratis!</tspan>
                </text>
                <path d="M42.5533536,20.8543506 C42.5533536,32.3711657 33.1284488,41.7087011 21.5038734,41.7087011 C9.87754378,41.7087011 0.454393125,32.3711657 0.454393125,20.8543506 C0.454393125,9.33753547 9.87754378,0 21.5038734,0 C33.1284488,0 42.5533536,9.33753547 42.5533536,20.8543506" id="Fill-2850" fill="#EF5350" sketch:type="MSShapeGroup"></path>
                <path d="M14.8496064,26.0797557 L21.1662046,20.7549448 C23.9850809,18.3966654 25.0147513,17.086317 25.0147513,15.252872 C25.0147513,13.2439029 23.574616,12.079535 21.6941958,12.079535 C20.0488281,12.079535 18.9033855,12.8372431 17.6404167,14.3509213 C17.3755441,14.6411444 16.9650792,14.9035616 16.3774479,14.9035616 C15.4670579,14.9035616 14.7320802,14.1753972 14.7320802,13.2751844 C14.7320802,12.8963304 14.8794265,12.4879327 15.142545,12.168166 C16.8177328,10.1018474 18.7279732,8.87839218 21.9590684,8.87839218 C25.9847815,8.87839218 28.7457716,11.3235648 28.7457716,14.962649 L28.7457716,15.0199984 C28.7457716,18.2228791 27.0407637,19.9676931 23.3974495,22.9081565 L19.1682581,26.4012602 L27.5108688,26.4012602 C28.3931928,26.4012602 29.0983504,27.0981431 29.0983504,27.972288 C29.0983504,28.844695 28.3931928,29.5433157 27.5108688,29.5433157 L15.8477026,29.5433157 C14.7320802,29.5433157 13.9093963,28.9037823 13.9093963,27.8558512 C13.9093963,27.1572305 14.232155,26.5750465 14.8496064,26.0797557" id="Fill-2851" fill="#FFFFFF" sketch:type="MSShapeGroup" transform="translate(21.503873, 19.210854) scale(-1, 1) translate(-21.503873, -19.210854) "></path>
            </g>
        </g>
    </g>
</svg>