<?xml version="1.0" encoding="UTF-8" standalone="no"?>
<svg width="160px" height="185px" viewBox="0 0 160 185" version="1.1" xmlns="http://www.w3.org/2000/svg" xmlns:xlink="http://www.w3.org/1999/xlink" xmlns:sketch="http://www.bohemiancoding.com/sketch/ns">
    <!-- Generator: Sketch 3.2.2 (9983) - http://www.bohemiancoding.com/sketch -->
    <title>Group 5</title>
    <desc>Created with Sketch.</desc>
    <defs></defs>
    <g id="Page-1" stroke="none" stroke-width="1" fill="none" fill-rule="evenodd" sketch:type="MSPage">
        <g id="Homepage-(docenten)-3" sketch:type="MSArtboardGroup" transform="translate(-622.000000, -562.000000)">
            <g id="Group-5" sketch:type="MSLayerGroup" transform="translate(620.000000, 562.000000)">
                <path d="M162,80.9375 L162,138.536094 C162,164.196172 141.180107,185 115.497321,185 L67.6755,185 C50.8853571,185 35.4027857,175.958125 27.1610357,161.340234 L15.0428571,139.848438 L4.71535714,121.550781 L3.8475,119.992734 C1.55635714,115.864922 2.95360714,110.664688 7.00360714,108.239453 L7.46357143,107.964844 C19.8160714,101.030234 35.4375,105.392188 42.4092857,117.735156 L46.2857143,124.614844 L46.2857143,14.3085937 C46.2857143,6.405625 52.6962857,0 60.6053571,0 L60.8946429,0 C68.8037143,0 75.2142857,6.405625 75.2142857,14.3114844 L75.2142857,80.9375 C75.2142857,80.9375 75.2142857,69.375 89.6785714,69.375 C104.142857,69.375 104.142857,80.9375 104.142857,80.9375 C104.142857,80.9375 104.142857,69.375 118.607143,69.375 C133.071429,69.375 133.071429,80.9375 133.071429,80.9375 C133.071429,80.9375 133.071429,69.375 147.535714,69.375 C162,69.375 162,80.9375 162,80.9375" id="Fill-2565" fill="#F5B1A9" sketch:type="MSShapeGroup"></path>
                <path d="M147.535714,69.375 C133.071429,69.375 133.071429,80.9375 133.071429,80.9375 C133.071429,80.9375 133.071429,69.375 118.607143,69.375 C104.142857,69.375 104.142857,80.9375 104.142857,80.9375 C104.142857,80.9375 104.142857,69.375 89.6785714,69.375 C75.2142857,69.375 75.2142857,80.9375 75.2142857,80.9375 L75.2142857,14.3114844 C75.2142857,6.405625 68.8037143,0 60.8946429,0 L60.6053571,0 C52.6962857,0 46.2857143,6.405625 46.2857143,14.3085937 L46.2857143,124.614844 L42.4092857,117.735156 C35.4375,105.392188 19.8160714,101.030234 7.46357143,107.964844 L7.00360714,108.239453 C2.95360714,110.664688 1.55635714,115.864922 3.8475,119.989844 L4.71535714,121.550781 L15.0428571,139.848438 L23.46975,154.795859 L160.513071,75.734375 C158.832321,72.6645312 155.253857,69.375 147.535714,69.375" id="Fill-2566" fill="#FBC8C8" sketch:type="MSShapeGroup"></path>
                <path d="M60.8376536,8.671875 L60.6640821,8.671875 C55.9169036,8.671875 52.0722964,12.5164062 52.0722964,17.2599219 L52.0722964,31.796875 L69.4294393,31.796875 L69.4294393,17.2599219 C69.4294393,12.5164062 65.5819393,8.671875 60.8376536,8.671875" id="Fill-2567" fill="#FFFFFF" sketch:type="MSShapeGroup"></path>
                <path d="M27.6262071,132.710328 L15.0422786,139.850172 L4.71477857,121.552516 C5.35120714,119.641812 6.68192143,117.96525 8.56227857,116.930406 L8.73585,116.837906 C12.8437071,114.499391 18.1087071,115.944703 20.4229929,120.049391 L27.6262071,132.710328 Z" id="Fill-2568" fill="#FFFFFF" sketch:type="MSShapeGroup"></path>
            </g>
        </g>
    </g>
</svg>