<?xml version="1.0" encoding="UTF-8" standalone="no"?>
<svg width="95px" height="121px" viewBox="0 0 95 121" version="1.1" xmlns="http://www.w3.org/2000/svg" xmlns:xlink="http://www.w3.org/1999/xlink" xmlns:sketch="http://www.bohemiancoding.com/sketch/ns">
    <!-- Generator: Sketch 3.2.2 (9983) - http://www.bohemiancoding.com/sketch -->
    <title>Group</title>
    <desc>Created with Sketch.</desc>
    <defs></defs>
    <g id="Page-1" stroke="none" stroke-width="1" fill="none" fill-rule="evenodd" sketch:type="MSPage">
        <g id="Homepage-(docenten)-3" sketch:type="MSArtboardGroup" transform="translate(-347.000000, -539.000000)">
            <g id="Group" sketch:type="MSLayerGroup" transform="translate(347.000000, 539.000000)">
                <path d="M21.849408,117.21875 C21.849408,119.307891 23.569728,121 25.689408,121 L90.969408,121 C93.089088,121 94.809408,119.307891 94.809408,117.21875 L94.809408,26.46875 C94.809408,24.3815 93.089088,22.6875 90.969408,22.6875 L25.689408,22.6875 C23.569728,22.6875 21.849408,24.3815 21.849408,26.46875 L21.849408,117.21875 Z" id="Fill-1922" fill="#D32F2F" sketch:type="MSShapeGroup"></path>
                <path d="M87.1296,94.53125 L29.5296,94.53125 L29.5296,32.140625 L87.1296,32.140625 L87.1296,94.53125 Z" id="Fill-1923" fill="#212121" sketch:type="MSShapeGroup"></path>
                <path d="M29.529408,32.140625 L86.317248,32.140625 L94.179648,24.4004062 C93.492288,23.3700156 92.313408,22.6875 90.969408,22.6875 L25.689408,22.6875 C23.569728,22.6875 21.849408,24.3815 21.849408,26.46875 L21.849408,95.6221406 L29.529408,88.0596406 L29.529408,32.140625 Z" id="Fill-1924" fill="#EF5350" sketch:type="MSShapeGroup"></path>
                <path d="M29.529408,88.0598297 L86.317248,32.1408141 L29.529408,32.1408141 L29.529408,88.0598297 Z" id="Fill-1925" fill="#5B5C5F" sketch:type="MSShapeGroup"></path>
                <path d="M58.329408,100.203125 C54.088128,100.203125 50.649408,103.589234 50.649408,107.765625 C50.649408,111.942016 54.088128,115.328125 58.329408,115.328125 C62.570688,115.328125 66.009408,111.942016 66.009408,107.765625 C66.009408,103.589234 62.570688,100.203125 58.329408,100.203125 M58.329408,103.984375 C60.447168,103.984375 62.169408,105.680266 62.169408,107.765625 C62.169408,109.850984 60.447168,111.546875 58.329408,111.546875 C56.211648,111.546875 54.489408,109.850984 54.489408,107.765625 C54.489408,105.680266 56.211648,103.984375 58.329408,103.984375" id="Fill-1926" fill="#E57373" sketch:type="MSShapeGroup"></path>
                <path d="M62.169408,27.4140625 C62.169408,27.935875 61.739328,28.359375 61.209408,28.359375 L55.449408,28.359375 C54.919488,28.359375 54.489408,27.935875 54.489408,27.4140625 C54.489408,26.89225 54.919488,26.46875 55.449408,26.46875 L61.209408,26.46875 C61.739328,26.46875 62.169408,26.89225 62.169408,27.4140625" id="Fill-1927" fill="#E57373" sketch:type="MSShapeGroup"></path>
                <path d="M36.48,15.125 L28.8,15.125 L28.8,22.6875 L36.48,22.6875 L36.48,15.125 Z" id="Fill-1928" fill="#5B5C5F" sketch:type="MSShapeGroup"></path>
                <path d="M55.653696,59.7384562 C55.148736,59.1977375 54.565056,58.7628937 53.929536,58.4547219 C53.192256,58.070925 52.374336,57.8478312 51.546816,57.7703156 L44.609856,64.0793312 C44.623296,64.8960812 44.784576,65.7166125 45.114816,66.4728625 C45.375936,67.1175656 45.773376,67.7263469 46.278336,68.265175 L41.507136,72.5720187 L45.834816,77.1851437 L55.294656,68.6187219 C57.890496,66.2592219 58.049856,62.2926906 55.653696,59.7384562" id="Fill-1929" fill="#CFD3D4" sketch:type="MSShapeGroup"></path>
                <path d="M53.928768,58.4552891 L45.115968,66.4696484 C44.783808,65.7152891 44.622528,64.8947578 44.609088,64.0798984 L51.547968,57.7689922 C52.373568,57.8483984 53.191488,58.0696016 53.928768,58.4552891" id="Fill-1930" fill="#FFFFFF" sketch:type="MSShapeGroup"></path>
                <path d="M56.778816,91.7072234 C33.039936,104.31202 13.797696,103.489598 8.667456,77.5729109 C13.275456,81.7908953 20.064576,84.2241297 26.383296,84.2241297 C33.191616,84.2222391 39.702336,81.5054109 45.032256,76.3288797 L42.432576,73.5534422 C28.067136,87.7009891 7.382976,76.7485984 7.680576,68.0630672 C12.799296,60.5005672 12.799296,52.9380672 7.680576,45.3755672 L7.680576,15.1312391 C7.688256,13.9703953 8.072256,3.78181719 19.200576,3.78181719 C30.326976,3.78181719 30.710976,13.9703953 30.720576,15.1255672 L34.560576,15.1255672 C34.560576,9.89420781 31.348416,0.0005671875 19.200576,0.0005671875 C7.050816,0.0005671875 3.840576,9.89420781 3.840576,15.1255672 L3.840576,45.3755672 C-1.280064,52.9380672 -1.280064,60.5005672 3.840576,68.0630672 C3.535296,85.2753172 11.735616,103.455567 31.071936,103.455567 C38.863296,103.455567 48.106176,100.625302 58.708416,94.9780047 L56.778816,91.7072234 Z" id="Fill-1931" fill="#FFFFFF" sketch:type="MSShapeGroup"></path>
                <path d="M72.812736,80.8334828 C72.434496,80.1944516 71.956416,79.6367172 71.399616,79.1962016 C70.758336,78.6592641 70.001856,78.2622328 69.206976,78.0088891 L60.966336,82.7241078 C60.795456,83.5314047 60.772416,84.3746234 60.931776,85.1894828 C61.043136,85.8833422 61.298496,86.5715297 61.676736,87.2086703 L56.018496,90.4189516 L59.253696,95.9017641 L70.481856,89.5038891 C73.563456,87.7399359 74.604096,83.8679359 72.812736,80.8334828" id="Fill-1932" fill="#CFD3D4" sketch:type="MSShapeGroup"></path>
                <path d="M71.39904,79.197525 L60.9312,85.1889156 C60.77376,84.3740562 60.7968,83.5308375 60.96576,82.7254312 L69.2064,78.0083219 C70.00128,78.2616656 70.75968,78.6586969 71.39904,79.197525" id="Fill-1933" fill="#FFFFFF" sketch:type="MSShapeGroup"></path>
                <path d="M9.59904,56.71875 C9.59904,58.8078906 7.88064,60.5 5.75904,60.5 C3.63936,60.5 1.91904,58.8078906 1.91904,56.71875 C1.91904,54.6315 3.63936,52.9375 5.75904,52.9375 C7.88064,52.9375 9.59904,54.6315 9.59904,56.71875" id="Fill-1934" fill="#CFD3D4" sketch:type="MSShapeGroup"></path>
            </g>
        </g>
    </g>
</svg>