<?xml version="1.0" encoding="UTF-8" standalone="no"?>
<svg width="191px" height="185px" viewBox="0 0 191 185" version="1.1" xmlns="http://www.w3.org/2000/svg" xmlns:xlink="http://www.w3.org/1999/xlink" xmlns:sketch="http://www.bohemiancoding.com/sketch/ns">
    <!-- Generator: Sketch 3.2.2 (9983) - http://www.bohemiancoding.com/sketch -->
    <title>Group 4</title>
    <desc>Created with Sketch.</desc>
    <defs></defs>
    <g id="Page-1" stroke="none" stroke-width="1" fill="none" fill-rule="evenodd" sketch:type="MSPage">
        <g id="Homepage-(docenten)-3" sketch:type="MSArtboardGroup" transform="translate(-806.000000, -479.000000)">
            <g id="Group-4" sketch:type="MSLayerGroup" transform="translate(806.000000, 479.000000)">
                <path d="M152.8,0 L3.18333333,0 C1.42613333,0 0,1.42896552 0,3.18965517 L0,181.810345 C0,183.574224 1.42613333,185 3.18333333,185 L187.816667,185 C189.573867,185 191,183.574224 191,181.810345 L191,38.2758621 L152.8,0 Z" id="Fill-5942" fill="#FFFFFF" sketch:type="MSShapeGroup"></path>
                <path d="M89.1333333,146.724138 L12.7333333,146.724138 L12.7333333,82.9310345 L89.1333333,82.9310345 L89.1333333,146.724138 Z" id="Fill-5943" fill="#64B5F7" sketch:type="MSShapeGroup"></path>
                <path d="M178.266667,86.1206897 C178.266667,87.884569 176.840533,89.3103448 175.083333,89.3103448 L105.05,89.3103448 C103.2928,89.3103448 101.866667,87.884569 101.866667,86.1206897 C101.866667,84.36 103.2928,82.9310345 105.05,82.9310345 L175.083333,82.9310345 C176.840533,82.9310345 178.266667,84.36 178.266667,86.1206897" id="Fill-5944" fill="#E2E4E5" sketch:type="MSShapeGroup"></path>
                <path d="M178.266667,105.258621 C178.266667,107.0225 176.840533,108.448276 175.083333,108.448276 L105.05,108.448276 C103.2928,108.448276 101.866667,107.0225 101.866667,105.258621 C101.866667,103.497931 103.2928,102.068966 105.05,102.068966 L175.083333,102.068966 C176.840533,102.068966 178.266667,103.497931 178.266667,105.258621" id="Fill-5945" fill="#E2E4E5" sketch:type="MSShapeGroup"></path>
                <path d="M178.266667,124.396552 C178.266667,126.160431 176.840533,127.586207 175.083333,127.586207 L105.05,127.586207 C103.2928,127.586207 101.866667,126.160431 101.866667,124.396552 C101.866667,122.635862 103.2928,121.206897 105.05,121.206897 L175.083333,121.206897 C176.840533,121.206897 178.266667,122.635862 178.266667,124.396552" id="Fill-5946" fill="#E2E4E5" sketch:type="MSShapeGroup"></path>
                <path d="M178.266667,143.534483 C178.266667,145.298362 176.840533,146.724138 175.083333,146.724138 L105.05,146.724138 C103.2928,146.724138 101.866667,145.298362 101.866667,143.534483 C101.866667,141.773793 103.2928,140.344828 105.05,140.344828 L175.083333,140.344828 C176.840533,140.344828 178.266667,141.773793 178.266667,143.534483" id="Fill-5947" fill="#E2E4E5" sketch:type="MSShapeGroup"></path>
                <path d="M178.266667,162.672414 C178.266667,164.436293 176.840533,165.862069 175.083333,165.862069 L105.05,165.862069 C103.2928,165.862069 101.866667,164.436293 101.866667,162.672414 C101.866667,160.911724 103.2928,159.482759 105.05,159.482759 L175.083333,159.482759 C176.840533,159.482759 178.266667,160.911724 178.266667,162.672414" id="Fill-5948" fill="#E2E4E5" sketch:type="MSShapeGroup"></path>
                <path d="M89.1333333,162.672414 C89.1333333,164.436293 87.7072,165.862069 85.95,165.862069 L15.9166667,165.862069 C14.1594667,165.862069 12.7333333,164.436293 12.7333333,162.672414 C12.7333333,160.911724 14.1594667,159.482759 15.9166667,159.482759 L85.95,159.482759 C87.7072,159.482759 89.1333333,160.911724 89.1333333,162.672414" id="Fill-5949" fill="#E2E4E5" sketch:type="MSShapeGroup"></path>
                <path d="M12.7333333,82.9310345 L12.7333333,146.724138 L20.4752,146.724138 L84.1418667,82.9310345 L12.7333333,82.9310345 Z" id="Fill-5950" fill="#90CAF9" sketch:type="MSShapeGroup"></path>
                <path d="M178.266667,63.7931034 C178.266667,65.5569828 176.840533,66.9827586 175.083333,66.9827586 L15.9166667,66.9827586 C14.1594667,66.9827586 12.7333333,65.5569828 12.7333333,63.7931034 C12.7333333,62.0324138 14.1594667,60.6034483 15.9166667,60.6034483 L175.083333,60.6034483 C176.840533,60.6034483 178.266667,62.0324138 178.266667,63.7931034" id="Fill-5951" fill="#EF5350" sketch:type="MSShapeGroup"></path>
                <path d="M152.8,0 L152.8,38.2758621 L191,38.2758621 L152.8,0 Z" id="Fill-5952" fill="#E2E4E5" sketch:type="MSShapeGroup"></path>
                <text id="NIEUWS" sketch:type="MSTextLayer" font-family="Roboto" font-size="36" font-weight="686" fill="#5B5C5F">
                    <tspan x="13" y="48">NIEUWS</tspan>
                </text>
            </g>
        </g>
    </g>
</svg>