<?xml version="1.0" encoding="UTF-8" standalone="no"?>
<svg width="275px" height="156px" viewBox="0 0 275 156" version="1.1" xmlns="http://www.w3.org/2000/svg" xmlns:xlink="http://www.w3.org/1999/xlink" xmlns:sketch="http://www.bohemiancoding.com/sketch/ns">
    <!-- Generator: Sketch 3.2.2 (9983) - http://www.bohemiancoding.com/sketch -->
    <title>Group</title>
    <desc>Created with Sketch.</desc>
    <defs></defs>
    <g id="Page-1" stroke="none" stroke-width="1" fill="none" fill-rule="evenodd" sketch:type="MSPage">
        <g id="Homepage-(docenten)-3" sketch:type="MSArtboardGroup" transform="translate(-401.000000, -507.000000)">
            <g id="Group" sketch:type="MSLayerGroup" transform="translate(401.000000, 507.000000)">
                <path d="M240.625,17.4645417 C240.625,7.9196371 232.929297,0.180875576 223.4375,0.180875576 L51.5625,0.180875576 C42.0707031,0.180875576 34.375,7.9196371 34.375,17.4645417 L34.375,129.808372 L240.625,129.808372 L240.625,17.4645417 Z" id="Fill-7010" fill="#F0F0F0" sketch:type="MSShapeGroup"></path>
                <path d="M0,129.808372 L0,138.450205 C11.0042969,149.516072 25.9316406,155.733871 41.4949219,155.733871 L233.505078,155.733871 C249.068359,155.733871 263.995703,149.516072 275,138.450205 L275,129.808372 L0,129.808372 Z" id="Fill-7014" fill="#FFFFFF" sketch:type="MSShapeGroup"></path>
                <path d="M223.4375,129.808372 L51.5625,129.808372 L51.5625,17.4645417 L223.4375,17.4645417 L223.4375,129.808372 Z" id="Fill-7015" fill="#212121" sketch:type="MSShapeGroup"></path>
                <path d="M51.5625,129.464427 L162.9375,17.4662701 L51.5625,17.4662701 L51.5625,129.464427 Z" id="Fill-7016" fill="#5B5C5F" sketch:type="MSShapeGroup"></path>
                <path d="M158.984375,138.450205 L116.015625,138.450205 L116.015625,129.808372 L158.984375,129.808372 L158.984375,138.450205 Z" id="Fill-7017" fill="#E2E4E5" sketch:type="MSShapeGroup"></path>
            </g>
        </g>
    </g>
</svg>