<?xml version="1.0" encoding="UTF-8" standalone="no"?>
<svg width="88px" height="81px" viewBox="0 0 88 81" version="1.1" xmlns="http://www.w3.org/2000/svg" xmlns:xlink="http://www.w3.org/1999/xlink" xmlns:sketch="http://www.bohemiancoding.com/sketch/ns">
    <!-- Generator: Sketch 3.2.2 (9983) - http://www.bohemiancoding.com/sketch -->
    <title>Group</title>
    <desc>Created with Sketch.</desc>
    <defs></defs>
    <g id="Page-1" stroke="none" stroke-width="1" fill="none" fill-rule="evenodd" sketch:type="MSPage">
        <g id="Homepage-(docenten)-3" sketch:type="MSArtboardGroup" transform="translate(-293.000000, -583.000000)">
            <g id="Group" sketch:type="MSLayerGroup" transform="translate(337.000000, 623.000000) scale(-1, 1) translate(-337.000000, -623.000000) translate(293.000000, 582.000000)">
                <path d="M0,76.5333333 C0,79.5536667 2.462625,82 5.5,82 L82.5,82 C85.537375,82 88,79.5536667 88,76.5333333 L88,27.3333333 C88,24.3143667 85.537375,21.8666667 82.5,21.8666667 L5.5,21.8666667 C2.462625,21.8666667 0,24.3143667 0,27.3333333 L0,76.5333333 Z" id="Fill-5177" fill="#212121" sketch:type="MSShapeGroup"></path>
                <path d="M5.5,21.8666667 C2.462625,21.8666667 0,24.3143667 0,27.3333333 L0,76.5333333 C0,77.8754 0.504625,79.0876333 1.31175,80.0374667 L59.838625,21.8666667 L5.5,21.8666667 Z" id="Fill-5178" fill="#5B5C5F" sketch:type="MSShapeGroup"></path>
                <path d="M79.75,30.0666667 L8.25,30.0666667 L8.25,38.2666667 L79.75,38.2666667 L79.75,30.0666667 Z" id="Fill-5179" fill="#4DB6AC" sketch:type="MSShapeGroup"></path>
                <path d="M74.25,47.8333333 C71.97575,47.8333333 70.125,49.6728667 70.125,51.9333333 C70.125,54.1938 71.97575,56.0333333 74.25,56.0333333 C76.52425,56.0333333 78.375,54.1938 78.375,51.9333333 C78.375,49.6728667 76.52425,47.8333333 74.25,47.8333333 M74.25,58.7666667 C70.459125,58.7666667 67.375,55.7012333 67.375,51.9333333 C67.375,48.1654333 70.459125,45.1 74.25,45.1 C78.040875,45.1 81.125,48.1654333 81.125,51.9333333 C81.125,55.7012333 78.040875,58.7666667 74.25,58.7666667" id="Fill-5180" fill="#F0F0F0" sketch:type="MSShapeGroup"></path>
                <path d="M74.25,64.2333333 C71.97575,64.2333333 70.125,66.0728667 70.125,68.3333333 C70.125,70.5938 71.97575,72.4333333 74.25,72.4333333 C76.52425,72.4333333 78.375,70.5938 78.375,68.3333333 C78.375,66.0728667 76.52425,64.2333333 74.25,64.2333333 M74.25,75.1666667 C70.459125,75.1666667 67.375,72.1012333 67.375,68.3333333 C67.375,64.5654333 70.459125,61.5 74.25,61.5 C78.040875,61.5 81.125,64.5654333 81.125,68.3333333 C81.125,72.1012333 78.040875,75.1666667 74.25,75.1666667" id="Fill-5181" fill="#F0F0F0" sketch:type="MSShapeGroup"></path>
                <path d="M61.875,38.2666667 L52.25,38.2666667 L52.25,30.0666667 L61.875,30.0666667 L61.875,38.2666667 Z" id="Fill-5182" fill="#FFFFFF" sketch:type="MSShapeGroup"></path>
                <path d="M25.3152625,1.33058667 C24.2152625,0.91922 22.8498875,1.41805333 22.2792625,2.44032 C21.7072625,3.45985333 22.1073875,4.70762 23.1675125,5.21192 L58.1750125,21.86612 L80.1873875,21.86612 L25.3152625,1.33058667 Z" id="Fill-5183" fill="#E2E4E5" sketch:type="MSShapeGroup"></path>
                <path d="M59.125,38.2666667 L55,38.2666667 L55,30.0666667 L59.125,30.0666667 L59.125,38.2666667 Z" id="Fill-5184" fill="#EF5350" sketch:type="MSShapeGroup"></path>
                <path d="M59.125,51.9333333 L8.25,51.9333333 L8.25,49.2 L59.125,49.2 L59.125,51.9333333 Z" id="Fill-5185" fill="#979797" sketch:type="MSShapeGroup"></path>
                <path d="M59.125,58.7666667 L8.25,58.7666667 L8.25,56.0333333 L59.125,56.0333333 L59.125,58.7666667 Z" id="Fill-5186" fill="#979797" sketch:type="MSShapeGroup"></path>
                <path d="M59.125,65.6 L8.25,65.6 L8.25,62.8666667 L59.125,62.8666667 L59.125,65.6 Z" id="Fill-5187" fill="#979797" sketch:type="MSShapeGroup"></path>
                <path d="M59.125,72.4333333 L8.25,72.4333333 L8.25,69.7 L59.125,69.7 L59.125,72.4333333 Z" id="Fill-5188" fill="#979797" sketch:type="MSShapeGroup"></path>
                <path d="M8.25,30.0666667 L8.25,38.2666667 L43.338625,38.2666667 L51.588625,30.0666667 L8.25,30.0666667 Z" id="Fill-5189" fill="#80CBC4" sketch:type="MSShapeGroup"></path>
            </g>
        </g>
    </g>
</svg>