<?xml version="1.0" encoding="UTF-8" standalone="no"?>
<svg width="164px" height="164px" viewBox="0 0 164 164" version="1.1" xmlns="http://www.w3.org/2000/svg" xmlns:xlink="http://www.w3.org/1999/xlink" xmlns:sketch="http://www.bohemiancoding.com/sketch/ns">
    <!-- Generator: Sketch 3.2.2 (9983) - http://www.bohemiancoding.com/sketch -->
    <title>Group</title>
    <desc>Created with Sketch.</desc>
    <defs></defs>
    <g id="Page-1" stroke="none" stroke-width="1" fill="none" fill-rule="evenodd" sketch:type="MSPage">
        <g id="Homepage-(docenten)-3" sketch:type="MSArtboardGroup" transform="translate(-392.000000, -791.000000)">
            <g id="Group" sketch:type="MSLayerGroup" transform="translate(392.000000, 791.000000)">
                <circle id="Oval-115" fill="#03A9F4" sketch:type="MSShapeGroup" cx="81.9997343" cy="82.1379262" r="81.5"></circle>
                <path d="M50.5684,58.8792123 C49.4524,56.7109046 48.7017333,54.5171662 48.2057333,52.6915046 L55.3337333,52.6915046 L55.3337333,55.6374585 C55.3337333,59.6434738 56.2297333,63.4380123 57.8150667,66.8430585 C54.8777333,65.2302123 52.4777333,62.5880892 50.5684,58.8792123 M108.667067,55.6374585 L108.667067,52.6915046 L115.793733,52.6915046 C115.297733,54.5171662 114.5484,56.7109046 113.431067,58.8792123 C111.521733,62.5880892 109.123067,65.2302123 106.185733,66.8430585 C107.769733,63.4380123 108.667067,59.6434738 108.667067,55.6374585 M124.6484,49.0629354 C124.7564,47.9359508 124.385733,46.8156585 123.6284,45.9777815 C122.869733,45.1385662 121.793733,44.6607354 120.667067,44.6607354 L108.667067,44.6607354 L108.667067,39.3068892 L82.0004,39.3068892 L55.3337333,39.3068892 L55.3337333,44.6607354 L43.3337333,44.6607354 C42.2057333,44.6607354 41.1297333,45.1385662 40.3724,45.9777815 C39.6137333,46.8156585 39.2430667,47.9359508 39.3510667,49.0629354 C41.3724,70.0393046 54.6830667,75.87232 74.9884,81.2542738 C79.6470667,90.7613662 75.6044,101.617628 68.0804,103.324166 C66.8617333,103.599889 66.0004,104.680028 66.0004,105.931489 L66.0004,108.906889 L82.0004,108.906889 L98.0004,108.906889 L98.0004,105.931489 C98.0004,104.680028 97.1364,103.599889 95.9204,103.324166 C88.3964,101.617628 84.3524,90.7613662 89.0124,81.2542738 C109.317733,75.87232 122.627067,70.0393046 124.6484,49.0629354" id="Fill-2460" fill="#FDD835" sketch:type="MSShapeGroup"></path>
                <path d="M108.666667,122.29204 C108.666667,123.769702 107.472,124.968963 106,124.968963 L58,124.968963 C56.528,124.968963 55.3333333,123.769702 55.3333333,122.29204 L55.3333333,111.584348 C55.3333333,110.106686 56.528,108.907425 58,108.907425 L106,108.907425 C107.472,108.907425 108.666667,110.106686 108.666667,111.584348 L108.666667,122.29204 Z" id="Fill-2461" fill="#733724" sketch:type="MSShapeGroup"></path>
                <path d="M94,119.615117 L70,119.615117 L70,114.261271 L94,114.261271 L94,119.615117 Z" id="Fill-2462" fill="#F0F0F0" sketch:type="MSShapeGroup"></path>
                <path d="M70,119.615117 L70,114.261271 L82,114.261271 L82,108.907425 L58,108.907425 C56.528,108.907425 55.3333333,110.106686 55.3333333,111.584348 L55.3333333,122.29204 C55.3333333,123.769702 56.528,124.968963 58,124.968963 L82,124.968963 L82,119.615117 L70,119.615117 Z" id="Fill-2463" fill="#8F4D37" sketch:type="MSShapeGroup"></path>
                <path d="M57.8144,66.8426569 C54.8770667,65.2298108 52.4784,62.5876877 50.5677333,58.8788108 C49.4517333,56.7118415 48.7024,54.5167646 48.2064,52.6924415 L55.3330667,52.6924415 L55.3330667,55.6370569 C55.3330667,59.6430723 56.2304,63.4376108 57.8144,66.8426569 M74.9877333,81.2552108 C79.6477333,90.7609646 75.6037333,101.617226 68.0797333,103.323765 C66.8624,103.599488 65.9997333,104.679626 65.9997333,105.932426 L65.9997333,108.907826 L81.9997333,108.907826 L81.9997333,39.3078262 L55.3330667,39.3078262 L55.3330667,44.6616723 L43.3330667,44.6616723 C42.2064,44.6616723 41.1304,45.1395031 40.3717333,45.97738 C39.6144,46.8152569 39.2437333,47.9368877 39.3517333,49.0625338 C41.3730667,70.0389031 54.6824,75.8719185 74.9877333,81.2552108" id="Fill-2464" fill="#FFEE58" sketch:type="MSShapeGroup"></path>
                <path d="M115.219467,92.9948569 C115.2848,92.9841492 115.3328,92.9292723 115.3328,92.8623492 L115.3328,92.8288877 C115.3328,92.7619646 115.2848,92.7057492 115.219467,92.69638 C111.507467,92.1369031 109.3728,89.9940262 108.815467,86.2677492 C108.806133,86.2021646 108.750133,86.15398 108.683467,86.15398 L108.650133,86.15398 C108.583467,86.15398 108.527467,86.2021646 108.518133,86.2677492 C107.9608,89.9940262 105.827467,92.1369031 102.1128,92.69638 C102.047467,92.7057492 101.999467,92.7619646 101.999467,92.8288877 L101.999467,92.8623492 C101.999467,92.9292723 102.047467,92.9841492 102.114133,92.9948569 C105.827467,93.5543338 107.9608,95.6985492 108.518133,99.4248262 C108.527467,99.4904108 108.583467,99.5385954 108.650133,99.5385954 L108.698133,99.5385954 C108.755467,99.5385954 108.8048,99.4957646 108.814133,99.4382108 C109.367467,95.7025646 111.502133,93.5556723 115.219467,92.9948569" id="Fill-2465" fill="#FFFFFF" sketch:type="MSShapeGroup"></path>
                <path d="M61.8184,89.0696846 C61.9224,89.0536231 61.9997333,88.9639462 61.9997333,88.8582077 L61.9997333,88.8033308 C61.9997333,88.6975923 61.9224,88.6079154 61.8184,88.5918538 C55.8770667,87.6964231 52.4624,84.2672846 51.5704,78.3044385 C51.5557333,78.2000385 51.4664,78.1224077 51.3597333,78.1224077 L51.3064,78.1224077 C51.2010667,78.1224077 51.1117333,78.2000385 51.0957333,78.3057769 C50.2037333,84.2672846 46.7890667,87.6977615 40.8477333,88.5918538 C40.7437333,88.6079154 40.6664,88.6975923 40.6664,88.8033308 L40.6664,88.8582077 C40.6664,88.9639462 40.7437333,89.0536231 40.8477333,89.0696846 C46.7890667,89.9637769 50.2050667,93.3929154 51.0957333,99.3571 C51.1117333,99.4615 51.2010667,99.5377923 51.3064,99.5377923 L51.3837333,99.5377923 C51.4757333,99.5377923 51.5544,99.4708692 51.5677333,99.3785154 C52.4544,93.4022846 55.8704,89.9651154 61.8184,89.0696846" id="Fill-2466" fill="#FFFFFF" sketch:type="MSShapeGroup"></path>
            </g>
        </g>
    </g>
</svg>